<svg width="87" height="87" viewBox="0 0 87 87" fill="none" xmlns="http://www.w3.org/2000/svg">
<g clip-path="url(#clip0)">
<path d="M79.1295 53.8086C80.3233 52.476 81.0506 50.7172 81.0506 48.7927C81.0506 44.6446 77.6749 41.269 73.5268 41.269H58.9241C60.3703 36.8801 60.9872 31.0567 60.9872 28.5605V26.0543C60.9872 20.5235 56.4864 16.0226 50.9556 16.0226H48.4476C47.2973 16.0226 46.2942 16.8051 46.015 17.9219L44.649 23.3875C42.7346 31.0417 36.6571 39.4867 30.3672 41.0215C29.2654 38.2327 26.5451 36.2531 23.3684 36.2531H8.32091C6.93654 36.2531 5.81299 37.3767 5.81299 38.7611V83.9036C5.81299 85.288 6.93654 86.4116 8.32091 86.4116H23.3684C26.3595 86.4116 28.9477 84.6577 30.1599 82.123L38.7771 84.9954C41.5943 85.9351 44.5303 86.4116 47.5013 86.4116H68.511C72.6591 86.4116 76.0348 83.0359 76.0348 78.8878C76.0348 77.9097 75.8475 76.9734 75.5064 76.1157C78.6965 75.2446 81.0506 72.3204 81.0506 68.8561C81.0506 66.9317 80.3233 65.1728 79.1295 63.8403C80.3233 62.5077 81.0506 60.7488 81.0506 58.8244C81.0506 56.9 80.3233 55.1411 79.1295 53.8086ZM25.8764 78.8878C25.8764 80.2705 24.7511 81.3957 23.3684 81.3957H10.8288V41.269H23.3684C24.7511 41.269 25.8764 42.3942 25.8764 43.7769V78.8878ZM68.511 56.3165H73.5268C74.9096 56.3165 76.0348 57.4417 76.0348 58.8244C76.0348 60.2071 74.9096 61.3324 73.5268 61.3324H68.511C67.1266 61.3324 66.0031 62.4559 66.0031 63.8403C66.0031 65.2246 67.1266 66.3482 68.511 66.3482H73.5268C74.9096 66.3482 76.0348 67.4734 76.0348 68.8561C76.0348 70.2388 74.9096 71.364 73.5268 71.364H68.511C67.1266 71.364 66.0031 72.4876 66.0031 73.872C66.0031 75.2563 67.1266 76.3799 68.511 76.3799C69.8937 76.3799 71.0189 77.5051 71.0189 78.8878C71.0189 80.2705 69.8937 81.3957 68.511 81.3957H47.5013C45.0703 81.3957 42.6677 81.0062 40.3621 80.2371L30.8922 77.0804V46.0474C34.8263 45.3 38.6768 42.8089 42.1528 38.731C45.5468 34.7484 48.2988 29.4684 49.5143 24.6047L50.4055 21.0384H50.9556C53.721 21.0384 55.9714 23.2889 55.9714 26.0543V28.5605C55.9714 31.9278 54.9181 38.3865 53.5705 41.269H48.4476C47.0633 41.269 45.9397 42.3925 45.9397 43.7769C45.9397 45.1613 47.0633 46.2848 48.4476 46.2848H73.5268C74.9096 46.2848 76.0348 47.41 76.0348 48.7927C76.0348 50.1754 74.9096 51.3007 73.5268 51.3007H68.511C67.1266 51.3007 66.0031 52.4242 66.0031 53.8086C66.0031 55.193 67.1266 56.3165 68.511 56.3165Z" fill="#FFA800"/>
<path fill-rule="evenodd" clip-rule="evenodd" d="M30.3672 41.0215C30.3672 41.0215 30.8922 42.5529 30.8922 46.0474C34.8263 45.3 38.6768 42.8088 42.1528 38.731C45.5468 34.7484 48.2988 29.4684 49.5144 24.6047L50.4055 21.0384H50.9556C53.721 21.0384 55.9714 23.2889 55.9714 26.0543V28.5605C55.9714 31.9278 54.9181 38.3865 53.5705 41.269H58.9241C60.3703 36.8801 60.9873 31.0567 60.9873 28.5605V26.0543C60.9873 20.5235 56.4864 16.0226 50.9556 16.0226H48.4476C47.2973 16.0226 46.2942 16.8051 46.015 17.9219L44.649 23.3875C42.7346 31.0417 36.6571 39.4867 30.3672 41.0215Z" fill="#FFA800"/>
<path d="M18.3529 76.3799C19.738 76.3799 20.8608 75.257 20.8608 73.8719C20.8608 72.4868 19.738 71.364 18.3529 71.364C16.9678 71.364 15.845 72.4868 15.845 73.8719C15.845 75.257 16.9678 76.3799 18.3529 76.3799Z" fill="#FFA800"/>
<path d="M53.4637 0.807861C52.0787 0.807861 50.9558 1.93074 50.9558 3.31578V8.49882C50.9558 9.88386 52.0787 11.0067 53.4637 11.0067C54.8488 11.0067 55.9717 9.88386 55.9717 8.49882V3.31578C55.9717 1.93074 54.8488 0.807861 53.4637 0.807861Z" fill="#FFA800"/>
<path d="M42.8236 11.8675L39.2769 8.32081C38.2976 7.34139 36.7096 7.34139 35.7302 8.32081C34.7507 9.30024 34.7507 10.8881 35.7302 11.8675L39.2769 15.4142C40.2561 16.3935 41.8443 16.3936 42.8236 15.4142C43.803 14.4348 43.803 12.8469 42.8236 11.8675Z" fill="#FFA800"/>
<path d="M71.1971 8.32081C70.2179 7.34139 68.6299 7.34139 67.6504 8.32081L64.1037 11.8673C63.1243 12.8468 63.1243 14.4346 64.1037 15.414C65.083 16.3935 66.671 16.3936 67.6504 15.4142L71.1971 11.8675C72.1766 10.8881 72.1766 9.30024 71.1971 8.32081Z" fill="#FFA800"/>
</g>
<defs>
<clipPath id="clip0">
<rect width="85.6037" height="85.6037" fill="white" transform="translate(0.630127 0.807861)"/>
</clipPath>
</defs>
</svg>
