<svg width="86" height="87" viewBox="0 0 86 87" fill="none" xmlns="http://www.w3.org/2000/svg">
<g clip-path="url(#clip0)">
<path d="M7.10858 9.09209H48.5297V18.757C48.5297 19.5209 49.1466 20.1377 49.9104 20.1377H59.5754V31.1834H62.3368V18.757C62.3368 18.3748 62.181 18.0296 61.9309 17.7795L50.8893 6.73788C50.6379 6.48641 50.2927 6.33068 49.9104 6.33068H12.6314V3.56927H65.0982V33.9448H67.8596V2.18857C67.8596 1.42473 67.2427 0.807861 66.4789 0.807861H11.2507C10.4869 0.807861 9.86999 1.42473 9.86999 2.18857V6.33068H5.72787C4.96404 6.33068 4.34717 6.94755 4.34717 7.71139V85.0309C4.34717 85.7947 4.96404 86.4116 5.72787 86.4116H52.6718V83.6501H7.10858V9.09209ZM51.2911 11.0445L57.623 17.3763H51.2911V11.0445Z" fill="#FFA800"/>
<path d="M80.2858 42.229H78.2066C72.0413 42.229 66.2428 39.5134 62.2969 34.7787L62.0178 34.443C61.4946 33.812 60.4186 33.812 59.8955 34.443L59.6164 34.7774C55.6691 39.5134 49.8705 42.229 43.7052 42.229H41.6261C40.8622 42.229 40.2454 42.8459 40.2454 43.6097V65.9713C40.2454 71.4085 43.178 76.4621 47.8986 79.1588L60.271 86.2295C60.4827 86.3509 60.72 86.4116 60.9559 86.4116C61.1919 86.4116 61.4292 86.3509 61.6409 86.2295L74.0133 79.1588C78.7339 76.4621 81.6665 71.4085 81.6665 65.9713V43.6097C81.6665 42.8459 81.0496 42.229 80.2858 42.229ZM78.9051 65.9713C78.9051 70.4202 76.5071 74.5542 72.6434 76.7601L60.9559 83.4418L49.2685 76.7621C45.4048 74.5542 43.0068 70.4202 43.0068 65.9713V44.9904H43.7052C50.2939 44.9904 56.5158 42.2526 60.9559 37.4363C65.3947 42.2526 71.618 44.9904 78.2066 44.9904H78.9051V65.9713Z" fill="#FFA800"/>
<path d="M60.9558 46.3711C52.5819 46.3711 45.7681 53.185 45.7681 61.5588C45.7681 69.9327 52.5819 76.7466 60.9558 76.7466C69.3297 76.7466 76.1436 69.9327 76.1436 61.5588C76.1436 53.185 69.3297 46.3711 60.9558 46.3711ZM60.9558 73.9852C54.1035 73.9852 48.5295 68.4111 48.5295 61.5588C48.5295 54.7066 54.1035 49.1325 60.9558 49.1325C67.8081 49.1325 73.3822 54.7066 73.3822 61.5588C73.3822 68.4111 67.8081 73.9852 60.9558 73.9852Z" fill="#FFA800"/>
<path d="M60.2973 65.8514L57.79 63.3441L55.8376 65.2965L59.9798 69.4386C60.2407 69.7009 60.5939 69.8431 60.956 69.8431C61.0679 69.8431 61.1811 69.8297 61.293 69.802C61.765 69.6827 62.1378 69.324 62.2787 68.8588L66.4208 55.0518L63.7753 54.259L60.2973 65.8514Z" fill="#FFA800"/>
<path d="M9.86938 24.2799C9.86938 23.5173 10.4875 22.8992 11.2501 22.8992H44.387C45.1496 22.8992 45.7677 23.5173 45.7677 24.2799C45.7677 25.0424 45.1496 25.6606 44.387 25.6606H11.2501C10.4876 25.6606 9.86938 25.0424 9.86938 24.2799Z" fill="#FFA800"/>
<path d="M9.86938 29.8027C9.86938 29.0402 10.4875 28.422 11.2501 28.422H44.387C45.1496 28.422 45.7677 29.0402 45.7677 29.8027C45.7677 30.5652 45.1496 31.1834 44.387 31.1834H11.2501C10.4876 31.1834 9.86938 30.5652 9.86938 29.8027Z" fill="#FFA800"/>
<path d="M9.86938 35.3255C9.86938 34.563 10.4875 33.9448 11.2501 33.9448H44.387C45.1496 33.9448 45.7677 34.563 45.7677 35.3255C45.7677 36.0881 45.1496 36.7062 44.387 36.7062H11.2501C10.4875 36.7062 9.86938 36.0881 9.86938 35.3255Z" fill="#FFA800"/>
<path d="M9.86938 40.8483C9.86938 40.0858 10.4875 39.4676 11.2501 39.4676H36.1028C36.8653 39.4676 37.4835 40.0858 37.4835 40.8483C37.4835 41.6108 36.8653 42.229 36.1028 42.229H11.2501C10.4875 42.229 9.86938 41.6108 9.86938 40.8483Z" fill="#FFA800"/>
<path d="M9.86938 46.3712C9.86938 45.6086 10.4875 44.9905 11.2501 44.9905H36.1028C36.8653 44.9905 37.4835 45.6086 37.4835 46.3712C37.4835 47.1337 36.8653 47.7519 36.1028 47.7519H11.2501C10.4875 47.7519 9.86938 47.1337 9.86938 46.3712Z" fill="#FFA800"/>
<path d="M9.86938 51.894C9.86938 51.1314 10.4875 50.5132 11.2501 50.5132H36.1028C36.8653 50.5132 37.4835 51.1314 37.4835 51.894C37.4835 52.6565 36.8653 53.2747 36.1028 53.2747H11.2501C10.4875 53.2747 9.86938 52.6565 9.86938 51.894Z" fill="#FFA800"/>
<path d="M9.86938 68.4624C9.86938 67.6998 10.4875 67.0817 11.2501 67.0817H36.1028C36.8653 67.0817 37.4835 67.6998 37.4835 68.4624C37.4835 69.2249 36.8653 69.8431 36.1028 69.8431H11.2501C10.4875 69.8431 9.86938 69.2249 9.86938 68.4624Z" fill="#FFA800"/>
<path d="M9.86938 73.9853C9.86938 73.2228 10.4875 72.6046 11.2501 72.6046H36.1028C36.8653 72.6046 37.4835 73.2228 37.4835 73.9853C37.4835 74.7479 36.8653 75.366 36.1028 75.366H11.2501C10.4876 75.366 9.86938 74.7479 9.86938 73.9853Z" fill="#FFA800"/>
<path d="M9.86938 79.508C9.86938 78.7455 10.4875 78.1273 11.2501 78.1273H36.1028C36.8653 78.1273 37.4835 78.7455 37.4835 79.508C37.4835 80.2706 36.8653 80.8887 36.1028 80.8887H11.2501C10.4876 80.8887 9.86938 80.2706 9.86938 79.508Z" fill="#FFA800"/>
<path d="M11.2507 13.2344C11.2507 12.4719 11.8689 11.8537 12.6314 11.8537C13.394 11.8537 14.0121 12.4719 14.0121 13.2344C14.0121 13.9969 13.394 14.6151 12.6314 14.6151C11.8689 14.6151 11.2507 13.9969 11.2507 13.2344Z" fill="#FFA800"/>
<path d="M16.7732 13.2344C16.7732 12.4719 17.3914 11.8537 18.1539 11.8537C18.9164 11.8537 19.5346 12.4719 19.5346 13.2344C19.5346 13.9969 18.9164 14.6151 18.1539 14.6151C17.3914 14.6151 16.7732 13.9969 16.7732 13.2344Z" fill="#FFA800"/>
<path d="M22.2961 13.2344C22.2961 12.4719 22.9143 11.8537 23.6768 11.8537C24.4394 11.8537 25.0576 12.4719 25.0576 13.2344C25.0576 13.9969 24.4394 14.6151 23.6768 14.6151C22.9143 14.6151 22.2961 13.9969 22.2961 13.2344Z" fill="#FFA800"/>
<path d="M27.8188 13.2344C27.8188 12.4719 28.437 11.8537 29.1996 11.8537H44.3873C45.1499 11.8537 45.768 12.4719 45.768 13.2344C45.768 13.9969 45.1499 14.6151 44.3873 14.6151H29.1996C28.437 14.6151 27.8188 13.9969 27.8188 13.2344Z" fill="#FFA800"/>
</g>
<defs>
<clipPath id="clip0">
<rect width="85.6037" height="85.6037" fill="white" transform="translate(0.204834 0.807861)"/>
</clipPath>
</defs>
</svg>
