<svg width="87" height="87" viewBox="0 0 87 87" fill="none" xmlns="http://www.w3.org/2000/svg">
<g clip-path="url(#clip0)">
<path d="M72.9413 62.0012C71.0937 62.0012 69.5974 63.4974 69.5974 65.3451C69.5974 67.1927 71.0937 68.6889 72.9413 68.6889C74.7889 68.6889 76.2852 67.1927 76.2852 65.3451C76.2852 63.4974 74.7889 62.0012 72.9413 62.0012Z" fill="#FFA800"/>
<path d="M71.2694 48.6255C70.3465 48.6255 69.5974 49.3747 69.5974 50.2975C69.5974 51.2203 70.3465 51.9694 71.2694 51.9694C72.1922 51.9694 72.9413 51.2203 72.9413 50.2975C72.9413 49.3747 72.1922 48.6255 71.2694 48.6255Z" fill="#FFA800"/>
<path d="M21.7794 62.0012C19.9318 62.0012 18.4355 63.4974 18.4355 65.3451C18.4355 67.1927 19.9318 68.6889 21.7794 68.6889C23.6271 68.6889 25.1233 67.1927 25.1233 65.3451C25.1233 63.4974 23.6271 62.0012 21.7794 62.0012Z" fill="#FFA800"/>
<path d="M79.2894 42.0449L76.4066 30.5137C77.4314 29.5333 77.9571 28.233 77.9571 26.8902C77.9571 24.1243 75.7072 21.8744 72.9413 21.8744H59.5657V16.8586C59.5657 14.0927 57.3157 11.8427 54.5498 11.8427H5.72898C2.96308 11.8427 0.713135 14.0927 0.713135 16.8586V60.3292C0.713135 63.0951 2.96308 65.345 5.72898 65.345H11.748C11.748 70.8768 16.2479 75.3767 21.7797 75.3767C27.3115 75.3767 31.8114 70.8768 31.8114 65.345H62.9096C62.9096 70.8768 67.4095 75.3767 72.9413 75.3767C78.4731 75.3767 82.9729 70.8768 82.9729 65.345C82.9729 65.2497 82.9684 65.155 82.9658 65.0596C84.9153 64.3719 86.3168 62.5112 86.3168 60.3292V50.2975C86.3168 46.1411 83.2681 42.6849 79.2894 42.0449ZM73.3076 31.9061L75.8156 41.9378H61.9299L65.7636 38.104C66.4167 37.4509 66.4167 36.3929 65.7636 35.7398C65.1105 35.0867 64.0525 35.0867 63.3994 35.7398L59.5657 39.5729V31.9061H73.3076ZM74.6132 26.8902C74.6132 27.8131 73.8641 28.5622 72.9413 28.5622H59.5657V25.2183H72.9413C73.8634 25.2183 74.6132 25.9681 74.6132 26.8902ZM21.7797 72.0328C18.0922 72.0328 15.0919 69.0324 15.0919 65.345C15.0919 61.6073 18.1465 58.6572 21.7797 58.6572C25.4214 58.6572 28.4675 61.6151 28.4675 65.345C28.4675 69.0324 25.4671 72.0328 21.7797 72.0328ZM31.2373 62.0011C29.8409 58.0557 26.0614 55.3133 21.7797 55.3133C17.496 55.3133 13.7151 58.0577 12.3214 62.0011H5.72898C4.80679 62.0011 4.05703 61.2514 4.05703 60.3292V16.8586C4.05703 15.9364 4.80679 15.1866 5.72898 15.1866H54.5498C55.472 15.1866 56.2218 15.9364 56.2218 16.8586V62.0011H31.2373ZM72.9413 72.0328C69.2538 72.0328 66.2535 69.0324 66.2535 65.345C66.2535 61.6073 69.308 58.6572 72.9413 58.6572C76.583 58.6572 79.629 61.6151 79.629 65.345C79.629 69.0324 76.6287 72.0328 72.9413 72.0328ZM82.28 61.6818C80.7968 57.9081 77.1068 55.3133 72.9413 55.3133C68.6575 55.3133 64.8767 58.0577 63.483 62.0011H59.5657V45.2817H77.9571C80.1365 45.2817 81.9952 46.6793 82.6856 48.6255H77.9571C77.0336 48.6255 76.2851 49.374 76.2851 50.2975C76.2851 51.221 77.0336 51.9694 77.9571 51.9694H82.9729V60.3292C82.9729 60.885 82.6986 61.3774 82.28 61.6818Z" fill="#FFA800"/>
<path d="M30.1393 21.8744C21.8423 21.8744 15.0918 28.6249 15.0918 36.9219C15.0918 45.219 21.8423 51.9694 30.1393 51.9694C38.4364 51.9694 45.1868 45.219 45.1868 36.9219C45.1868 28.6249 38.4364 21.8744 30.1393 21.8744ZM30.1393 48.6255C23.686 48.6255 18.4357 43.3752 18.4357 36.9219C18.4357 30.4686 23.686 25.2183 30.1393 25.2183C36.5926 25.2183 41.843 30.4686 41.843 36.9219C41.843 43.3752 36.5926 48.6255 30.1393 48.6255Z" fill="#FFA800"/>
<path d="M36.8273 35.2499H31.8114V30.2341C31.8114 29.3106 31.063 28.5621 30.1395 28.5621C29.216 28.5621 28.4675 29.3106 28.4675 30.2341V36.9219C28.4675 37.8454 29.216 38.5938 30.1395 38.5938H36.8273C37.7508 38.5938 38.4992 37.8454 38.4992 36.9219C38.4992 35.9984 37.7508 35.2499 36.8273 35.2499Z" fill="#FFA800"/>
</g>
<defs>
<clipPath id="clip0">
<rect width="85.6037" height="85.6037" fill="white" transform="translate(0.712891 0.807861)"/>
</clipPath>
</defs>
</svg>
