<svg width="87" height="87" viewBox="0 0 87 87" fill="none" xmlns="http://www.w3.org/2000/svg">
<path d="M32.9187 20.8712C33.6574 20.8712 34.2563 20.2724 34.2563 19.5337C34.2563 18.795 33.6574 18.1961 32.9187 18.1961C32.18 18.1961 31.5812 18.795 31.5812 19.5337C31.5812 20.2724 32.18 20.8712 32.9187 20.8712Z" fill="#FFA800"/>
<path d="M54.3195 20.8712C55.0582 20.8712 55.657 20.2724 55.657 19.5337C55.657 18.795 55.0582 18.1961 54.3195 18.1961C53.5808 18.1961 52.9819 18.795 52.9819 19.5337C52.9819 20.2724 53.5808 20.8712 54.3195 20.8712Z" fill="#FFA800"/>
<path d="M10.1802 46.2849C10.1802 47.2172 10.227 48.1615 10.3193 49.0924L12.981 48.8289C12.8981 47.985 12.8553 47.1302 12.8553 46.2849H10.1802Z" fill="#FFA800"/>
<path d="M22.4577 22.4802C15.5653 27.6953 11.1419 35.3475 10.322 43.4758L12.9838 43.7433C13.7288 36.3533 17.7709 29.3806 24.0721 24.6122L22.4577 22.4802Z" fill="#FFA800"/>
<path d="M76.4898 40.6672C76.2985 39.7295 76.0551 38.7852 75.7662 37.861L73.2128 38.6581C73.4749 39.4968 73.6943 40.3528 73.8682 41.2022L76.4898 40.6672Z" fill="#FFA800"/>
<path d="M76.9177 43.476L74.2559 43.7435C74.3402 44.5875 74.383 45.4436 74.383 46.2849C74.383 51.7301 72.6696 57.0134 69.4274 61.5585L71.6049 63.1127C75.1722 58.1102 77.0581 52.2905 77.0581 46.2849C77.0581 45.3539 77.01 44.4096 76.9177 43.476Z" fill="#FFA800"/>
<path d="M51.6446 63.6731C49.3949 63.6731 47.632 66.0232 47.632 69.0233C47.632 72.0235 49.3949 74.3736 51.6446 74.3736C53.8944 74.3736 55.6573 72.0235 55.6573 69.0233C55.6573 66.0232 53.8944 63.6731 51.6446 63.6731ZM51.6446 71.6984C51.0989 71.6984 50.3071 70.6565 50.3071 69.0233C50.3071 67.3902 51.0989 66.3482 51.6446 66.3482C52.1904 66.3482 52.9822 67.3902 52.9822 69.0233C52.9822 70.6565 52.1904 71.6984 51.6446 71.6984Z" fill="#FFA800"/>
<path d="M35.5939 63.6731C33.3441 63.6731 31.5812 66.0232 31.5812 69.0233C31.5812 72.0235 33.3441 74.3736 35.5939 74.3736C37.8436 74.3736 39.6065 72.0235 39.6065 69.0233C39.6065 66.0232 37.8436 63.6731 35.5939 63.6731ZM35.5939 71.6984C35.0481 71.6984 34.2563 70.6565 34.2563 69.0233C34.2563 67.3902 35.0481 66.3482 35.5939 66.3482C36.1396 66.3482 36.9314 67.3902 36.9314 69.0233C36.9314 70.6565 36.1396 71.6984 35.5939 71.6984Z" fill="#FFA800"/>
<path d="M59.6699 42.2722C56.7193 42.2722 54.3197 44.6717 54.3197 47.6224C54.3197 50.573 56.7193 52.9726 59.6699 52.9726C62.6206 52.9726 65.0202 50.573 65.0202 47.6224C65.0202 44.6717 62.6206 42.2722 59.6699 42.2722ZM59.6699 50.2975C58.1946 50.2975 56.9948 49.0977 56.9948 47.6224C56.9948 46.1471 58.1946 44.9473 59.6699 44.9473C61.1453 44.9473 62.345 46.1471 62.345 47.6224C62.345 49.0977 61.1453 50.2975 59.6699 50.2975Z" fill="#FFA800"/>
<path d="M27.5687 42.2722C24.6181 42.2722 22.2185 44.6717 22.2185 47.6224C22.2185 50.573 24.6181 52.9726 27.5687 52.9726C30.5194 52.9726 32.919 50.573 32.919 47.6224C32.919 44.6717 30.5194 42.2722 27.5687 42.2722ZM27.5687 50.2975C26.0934 50.2975 24.8936 49.0977 24.8936 47.6224C24.8936 46.1471 26.0934 44.9473 27.5687 44.9473C29.0441 44.9473 30.2439 46.1471 30.2439 47.6224C30.2439 49.0977 29.0441 50.2975 27.5687 50.2975Z" fill="#FFA800"/>
<path d="M76.2514 26.7939L85.5474 15.4313L84.6914 14.5753C84.5121 14.3947 80.1891 10.1707 71.7077 10.1707C65.9642 10.1707 62.0452 11.2769 59.4811 12.4432C56.7605 6.38411 50.6813 2.14539 43.619 2.14539C36.5567 2.14539 30.4775 6.38277 27.7569 12.4432C25.1928 11.2769 21.2737 10.1707 15.5303 10.1707C7.04881 10.1707 2.72582 14.3947 2.54659 14.5753L1.69055 15.4313L10.9866 26.7939C7.05148 32.5013 4.8298 39.2318 4.8298 46.2848C4.8298 55.2424 8.34356 63.756 14.7531 70.3956C13.5212 71.9525 12.8551 73.7983 12.8551 75.7111C12.8551 80.8727 17.6556 85.074 23.5556 85.074C26.6668 85.074 29.5933 83.8875 31.6131 81.8518C34.965 83.8661 39.1141 85.074 43.619 85.074C48.1239 85.074 52.273 83.8661 55.6249 81.8518C57.6446 83.8875 60.5712 85.074 63.6823 85.074C69.5823 85.074 74.3828 80.8727 74.3828 75.7111C74.3828 73.7983 73.7167 71.9525 72.4861 70.3956C78.8944 63.756 82.4081 55.2411 82.4081 46.2848C82.4081 39.2318 80.1865 32.5013 76.2514 26.7939ZM81.8504 15.7243L74.6035 24.5816C71.2355 20.4137 66.8898 16.9107 61.7937 14.3907C63.9726 13.5935 67.1934 12.8458 71.7077 12.8458C76.9135 12.8458 80.3135 14.6649 81.8504 15.7243ZM58.3321 30.2341V32.9092C58.3321 33.6462 57.7315 34.2468 56.9945 34.2468H52.8441C54.8692 32.9721 56.62 31.3041 57.971 29.3339C58.1903 29.572 58.3321 29.885 58.3321 30.2341ZM43.619 4.8205C51.7313 4.8205 58.3321 11.4213 58.3321 19.5336C58.3321 27.6459 51.7313 34.2468 43.619 34.2468C35.5067 34.2468 28.9058 27.6459 28.9058 19.5336C28.9058 11.4213 35.5067 4.8205 43.619 4.8205ZM28.9058 30.2341C28.9058 29.885 29.0476 29.572 29.2683 29.3339C30.6179 31.3055 32.3701 32.9721 34.3952 34.2468H30.2434C29.5064 34.2468 28.9058 33.6462 28.9058 32.9092V30.2341ZM5.38756 15.7256C6.92843 14.6636 10.3258 12.8458 15.5303 12.8458C20.0445 12.8458 23.2654 13.5935 25.4442 14.3921C20.3481 16.912 16.0024 20.4151 12.6344 24.5829L5.38756 15.7256ZM26.2307 69.0233C26.2307 61.648 34.0314 55.6477 43.619 55.6477C53.2066 55.6477 61.0072 61.648 61.0072 69.0233C61.0072 76.3986 53.2066 82.3988 43.619 82.3988C34.0314 82.3988 26.2307 76.3986 26.2307 69.0233ZM69.708 69.3911L68.7075 70.3608L69.7161 71.3212C71.0001 72.5464 71.7077 74.1047 71.7077 75.7111C71.7077 79.3987 68.1083 82.3988 63.6823 82.3988C61.462 82.3988 59.3888 81.6217 57.8854 80.2922C61.466 77.391 63.6823 73.4118 63.6823 69.0233C63.6823 60.1726 54.6819 52.9726 43.619 52.9726C32.556 52.9726 23.5556 60.1726 23.5556 69.0233C23.5556 73.4118 25.7719 77.391 29.3526 80.2922C27.8492 81.6217 25.776 82.3988 23.5556 82.3988C19.1296 82.3988 15.5303 79.3987 15.5303 75.7111C15.5303 74.1047 16.2378 72.5464 17.5232 71.3212L18.5317 70.3608L17.5299 69.3911C11.0655 63.1353 7.50491 54.9294 7.50491 46.2848C7.50491 33.9659 14.8615 22.6796 26.4568 16.8719C26.3217 17.7426 26.2307 18.6268 26.2307 19.5336C26.2307 22.1967 26.85 24.7127 27.9254 26.9705C26.9035 27.6981 26.2307 28.8872 26.2307 30.2341V32.9092C26.2307 35.1215 28.0311 36.9219 30.2434 36.9219H56.9945C59.2069 36.9219 61.0072 35.1215 61.0072 32.9092V30.2341C61.0072 28.8872 60.3344 27.6981 59.3125 26.9705C60.3879 24.7127 61.0072 22.1967 61.0072 19.5336C61.0072 18.6268 60.9163 17.7426 60.7812 16.8719C72.3765 22.6796 79.733 33.9659 79.733 46.2848C79.733 54.9294 76.1724 63.1353 69.708 69.3911Z" fill="#FFA800"/>
<path d="M45.4481 9.60419H39.904C39.3323 9.60419 38.8688 10.0729 38.8688 10.651V18.5742H37.6864C37.1147 18.5742 36.6512 19.0429 36.6512 19.621C36.6512 20.1991 37.1147 20.6678 37.6864 20.6678H38.8688V23.0592H37.6864C37.1147 23.0592 36.6512 23.5279 36.6512 24.1061C36.6512 24.6842 37.1147 25.1529 37.6864 25.1529H38.8688V27.4698C38.8688 28.0479 39.3323 28.5166 39.904 28.5166C40.4757 28.5166 40.9392 28.0479 40.9392 27.4698V25.1529H45.4481C46.0198 25.1529 46.4833 24.6842 46.4833 24.1061C46.4833 23.5279 46.0198 23.0592 45.4481 23.0592H40.9392V20.6678H45.4481C48.4645 20.6678 50.9185 18.1863 50.9185 15.136C50.9185 12.0103 48.4007 9.60419 45.4481 9.60419ZM45.4481 18.5742H40.9392V11.6978H45.4481C47.3116 11.6978 48.8481 13.2178 48.8481 15.136C48.8481 17.0319 47.3229 18.5742 45.4481 18.5742Z" fill="#FFA800"/>
<path d="M61.2042 19.2265C61.2042 28.9386 53.331 36.8117 43.6189 36.8117C33.9069 36.8117 26.0337 28.9386 26.0337 19.2265C26.0337 9.51442 33.9069 1.64124 43.6189 1.64124C53.331 1.64124 61.2042 9.51442 61.2042 19.2265ZM29.1361 19.2265C29.1361 27.2252 35.6203 33.7094 43.6189 33.7094C51.6176 33.7094 58.1018 27.2252 58.1018 19.2265C58.1018 11.2278 51.6176 4.74361 43.6189 4.74361C35.6203 4.74361 29.1361 11.2278 29.1361 19.2265Z" fill="#FFA800"/>
<rect x="30.6791" y="34.2455" width="24.8848" height="2.67714" fill="#FFA800"/>
</svg>
