<svg width="87" height="87" viewBox="0 0 87 87" fill="none" xmlns="http://www.w3.org/2000/svg">
<g clip-path="url(#clip0)">
<path d="M64.6523 6.41478C63.852 5.95266 62.8274 6.22719 62.3653 7.02755C61.9032 7.82958 62.1777 8.85247 62.978 9.31459C63.7784 9.77839 64.803 9.50385 65.2651 8.70183C65.7272 7.90164 65.4527 6.87858 64.6523 6.41478Z" fill="#FFA800"/>
<path d="M43.724 0.807861C42.7997 0.807861 42.0497 1.55789 42.0497 2.48214C42.0497 3.40639 42.7997 4.15642 43.724 4.15642C44.6482 4.15642 45.3982 3.40639 45.3982 2.48214C45.3982 1.55789 44.6482 0.807861 43.724 0.807861Z" fill="#FFA800"/>
<path d="M43.724 45.3433C42.7997 45.3433 42.0497 46.0933 42.0497 47.0175C42.0497 47.9418 42.7997 48.6918 43.724 48.6918C44.6482 48.6918 45.3982 47.9418 45.3982 47.0175C45.3982 46.0935 44.6482 45.3433 43.724 45.3433Z" fill="#FFA800"/>
<path d="M25.083 7.02785C24.6208 6.2275 23.5963 5.95297 22.7959 6.41509C21.9956 6.87888 21.721 7.90178 22.1832 8.70213C22.6453 9.50416 23.6698 9.77869 24.4702 9.3149C25.2704 8.85277 25.5451 7.82972 25.083 7.02785Z" fill="#FFA800"/>
<path d="M43.724 7.50507C42.7994 7.50507 42.0497 8.2546 42.0497 9.17934V15.8765C42.0497 16.8012 42.7994 17.5507 43.724 17.5507C44.6486 17.5507 45.3982 16.8012 45.3982 15.8765V9.17918C45.3982 8.2546 44.6486 7.50507 43.724 7.50507Z" fill="#FFA800"/>
<path d="M31.7796 18.6286L28.4312 12.8273C27.9687 12.0264 26.945 11.7514 26.1441 12.2142C25.3433 12.6765 25.0687 13.7002 25.531 14.5012L28.8796 20.3027C29.1899 20.8399 29.7525 21.1401 30.3313 21.1401C30.6151 21.1401 30.9031 21.0678 31.1666 20.9156C31.9673 20.4533 32.2419 19.4294 31.7796 18.6286Z" fill="#FFA800"/>
<path d="M61.3035 12.2145C60.5021 11.752 59.4787 12.0266 59.0164 12.8276L55.6679 18.6289C55.2056 19.4296 55.4801 20.4535 56.281 20.9158C56.5446 21.0679 56.8324 21.1403 57.1163 21.1403C57.6951 21.1403 58.2577 20.8399 58.568 20.3028L61.9166 14.5015C62.3789 13.7007 62.1043 12.6766 61.3035 12.2145Z" fill="#FFA800"/>
<path d="M78.8828 47.0059C78.8826 46.9854 78.8815 46.965 78.8805 46.9442C78.8795 46.9228 78.8781 46.9014 78.8764 46.8799C78.8753 46.8661 78.8751 46.8523 78.8736 46.8387C78.8716 46.82 78.8682 46.8013 78.8657 46.7827C78.8627 46.7618 78.8592 46.7409 78.8555 46.7199C78.8527 46.7041 78.8509 46.6882 78.8475 46.6727C78.8442 46.6572 78.8397 46.6418 78.836 46.6262C78.8308 46.6048 78.8251 46.5834 78.8191 46.562C78.8142 46.5448 78.8101 46.5272 78.8047 46.5102C78.8009 46.4982 78.7959 46.4863 78.7917 46.4742C78.7838 46.4515 78.7755 46.4289 78.7668 46.4064C78.7597 46.3885 78.7532 46.3704 78.7457 46.3529C78.7417 46.3437 78.7368 46.3346 78.7327 46.3254C78.722 46.3019 78.7106 46.2788 78.6989 46.2556C78.6899 46.2378 78.6812 46.2201 78.6715 46.2029C78.6698 46.1999 78.6686 46.1969 78.6669 46.1939L68.6345 28.4466C68.6295 28.4377 68.6231 28.4302 68.6179 28.4215C68.59 28.3738 68.5596 28.3275 68.5268 28.2829C68.5183 28.2712 68.5101 28.2593 68.5014 28.2478C68.4598 28.1938 68.4151 28.1414 68.3668 28.0926C68.3661 28.092 68.3653 28.0913 68.3645 28.0905C68.3187 28.0443 68.269 28.0013 68.2175 27.9604C68.2046 27.9502 68.1916 27.9406 68.1786 27.9309C68.1371 27.9 68.0936 27.8709 68.0486 27.8433C68.0341 27.8345 68.0199 27.8251 68.005 27.8168C67.948 27.7843 67.8891 27.7541 67.8273 27.728C67.8266 27.7276 67.8259 27.7273 67.8251 27.727C67.8249 27.7268 67.8246 27.7268 67.8244 27.7266C67.7622 27.7006 67.699 27.6798 67.6357 27.6616C67.618 27.6566 67.6001 27.6527 67.5822 27.6482C67.5323 27.6357 67.4824 27.6257 67.4322 27.6178C67.4143 27.6151 67.3968 27.6121 67.3787 27.6099C67.3117 27.6017 67.2446 27.5966 67.1779 27.5966C67.1777 27.5966 67.1776 27.5966 67.1772 27.5966H67.1769C67.1741 27.5966 67.1714 27.5966 67.1685 27.5966H43.7238H43.7194H20.2869C20.2175 27.5964 20.1481 27.6017 20.0784 27.6103C20.0622 27.6123 20.0463 27.6151 20.0303 27.6176C19.9796 27.6255 19.9289 27.6357 19.8785 27.6484C19.8597 27.6531 19.8412 27.6574 19.8228 27.6628C19.7681 27.6785 19.7138 27.6972 19.6599 27.7188C19.6509 27.7225 19.6417 27.725 19.6327 27.7288C19.6312 27.7295 19.6295 27.7298 19.628 27.7305C19.5675 27.7562 19.51 27.786 19.4543 27.8179C19.4402 27.826 19.427 27.835 19.4133 27.8433C19.3682 27.8708 19.3247 27.9 19.2831 27.9313C19.2694 27.9415 19.2558 27.9518 19.2423 27.9625C19.1958 27.9995 19.1513 28.0386 19.1095 28.0799C19.104 28.0853 19.0982 28.0901 19.0928 28.0956C19.0448 28.1443 19.0002 28.196 18.9589 28.2498C18.951 28.26 18.944 28.2709 18.9363 28.2812C18.9034 28.3262 18.8726 28.3728 18.8445 28.4208C18.8395 28.4295 18.8332 28.437 18.8281 28.4457L8.80237 46.1562C8.80204 46.1567 8.80187 46.1571 8.80153 46.1576L8.78164 46.1925C8.77997 46.1955 8.7788 46.1987 8.77696 46.2017C8.76659 46.2203 8.75723 46.2393 8.74753 46.2584C8.73549 46.282 8.72379 46.3055 8.71292 46.3298C8.70958 46.3371 8.7059 46.3445 8.70256 46.3519C8.69436 46.3708 8.68734 46.3901 8.67982 46.4095C8.67079 46.4326 8.66209 46.4557 8.65407 46.4793C8.65056 46.4893 8.64655 46.4993 8.64337 46.5094C8.63752 46.5277 8.63317 46.5466 8.62782 46.5654C8.62163 46.5874 8.61545 46.6095 8.61026 46.6321C8.60709 46.6455 8.60324 46.6587 8.6004 46.672C8.59689 46.6889 8.59472 46.7063 8.59171 46.7234C8.58786 46.7451 8.58402 46.7668 8.58101 46.7891C8.57883 46.8055 8.57599 46.8218 8.57432 46.8382C8.57265 46.8533 8.57248 46.8685 8.57114 46.8835C8.5693 46.9058 8.56763 46.9278 8.56679 46.9502C8.56613 46.9686 8.56512 46.987 8.56496 47.0054C8.56496 47.0093 8.56445 47.0131 8.56445 47.017C8.56445 47.0273 8.56579 47.0375 8.56596 47.0479C8.56629 47.07 8.56713 47.092 8.5683 47.1143C8.5693 47.1325 8.57031 47.1507 8.57198 47.1689C8.57331 47.1845 8.57515 47.1997 8.57699 47.2151C8.5795 47.2361 8.58251 47.257 8.58585 47.2781C8.58853 47.2947 8.59104 47.3112 8.59421 47.3276C8.59739 47.3447 8.60073 47.3615 8.60458 47.3784C8.60909 47.3987 8.61428 47.4186 8.61946 47.4386C8.62331 47.4535 8.62732 47.4684 8.6315 47.4833C8.63668 47.5012 8.64186 47.5189 8.64755 47.5366C8.65373 47.5557 8.66076 47.5744 8.66761 47.5931C8.67296 47.6076 8.67848 47.6222 8.68416 47.6367C8.69119 47.6541 8.69804 47.6715 8.70556 47.6887C8.71309 47.7061 8.72145 47.7232 8.72964 47.7402C8.73716 47.7558 8.74486 47.7712 8.75271 47.7865C8.76124 47.8028 8.7696 47.819 8.77863 47.835C8.78716 47.8502 8.79602 47.8651 8.80505 47.8802C8.81508 47.8969 8.82561 47.9134 8.83631 47.9298C8.84618 47.945 8.85637 47.9599 8.86674 47.9748C8.87594 47.9878 8.88496 48.0009 8.89466 48.0139C8.90703 48.0306 8.91974 48.0469 8.93278 48.0633C8.94465 48.078 8.95702 48.0922 8.96923 48.1066C8.97625 48.1147 8.9821 48.1234 8.98946 48.1316L42.6842 85.8526C42.7255 85.8989 42.7696 85.9425 42.8154 85.9835C42.8221 85.9893 42.8293 85.9943 42.836 86.0002C42.8843 86.0422 42.935 86.0808 42.9873 86.1167C43.0044 86.1284 43.0217 86.1395 43.0391 86.1505C43.088 86.1813 43.1381 86.2093 43.1896 86.2351C43.2038 86.2421 43.2174 86.25 43.2317 86.2567C43.2968 86.2866 43.3635 86.3122 43.432 86.3337C43.4484 86.3389 43.4651 86.3426 43.4817 86.3471C43.5367 86.3625 43.5925 86.375 43.6491 86.3849C43.6698 86.3884 43.6904 86.3921 43.7113 86.3949C43.7843 86.4046 43.8577 86.4113 43.9324 86.4113C43.9343 86.4113 43.936 86.4113 43.9376 86.4113C44.0125 86.4112 44.0863 86.4041 44.1595 86.3941C44.1804 86.3913 44.2008 86.3876 44.2217 86.3839C44.2784 86.3739 44.3345 86.3612 44.3897 86.3454C44.4063 86.3408 44.423 86.3371 44.4394 86.3317C44.5079 86.31 44.5748 86.2839 44.64 86.2535C44.6542 86.2468 44.6678 86.2389 44.6818 86.2319C44.7335 86.206 44.7838 86.1774 44.8326 86.1461C44.8502 86.1349 44.8674 86.1237 44.8846 86.1119C44.9365 86.0759 44.9866 86.0373 45.0344 85.9955C45.0416 85.9892 45.0495 85.9836 45.0567 85.9773C45.1025 85.9356 45.1466 85.8917 45.1881 85.8447L78.4646 48.1253C78.4707 48.1184 78.4755 48.1111 78.4814 48.1042C78.4924 48.0913 78.5034 48.0783 78.5141 48.0651C78.5285 48.0472 78.5422 48.0291 78.5558 48.0108C78.5651 47.998 78.5743 47.9853 78.5834 47.9725C78.5927 47.9591 78.6017 47.9454 78.6108 47.9317C78.6225 47.9138 78.6335 47.8957 78.6445 47.8775C78.6536 47.8625 78.6626 47.8477 78.6711 47.8325C78.6792 47.818 78.6867 47.8033 78.6944 47.7884C78.7029 47.7718 78.7111 47.7549 78.7191 47.7381C78.7275 47.7207 78.736 47.7034 78.7437 47.6859C78.7505 47.6702 78.7566 47.6543 78.7629 47.6384C78.7691 47.6229 78.775 47.6071 78.7806 47.5913C78.7877 47.572 78.795 47.5528 78.8014 47.5334C78.8066 47.5174 78.8109 47.5011 78.8158 47.4849C78.8204 47.4689 78.8244 47.4527 78.8286 47.4364C78.8338 47.416 78.8395 47.3958 78.8438 47.3751C78.8472 47.3599 78.85 47.3445 78.8529 47.3289C78.8562 47.3111 78.8589 47.293 78.8617 47.2749C78.8649 47.2539 78.8682 47.233 78.8708 47.2117C78.8724 47.198 78.8739 47.1841 78.8751 47.1703C78.8769 47.1502 78.8778 47.1301 78.879 47.1097C78.8801 47.0882 78.8811 47.0666 78.8815 47.0452C78.8816 47.0362 78.8828 47.0273 78.8828 47.0183C78.8833 47.0134 78.8828 47.0098 78.8828 47.0059ZM64.66 30.9444L59.2315 43.8983L47.4992 30.9444H64.66ZM39.975 30.9444L28.3488 43.9163L22.8182 30.9444H39.975ZM20.0726 33.0427L25.3169 45.343H13.1103L20.0726 33.0427ZM13.9794 48.6916H26.7443L38.4012 76.0306L13.9794 48.6916ZM43.9197 80.4366L30.3844 48.6916H37.0268C37.9514 48.6916 38.7011 47.942 38.7011 47.0173C38.7011 46.0925 37.9514 45.343 37.0268 45.343H31.567L43.7305 31.7712L56.0224 45.343H50.4211C49.4965 45.343 48.7468 46.0925 48.7468 47.0173C48.7468 47.942 49.4965 48.6916 50.4211 48.6916H57.223L43.9197 80.4366ZM49.4112 75.9965L60.8536 48.6916H73.4995L49.4112 75.9965ZM62.2565 45.343L67.4006 33.068L74.3395 45.343H62.2565Z" fill="#FFA800"/>
</g>
<defs>
<clipPath id="clip0">
<rect width="85.6037" height="85.6037" fill="white" transform="translate(0.921997 0.807861)"/>
</clipPath>
</defs>
</svg>
