<svg width="87" height="87" viewBox="0 0 87 87" fill="none" xmlns="http://www.w3.org/2000/svg">
<g clip-path="url(#clip0)">
<path d="M41.9341 36.6423H47.6221V39.4863H41.9341V36.6423Z" fill="#FFA800"/>
<path d="M58.9982 36.6423H64.6861V39.4863H58.9982V36.6423Z" fill="#FFA800"/>
<path d="M58.9982 48.0181H64.6861V50.862H58.9982V48.0181Z" fill="#FFA800"/>
<path d="M41.9341 48.0181H47.6221V50.862H41.9341V48.0181Z" fill="#FFA800"/>
<path d="M41.9341 59.394H47.6221V62.238H41.9341V59.394Z" fill="#FFA800"/>
<path d="M58.9982 59.394H64.6861V62.238H58.9982V59.394Z" fill="#FFA800"/>
<path d="M57.5762 77.88H60.4202V80.724H57.5762V77.88Z" fill="#FFA800"/>
<path fill-rule="evenodd" clip-rule="evenodd" d="M43.3553 0.807861L81.749 22.991V83.5678H86.015V86.4118H0.695679V83.5678H16.3376C15.7689 82.7145 15.3419 81.7188 15.0579 80.7239H12.0716C9.65393 80.7239 7.80562 78.8749 7.80562 76.4579V67.215C7.80562 66.504 7.94796 65.793 8.37428 65.2236L18.6129 46.0268C19.3239 44.6048 20.7459 43.7522 22.3095 43.7522H29.1354V40.9082H31.9794V65.082H34.8234H37.6674H51.8873H54.7312H68.9511H71.7951C74.2121 65.082 76.0611 66.9303 76.0611 69.348V76.4579C76.0611 78.8749 74.2121 80.7239 71.7951 80.7239H65.9648C65.8225 81.7188 65.3961 82.7145 64.6852 83.5678H78.905V24.697L43.3553 4.22049L7.80562 24.697V57.9721H4.96164V22.991L43.3553 0.807861ZM52.0296 80.7239H28.9931C28.7084 81.7188 28.2821 82.7145 27.7135 83.5678H53.3092C52.7406 82.7145 52.3136 81.7188 52.0296 80.7239ZM58.9972 75.0359C56.5795 75.0359 54.7312 76.8842 54.7312 79.3019C54.7312 81.7188 56.5795 83.5678 58.9972 83.5678C61.4142 83.5678 63.2632 81.7188 63.2632 79.3019C63.2632 76.8842 61.4142 75.0359 58.9972 75.0359ZM22.3095 46.5962C21.7408 46.5962 21.3145 46.8801 21.0298 47.3071L11.6446 65.082H29.1354V46.5962H22.3095ZM10.6496 67.926V76.4579C10.6496 77.3105 11.2183 77.8799 12.0716 77.8799H15.0579C15.6266 75.0359 17.7595 72.9029 20.6035 72.3336C24.4425 71.4809 28.1398 74.0402 28.9931 77.8799H52.0296C52.5983 75.0359 54.7312 72.9029 57.5752 72.3336C61.4142 71.4809 65.1115 74.0402 65.9648 77.8799H71.7951C72.6484 77.8799 73.2171 77.3105 73.2171 76.4579V69.348C73.2171 68.4946 72.6484 67.926 71.7951 67.926H10.6496ZM22.0255 75.0359C19.6078 75.0359 17.7595 76.8842 17.7595 79.3019C17.7595 81.7188 19.6078 83.5678 22.0255 83.5678C24.4425 83.5678 26.2915 81.7188 26.2915 79.3019C26.2915 76.8842 24.4425 75.0359 22.0255 75.0359Z" fill="#FFA800"/>
<path fill-rule="evenodd" clip-rule="evenodd" d="M71.7951 65.082V35.2203C71.7951 32.9449 69.9461 30.9543 67.6715 30.9543H38.947C36.6717 30.9543 34.8234 32.9449 34.8234 35.2203V65.082H37.6674V56.5501H51.8873V65.082H54.7312V56.5501H68.9511V65.082H71.7951ZM68.9511 45.1742H54.7312V53.7061H68.9511V45.1742ZM37.6674 53.7061H51.8873V45.1742H37.6674V53.7061ZM68.9511 42.3302V35.2203C68.9511 34.5093 68.3825 33.7983 67.6715 33.7983H54.7312V42.3302H68.9511ZM51.8873 33.7983H38.947C38.236 33.7983 37.6674 34.5093 37.6674 35.2203V42.3302H51.8873V33.7983Z" fill="#FFA800"/>
<path fill-rule="evenodd" clip-rule="evenodd" d="M43.3554 0.807861L81.7491 22.991V83.5678H86.0151V86.4118H0.695801V83.5678H16.3377C15.769 82.7145 15.342 81.7188 15.058 80.7239H12.0717C9.65405 80.7239 7.80574 78.8749 7.80574 76.4579V67.215C7.80574 66.504 7.94808 65.793 8.3744 65.2236L18.613 46.0268C19.324 44.6048 20.746 43.7522 22.3096 43.7522H29.1356V40.9082H31.9795V65.082H34.8235H37.6675H51.8874H54.7314H68.9512H71.7952C74.2122 65.082 76.0612 66.9303 76.0612 69.348V76.4579C76.0612 78.8749 74.2122 80.7239 71.7952 80.7239H65.9649C65.8226 81.7188 65.3963 82.7145 64.6853 83.5678H78.9052V24.697L43.3554 4.22049L7.80574 24.697V57.9721H4.96177V22.991L43.3554 0.807861ZM52.0297 80.7239H28.9932C28.7086 81.7188 28.2822 82.7145 27.7136 83.5678H53.3094C52.7407 82.7145 52.3137 81.7188 52.0297 80.7239ZM58.9973 75.0359C56.5797 75.0359 54.7314 76.8842 54.7314 79.3019C54.7314 81.7188 56.5797 83.5678 58.9973 83.5678C61.4143 83.5678 63.2633 81.7188 63.2633 79.3019C63.2633 76.8842 61.4143 75.0359 58.9973 75.0359ZM22.3096 46.5962C21.741 46.5962 21.3146 46.8801 21.03 47.3071L11.6447 65.082H29.1356V46.5962H22.3096ZM10.6497 67.926V76.4579C10.6497 77.3105 11.2184 77.8799 12.0717 77.8799H15.058C15.6267 75.0359 17.7597 72.9029 20.6036 72.3336C24.4426 71.4809 28.1399 74.0402 28.9932 77.8799H52.0297C52.5984 75.0359 54.7314 72.9029 57.5753 72.3336C61.4143 71.4809 65.1116 74.0402 65.9649 77.8799H71.7952C72.6486 77.8799 73.2172 77.3105 73.2172 76.4579V69.348C73.2172 68.4946 72.6486 67.926 71.7952 67.926H10.6497ZM22.0256 75.0359C19.608 75.0359 17.7597 76.8842 17.7597 79.3019C17.7597 81.7188 19.608 83.5678 22.0256 83.5678C24.4426 83.5678 26.2916 81.7188 26.2916 79.3019C26.2916 76.8842 24.4426 75.0359 22.0256 75.0359Z" fill="#FFA800"/>
<path d="M20.6045 77.88H23.4485V80.724H20.6045V77.88Z" fill="#FFA800"/>
<path d="M51.8881 14.4591L43.3561 9.33978L34.8242 14.4591V26.6883H51.8881V14.4591ZM37.6682 16.165L41.9342 13.6057V23.8443H37.6682V16.165ZM49.0441 23.8443H44.7781V13.6057L49.0441 16.165V23.8443Z" fill="#FFA800"/>
</g>
<defs>
<clipPath id="clip0">
<rect width="85.6037" height="85.6037" fill="white" transform="translate(0.589844 0.807861)"/>
</clipPath>
</defs>
</svg>
