<svg width="47" height="62" xmlns="http://www.w3.org/2000/svg"><path d="M46.035 41.864H.964a.952.952 0 0 1-.964-.94V28.24c0-2.14 1.784-3.878 3.976-3.878h39.043c2.195 0 3.977 1.74 3.977 3.878v12.685c.002.52-.43.94-.961.94zm-44.108-1.88h43.144V28.24c0-1.103-.921-2-2.05-2H3.978c-1.13 0-2.049.899-2.049 2v11.746h-.002z"/><path d="M43.019 57.28H3.978c-2.193 0-3.976-1.739-3.976-3.877V40.718c0-.52.432-.94.964-.94h45.07c.532 0 .964.42.964.94v12.685c-.002 2.14-1.786 3.878-3.981 3.878zM1.927 41.658v11.746c0 1.103.921 2 2.049 2h39.043c1.13 0 2.05-.899 2.05-2V41.657H1.927z" /><path d="M7.177 62a.978.978 0 0 1-.368-.071.932.932 0 0 1-.523-1.227l2.004-4.72a.969.969 0 0 1 1.259-.509.932.932 0 0 1 .522 1.227l-2.004 4.72a.964.964 0 0 1-.89.58zM39.82 62a.964.964 0 0 1-.89-.58l-2.003-4.72a.931.931 0 0 1 .522-1.227.97.97 0 0 1 1.259.51l2.002 4.719a.931.931 0 0 1-.522 1.227.972.972 0 0 1-.368.071zM25.752 32.1h-4.508a.952.952 0 0 1-.963-.94c0-.519.431-.94.963-.94h4.508c.532 0 .963.421.963.94a.95.95 0 0 1-.963.94zM25.752 47.517h-4.508a.952.952 0 0 1-.963-.94c0-.518.431-.94.963-.94h4.508c.532 0 .963.422.963.94a.95.95 0 0 1-.963.94zM24.944 26.24H12.13a.952.952 0 0 1-.963-.94v-3.807c0-.518.431-.939.963-.939h12.815c.532 0 .964.42.964.94v3.804c0 .52-.432.941-.964.941zm-11.853-1.88h10.888v-1.927H13.09v1.927zM27 11.955H10.07a.973.973 0 0 1-.78-.385.924.924 0 0 1-.138-.84L12.459.654A.958.958 0 0 1 13.376 0h10.318c.42 0 .79.265.919.654L27.92 10.73a.93.93 0 0 1-.139.84.982.982 0 0 1-.78.385zm-15.613-1.879h14.294l-2.69-8.197h-8.912l-2.692 8.197z"/><path d="M18.535 22.433a.952.952 0 0 1-.964-.94V11.017c0-.519.432-.94.964-.94s.963.421.963.94v10.478c0 .52-.43.939-.963.939zM23.499 15.179a.952.952 0 0 1-.964-.94v-3.223c0-.519.432-.94.964-.94s.963.421.963.94v3.224c0 .518-.431.939-.963.939z" /></svg>