<svg width="59" height="59" xmlns="http://www.w3.org/2000/svg"><path d="M4 27.5h51a1 1 0 0 0 1-1v-19a1 1 0 0 0-1-1H39v-3a1 1 0 0 0-1-1H21a1 1 0 0 0-1 1v3H4a1 1 0 0 0-1 1v19a1 1 0 0 0 1 1zm1-4h15v2H5v-2zm49-15v17H39v-17h15zm-32-4h15v21H22v-21zm-17 4h15v13H5v-13zM19 40.5h-2v3h2v-3z"/><path d="M19 15.5h-2v3h2v-3zM36 40.5h-2v3h2v-3zM36 15.5h-2v3h2v-3zM53 40.5h-2v3h2v-3zM53 15.5h-2v3h2v-3z"/><path d="M59 38.5v-2H0v2h3v13a1 1 0 0 0-1 1v3a1 1 0 0 0 1 1h53a1 1 0 0 0 1-1v-3a1 1 0 0 0-1-1v-13h3zm-22 13H22v-13h15v13zm-32-13h15v13H5v-13zm50 16H4v-1h51v1zm-1-3H39v-13h15v13z"/></svg>