<svg width="60" height="56" xmlns="http://www.w3.org/2000/svg"><path d="M27 45.193h6c.553 0 1-.44 1-.982a.99.99 0 0 0-1-.983h-6a.99.99 0 0 0-1 .983.99.99 0 0 0 1 .982zm0-15.719h6c.553 0 1-.44 1-.983a.99.99 0 0 0-1-.982h-6a.99.99 0 0 0-1 .982.99.99 0 0 0 1 .983z"/><path d="M52 3.93v-.895c.331-.427 2.115-1.07 3-1.07h1c.553 0 1-.44 1-.983A.99.99 0 0 0 56 0H40a.99.99 0 0 0-1 .982.99.99 0 0 0 1 .983h1c.885 0 2.669.643 3 1.07v.895H3a3 3 0 0 0-3 3v43.123a3 3 0 0 0 3 3V54a2 2 0 0 0 2 2h2a2 2 0 0 0 2-2v-.947h42V54a2 2 0 0 0 2 2h2a2 2 0 0 0 2-2v-.947a3 3 0 0 0 3-3V6.929a3 3 0 0 0-3-3h-5zm-6.33-1.965h4.66a1.68 1.68 0 0 0-.33.982v.983h-4v-.983c0-.362-.123-.69-.33-.982zM7 53.053c0 .542-.44.982-.982.982h-.036A.982.982 0 0 1 5 53.053h2zm48 0c0 .542-.44.982-.983.982h-.035a.983.983 0 0 1-.982-.982h2zm3-2.965a1 1 0 0 1-1 1H3a1 1 0 0 1-1-1V37.333h56v12.755zm0-14.72H2V21.614h56v13.754zM2 19.65V8.895a3 3 0 0 1 3-3h50a3 3 0 0 1 3 3v10.754H2z"/><path d="M33 11.79h-6a.99.99 0 0 0-1 .982.99.99 0 0 0 1 .982h6a.99.99 0 0 0 1-.982.99.99 0 0 0-1-.982z"/></svg>