<svg width="46" height="68" xmlns="http://www.w3.org/2000/svg"><path d="M44.905 0H1.095A1.094 1.094 0 0 0 0 1.097v62.516a1.097 1.097 0 0 0 1.095 1.097v2.193A1.098 1.098 0 0 0 2.19 68h3.286a1.095 1.095 0 0 0 1.038-.75l.846-2.54h31.28l.846 2.54a1.097 1.097 0 0 0 1.038.75h3.285a1.094 1.094 0 0 0 1.096-1.097V64.71A1.094 1.094 0 0 0 46 63.613V1.097A1.098 1.098 0 0 0 44.905 0zM2.19 62.516V54.84h41.62v7.677H2.19zM43.81 2.194v50.451H24.095V2.194H43.81zm-41.62 0h19.715v50.451H2.19V2.194zm2.497 63.612H3.286V64.71H5.05l-.364 1.096zm38.027 0h-1.4l-.365-1.096h1.765v1.096z"/><path d="M28.476 57.032H17.524a1.094 1.094 0 0 0-1.096 1.097 1.097 1.097 0 0 0 1.096 1.097h10.952a1.094 1.094 0 0 0 1.095-1.097 1.097 1.097 0 0 0-1.095-1.097zm-9.856-34a1.094 1.094 0 0 0-1.096 1.097v10.968a1.097 1.097 0 0 0 1.095 1.097 1.094 1.094 0 0 0 1.095-1.097V24.129a1.098 1.098 0 0 0-1.095-1.097zm8.76 13.162a1.094 1.094 0 0 0 1.096-1.097V24.129a1.098 1.098 0 0 0-1.095-1.097 1.094 1.094 0 0 0-1.095 1.097v10.968a1.097 1.097 0 0 0 1.095 1.097zM7.667 3.29H4.38a1.094 1.094 0 0 0-1.095 1.097A1.098 1.098 0 0 0 4.38 5.484h3.286a1.094 1.094 0 0 0 1.095-1.097A1.098 1.098 0 0 0 7.667 3.29zm4.381 0h-1.096a1.094 1.094 0 0 0-1.095 1.097 1.097 1.097 0 0 0 1.095 1.097h1.096a1.095 1.095 0 0 0 1.095-1.097 1.098 1.098 0 0 0-1.095-1.097z"/></svg>