<svg width="51" height="66" xmlns="http://www.w3.org/2000/svg"><path d="M10.129 47.474a.716.716 0 0 0 1.015 0l.483-.483.483.483a.716.716 0 0 0 1.016 0 .718.718 0 0 0 0-1.015l-.484-.483.484-.484a.718.718 0 0 0-1.015-1.015l-.484.484-.483-.484a.718.718 0 0 0-1.015 1.015l.483.484-.483.483a.718.718 0 0 0 0 1.015zm13.873-15.908a.716.716 0 0 0 1.015 0l.483-.483.483.483a.716.716 0 0 0 1.016 0 .718.718 0 0 0 0-1.015l-.484-.483.484-.483a.718.718 0 1 0-1.015-1.015l-.484.483-.483-.484a.718.718 0 0 0-1.015 1.015l.483.484-.483.483a.718.718 0 0 0 0 1.015z"/><path d="M15.839 2.686c.208 0 .401.069.562.2.707.58 1.698.58 2.406 0 .16-.131.353-.2.562-.2H31.63a.88.88 0 0 1 .563.2 1.88 1.88 0 0 0 2.405 0c.16-.131.354-.2.563-.2h12.262c.49 0 .89.4.89.89v54.34a2.81 2.81 0 0 0-.89-.144h-6.642a.968.968 0 1 0 0 1.935h6.642c.49 0 .89.4.89.89v1.828c0 .49-.4.89-.89.89H35.161a.874.874 0 0 1-.562-.201 1.881 1.881 0 0 0-2.406 0 .874.874 0 0 1-.562.2H19.37a.874.874 0 0 1-.563-.2 1.88 1.88 0 0 0-2.405 0 .874.874 0 0 1-.563.2H3.576c-.49 0-.89-.4-.89-.89v-1.827c0-.49.4-.89.89-.89h12.263c.208 0 .401.07.562.2a1.88 1.88 0 0 0 2.406 0 .88.88 0 0 1 .562-.2H31.63c.21 0 .402.07.563.2a1.88 1.88 0 0 0 2.405 0c.16-.13.354-.2.563-.2h2.787a.968.968 0 0 0 0-1.935h-2.787c-.641 0-1.266.22-1.765.62-.5-.4-1.125-.62-1.766-.62H19.37c-.64 0-1.266.22-1.765.62a2.83 2.83 0 0 0-1.765-.62H3.575c-.311 0-.61.05-.89.144V3.576c0-.49.4-.89.89-.89h12.263zm0 62.564c.64 0 1.265-.22 1.765-.62.499.4 1.124.62 1.765.62H31.63c.64 0 1.266-.22 1.765-.62.5.4 1.125.62 1.765.62h12.263a2.829 2.829 0 0 0 2.826-2.826V3.576A2.829 2.829 0 0 0 47.424.75H35.161c-.64 0-1.265.22-1.764.62-.5-.4-1.125-.62-1.766-.62H19.37c-.641 0-1.266.22-1.765.62A2.83 2.83 0 0 0 15.84.75H3.575A2.829 2.829 0 0 0 .75 3.576v58.849a2.829 2.829 0 0 0 2.826 2.825h12.263z" stroke="#222" stroke-width=".5"/><path d="M10.129 15.692a.716.716 0 0 0 1.015 0l.483-.483.483.483a.716.716 0 0 0 1.016 0 .718.718 0 0 0 0-1.015l-.484-.483.484-.484a.718.718 0 1 0-1.015-1.015l-.484.483-.483-.483a.718.718 0 0 0-1.015 1.015l.483.483-.483.484a.717.717 0 0 0 0 1.015zm0 15.875a.716.716 0 0 0 1.015 0l.483-.484.483.484a.715.715 0 0 0 1.016 0 .718.718 0 0 0 0-1.015l-.484-.484.484-.483a.718.718 0 1 0-1.015-1.015l-.484.483-.483-.483a.718.718 0 1 0-1.015 1.015l.483.483-.483.484a.717.717 0 0 0 0 1.015zm13.873-15.875a.715.715 0 0 0 1.015 0l.483-.484.484.484a.715.715 0 0 0 1.015 0 .718.718 0 0 0 0-1.015l-.484-.484.484-.483a.718.718 0 1 0-1.015-1.015l-.484.483-.483-.483a.718.718 0 1 0-1.015 1.015l.483.483-.483.484a.718.718 0 0 0 0 1.015zm13.872 15.875a.716.716 0 0 0 1.016 0l.483-.484.483.484a.716.716 0 0 0 1.016 0 .718.718 0 0 0 0-1.015l-.484-.484.484-.483a.718.718 0 1 0-1.016-1.015l-.483.483-.483-.483a.718.718 0 1 0-1.015 1.015l.483.483-.483.484a.718.718 0 0 0 0 1.015zm0 15.907a.716.716 0 0 0 1.016 0l.483-.483.483.483a.716.716 0 0 0 1.016 0 .718.718 0 0 0 0-1.015l-.484-.483.484-.484a.718.718 0 1 0-1.016-1.015l-.483.484-.483-.484a.718.718 0 0 0-1.015 1.015l.483.484-.483.483a.718.718 0 0 0 0 1.015zm-13.872 0a.715.715 0 0 0 1.015 0l.483-.483.484.483a.715.715 0 0 0 1.015 0 .718.718 0 0 0 0-1.015l-.484-.484.484-.483a.718.718 0 0 0-1.015-1.015l-.484.484-.483-.484a.718.718 0 1 0-1.015 1.015l.483.483-.483.484a.718.718 0 0 0 0 1.015zm13.872-31.782a.716.716 0 0 0 1.016 0l.483-.483.483.483a.716.716 0 0 0 1.016 0 .718.718 0 0 0 0-1.015l-.484-.483.484-.484a.718.718 0 1 0-1.016-1.015l-.483.483-.483-.483a.718.718 0 0 0-1.015 1.015l.483.483-.483.484a.718.718 0 0 0 0 1.015z"/></svg>