<svg width="50" height="50" xmlns="http://www.w3.org/2000/svg"><path d="M49.167 13.333H43.87A7.494 7.494 0 0 0 39.167 0H31.86A7.5 7.5 0 0 0 25 4.474 7.5 7.5 0 0 0 18.14 0h-7.307A7.494 7.494 0 0 0 6.13 13.333H.833a.833.833 0 0 0-.833.834V22.5c0 .46.373.833.833.833H2.5v25.834c0 .46.373.833.833.833h43.334c.46 0 .833-.373.833-.833V23.333h1.667c.46 0 .833-.373.833-.833v-8.333a.833.833 0 0 0-.833-.834zM37.689 1.736c.068-.01.134-.024.202-.032.21-.024.423-.036.636-.037h.64A5.84 5.84 0 0 1 45 7.5a5.84 5.84 0 0 1-5.833 5.833h-1.958a7.492 7.492 0 0 0 .155-11.538c.108-.022.216-.042.325-.06zm-2.162.8A5.82 5.82 0 0 1 32.5 13.333h-2.892l3.574-8.171a5.817 5.817 0 0 1 2.345-2.626zM29.627 15h5.691l3.936 7.872 2.731 5.461h-2.818a.834.834 0 0 0-.667.334l-1.657 2.208-3.962-8.717L29.628 15zm1.2 6.667h-1.66v-3.654l1.66 3.654zM14.474 2.536a5.817 5.817 0 0 1 2.344 2.626l3.575 8.171H17.5a5.82 5.82 0 0 1-3.027-10.797zM20.373 15l-3.25 7.155-3.966 8.72-1.657-2.208a.834.834 0 0 0-.667-.334H8.015l2.735-5.46L14.682 15h5.69zM5 7.5a5.84 5.84 0 0 1 5.833-5.833h.64c.213 0 .425.013.636.037.068.008.134.022.202.032.109.016.217.036.325.059a7.492 7.492 0 0 0 .155 11.538h-1.958A5.84 5.84 0 0 1 5 7.5zM1.667 21.667V15h11.151l-3.333 6.667H1.667zm19.166 26.666H4.167v-25h4.485L5.92 28.794A.833.833 0 0 0 6.667 30h3.75l2.25 3a.833.833 0 0 0 1.423-.155l4.327-9.512h2.416v25zm0-26.666h-1.66l1.66-3.654v3.654zM18.344 4.494a7.462 7.462 0 0 0-2.173-2.827h1.969a5.833 5.833 0 0 1 5.344 3.495l.606 1.386-2.423 5.54-3.323-7.594zm9.156 43.84h-5V15h5v33.333zm-4.56-35l3.576-8.172a5.833 5.833 0 0 1 5.344-3.495h1.973a7.462 7.462 0 0 0-2.173 2.827l-3.872 8.84h-4.847zm22.893 35H29.167v-25h2.416l4.325 9.511a.833.833 0 0 0 1.425.155l2.25-3h3.75a.833.833 0 0 0 .75-1.206l-2.735-5.46h4.485v25zm2.5-26.667h-7.818L37.182 15h11.151v6.667z"/></svg>