<svg width="65" height="32" xmlns="http://www.w3.org/2000/svg"><path d="M63.885 0H1.115A1.12 1.12 0 0 0 0 1.125v6.428c0 .621.5 1.125 1.116 1.125h4.52v22.197c0 .621.5 1.125 1.117 1.125h5.884a1.12 1.12 0 0 0 1.117-1.125V19.308h37.82v11.567A1.12 1.12 0 0 0 52.689 32h5.885a1.12 1.12 0 0 0 1.116-1.125V8.678h4.194A1.12 1.12 0 0 0 65 7.553V1.125C65 .504 64.5 0 63.885 0zM11.522 29.75H7.87V8.678h3.652V29.75zm2.232-12.692v-8.38h37.82v8.38h-37.82zM57.46 29.75h-3.653V8.678h3.653V29.75zm5.31-23.322H2.232V2.25h60.536v4.178z"/><path d="M36.26 11.785h-6.375a1.12 1.12 0 0 0-1.116 1.125c0 .62.5 1.125 1.116 1.125h6.375a1.12 1.12 0 0 0 1.116-1.125c0-.621-.5-1.125-1.116-1.125z"/></svg>