<svg width="60" height="49" xmlns="http://www.w3.org/2000/svg"><path fill-rule="evenodd" clip-rule="evenodd" d="M58.828 18.667a1.17 1.17 0 0 0-1.172 1.166v2.016a115.295 115.295 0 0 0-5.39-1.099V1.167A1.17 1.17 0 0 0 51.094 0a1.17 1.17 0 0 0-1.172 1.167V3.5h-9.005C39.699 2.68 35.316 0 30 0s-9.7 2.68-10.917 3.5h-9.005V1.167A1.17 1.17 0 0 0 8.906 0a1.17 1.17 0 0 0-1.172 1.167V20.75c-2.365.427-4.212.826-5.39 1.099v-2.016a1.17 1.17 0 0 0-1.172-1.166A1.17 1.17 0 0 0 0 19.833v28A1.17 1.17 0 0 0 1.172 49a1.17 1.17 0 0 0 1.172-1.167V42h55.312v5.833A1.17 1.17 0 0 0 58.828 49 1.17 1.17 0 0 0 60 47.833v-28a1.17 1.17 0 0 0-1.172-1.166zm-56.484 21h55.312V31.5H2.344v8.167zM20.153 5.602c-.202.15-.448.231-.7.231h-9.375v14.518c1.558-.253 3.126-.48 4.688-.677v-4.507c0-2.573 2.103-4.667 4.687-4.667h7.031c1.4 0 2.656.614 3.516 1.585a4.686 4.686 0 0 1 3.516-1.585h7.03c2.585 0 4.688 2.094 4.688 4.667v4.507c1.562.198 3.13.424 4.688.677V5.833h-9.375c-.252 0-.498-.08-.7-.23-.043-.032-4.5-3.27-9.847-3.27-5.375 0-9.803 3.237-9.847 3.27zm11.019 9.565v3.507c3.766.042 7.698.283 11.719.721v-4.228a2.341 2.341 0 0 0-2.344-2.334h-7.031a2.341 2.341 0 0 0-2.344 2.334zm-14.063 0v4.228c4.021-.438 7.953-.68 11.72-.721v-3.507a2.341 2.341 0 0 0-2.345-2.334h-7.03a2.341 2.341 0 0 0-2.345 2.334zm-14.765 9.08v4.92h55.312v-4.92C50.066 22.442 39.494 21 30 21c-9.504 0-19.92 1.407-27.656 3.247z"/></svg>