<svg width="16" height="16" fill="none" xmlns="http://www.w3.org/2000/svg"><path d="M11.36 10.041a3.685 3.685 0 0 0-.233-.256c1.237.304 2.425-.111 2.661-.983.215-.79-.439-1.658-1.488-2.04 1.005-1.592 1.19-3.397.423-4.171-.755-.765-2.144-.296-3.375.91-.44-1.009-1.166-1.548-1.754-1.277-.698.322-.963 1.621-.664 2.964a3.672 3.672 0 0 0-.23-.248c-.947-.932-2.15-1.12-2.676-.498-.494.587-.238 1.68.546 2.582a2.949 2.949 0 0 0-.47 0C2.76 7.137 1.646 8.06 1.577 9.09c-.046.696.395 1.288 1.097 1.603l-.044.04c-.984.943-1.125 2.42-.318 3.416.807.992 2.302 1.128 3.346.188l.045-.043c.214.788.733 1.346 1.427 1.378 1.03.053 2.061-1.13 2.233-2.65.02-.182.028-.36.023-.531.818.917 1.87 1.245 2.44.659.61-.622.41-2.048-.466-3.109z" fill="#41A85F"/><path d="M14.605.054a.326.326 0 0 0-.451.093 69.448 69.448 0 0 1-1.4 2.044c-.811-.584-2.076-.287-3.31.778-.303-.525-.692-.901-1.102-1.058a1.12 1.12 0 0 0-.885.017c-.663.306-1.023 1.254-.97 2.405-.542-.392-1.143-.602-1.68-.577-.43.02-.786.185-1.032.477-.501.594-.423 1.56.158 2.48-1.437.178-2.603 1.19-2.681 2.356-.044.671.292 1.295.897 1.704a2.994 2.994 0 0 0-.674 1.618c-.067.718.14 1.415.584 1.963.447.549 1.081.881 1.787.936a2.666 2.666 0 0 0 1.706-.458c.323.7.893 1.135 1.562 1.166l.084.002c1.162 0 2.238-1.222 2.47-2.798.457.356.945.557 1.4.567.391.01.734-.127.991-.391.369-.377.516-.969.413-1.665a3.799 3.799 0 0 0-.585-1.503h.037c1.07 0 1.957-.505 2.179-1.322.13-.478.015-.994-.322-1.452a2.825 2.825 0 0 0-1.012-.827c.402-.722.659-1.494.731-2.206.07-.686-.036-1.28-.298-1.718.51-.715 1.01-1.442 1.496-2.18a.326.326 0 0 0-.093-.451zm-1.753 4.283c-.074.723-.367 1.522-.828 2.25a.326.326 0 0 0 .164.48c.9.329 1.452 1.038 1.286 1.65-.184.677-1.201 1.014-2.269.752a.326.326 0 0 0-.309.546c.074.074.146.153.212.233v.001c.813.983.927 2.222.485 2.673a.66.66 0 0 1-.511.195c-.448-.01-.99-.325-1.453-.843a.326.326 0 0 0-.569.226c.005.16-.002.323-.02.486-.076.666-.331 1.284-.72 1.74-.353.415-.78.641-1.175.62-.519-.023-.94-.449-1.127-1.137a.326.326 0 0 0-.539-.151l-.016.015-.023.021c-.439.396-.987.59-1.543.546a1.89 1.89 0 0 1-1.332-.697c-.701-.865-.577-2.144.29-2.974l.02-.019.019-.016a.326.326 0 0 0-.086-.538c-.602-.27-.94-.75-.906-1.284.06-.874 1.057-1.665 2.224-1.763.14-.011.28-.011.418 0a.325.325 0 0 0 .272-.538c-.683-.787-.916-1.715-.543-2.159.16-.188.394-.237.564-.245.505-.024 1.131.27 1.635.765.07.07.141.146.209.226a.326.326 0 0 0 .567-.281c-.296-1.33.02-2.384.481-2.597a.471.471 0 0 1 .38 0c.342.13.693.545.94 1.11a.326.326 0 0 0 .527.103c1.07-1.047 2.188-1.443 2.797-1.013a67.754 67.754 0 0 1-2.034 2.662c-.455-.182-.915-.361-1.372-.535a.326.326 0 1 0-.232.609c.39.148.784.301 1.174.456-.371.452-.748.898-1.13 1.339a184.88 184.88 0 0 0-2.202-.405.326.326 0 1 0-.114.642c.603.107 1.213.218 1.818.332-.385.433-.774.86-1.168 1.281l-2.66-.04h-.005a.326.326 0 0 0-.005.652l2.06.03c-.92.957-1.865 1.881-2.835 2.77a.326.326 0 1 0 .44.48 63.526 63.526 0 0 0 2.801-2.731c-.02.741-.052 1.485-.096 2.221a.326.326 0 0 0 .65.039c.06-.982.097-1.978.114-2.962.377-.403.75-.81 1.117-1.225.108.663.206 1.33.294 1.992a.326.326 0 1 0 .646-.086 71.066 71.066 0 0 0-.384-2.538c.366-.423.728-.85 1.085-1.284.153.415.303.834.447 1.25a.326.326 0 1 0 .616-.213 70.858 70.858 0 0 0-.585-1.623 68.19 68.19 0 0 0 1.954-2.546c.096.286.127.643.085 1.05z" fill="#000"/></svg>