<svg width="498" height="147" viewBox="0 0 498 147" fill="none" xmlns="http://www.w3.org/2000/svg">
<rect x="0.876465" y="0.0657959" width="497" height="40.0714" fill="#57BE78"/>
<path d="M32.7269 28.8827C29.8517 28.8827 27.6641 28.0155 26.164 26.281C24.6638 24.5465 23.9138 22.5229 23.9138 20.2102C23.9138 17.9132 24.6482 15.8974 26.1171 14.1629C27.6016 12.4127 29.8048 11.5377 32.7269 11.5377H32.9613C35.8834 11.5377 38.0789 12.4127 39.5478 14.1629C41.0322 15.8974 41.7745 17.9132 41.7745 20.2102C41.7745 22.5229 41.0322 24.5387 39.5478 26.2575C38.0789 27.9764 35.8834 28.8437 32.9613 28.8593L32.7269 28.8827ZM32.8207 24.9449C32.977 24.9449 33.141 24.9371 33.3129 24.9215C33.4848 24.8902 33.6567 24.8434 33.8286 24.7809C34.5786 24.5777 35.2584 24.1246 35.8678 23.4214C36.4928 22.7026 36.8054 21.6322 36.8054 20.2102C36.8054 18.7882 36.4928 17.7256 35.8678 17.0225C35.2428 16.3037 34.563 15.8427 33.8286 15.6396C33.6567 15.5927 33.4848 15.5536 33.3129 15.5224C33.1567 15.4911 33.0004 15.4755 32.8441 15.4755C32.6722 15.4755 32.4925 15.4911 32.305 15.5224C32.1175 15.5536 31.9378 15.6005 31.7659 15.663C31.0471 15.8818 30.383 16.3505 29.7736 17.0693C29.1798 17.7725 28.8829 18.8195 28.8829 20.2102C28.8829 21.6009 29.1798 22.6557 29.7736 23.3745C30.383 24.0777 31.0471 24.5387 31.7659 24.7574C31.9378 24.8199 32.1097 24.8668 32.2816 24.8981C32.4691 24.9293 32.6488 24.9449 32.8207 24.9449ZM62.616 28.4139V26.1169C62.2253 26.1169 61.8191 26.1013 61.3972 26.07C60.9753 26.0388 60.5455 25.9763 60.108 25.8825C58.7954 25.6169 57.5922 25.0153 56.4984 24.0777C55.4202 23.1401 54.8811 21.6322 54.8811 19.5539C54.8811 17.4913 55.428 15.9911 56.5218 15.0536C57.6156 14.1004 58.8188 13.4831 60.1314 13.2019C60.5065 13.1237 60.8737 13.069 61.2331 13.0378C61.6081 13.0065 61.9675 12.9909 62.3113 12.9909C62.3425 12.9909 62.366 12.9909 62.3816 12.9909C62.4129 12.9909 62.4441 12.9909 62.4754 12.9909C62.491 12.9909 62.5144 12.9909 62.5457 12.9909C62.5769 12.9909 62.6004 12.9909 62.616 12.9909V11.1861H62.8504H67.4445V12.9909C67.507 12.9909 67.5695 12.9909 67.632 12.9909C67.6945 12.9909 67.757 12.9909 67.8195 12.9909C68.2258 12.9909 68.7024 13.0222 69.2493 13.0847C69.8119 13.1472 70.39 13.28 70.9838 13.4831C72.0308 13.8269 72.9918 14.4598 73.8668 15.3817C74.7419 16.288 75.1794 17.6788 75.1794 19.5539C75.1794 21.6634 74.6247 23.187 73.5153 24.1246C72.4214 25.0465 71.2104 25.6403 69.8822 25.9059C69.4603 25.9841 69.0384 26.0388 68.6164 26.07C68.2102 26.1013 67.8195 26.1169 67.4445 26.1169V28.4139H67.2101H62.616ZM62.9442 22.8354V16.2724C62.0535 16.288 61.3815 16.4756 60.9284 16.835C60.4908 17.1944 60.1783 17.5928 59.9908 18.0304C59.8658 18.3273 59.7877 18.6163 59.7564 18.8976C59.7252 19.1789 59.7095 19.3976 59.7095 19.5539C59.7095 19.7102 59.7252 19.9289 59.7564 20.2102C59.7877 20.4915 59.8658 20.7806 59.9908 21.0775C60.1783 21.515 60.4908 21.9135 60.9284 22.2729C61.3815 22.6323 62.0535 22.8198 62.9442 22.8354ZM67.1163 16.2724V22.8354C67.2882 22.8354 67.4992 22.8198 67.7492 22.7885C67.9992 22.7416 68.2492 22.6713 68.4993 22.5776C68.968 22.4057 69.3899 22.0932 69.765 21.64C70.1556 21.1868 70.351 20.4915 70.351 19.5539C70.351 18.6163 70.1556 17.921 69.765 17.4678C69.3899 17.0147 68.968 16.7021 68.4993 16.5302C68.2492 16.4365 67.9992 16.374 67.7492 16.3427C67.4992 16.2959 67.2882 16.2724 67.1163 16.2724ZM89.2357 12.0065H93.6657V21.4994L99.7833 12.0065H100.018H104.518V28.4139H104.284H99.8536V18.9445L93.8298 28.4139H93.5954H89.0013V12.0065H89.2357ZM119.076 28.4139V12.0065H119.31H123.904V24.4761H129.084V12.0065H129.319H133.913V24.4761H135.882V31.6954H135.647H131.71V28.4139H119.076ZM149.362 12.0065H153.792V21.4994L159.91 12.0065H160.144H164.644V28.4139H164.41H159.98V18.9445L153.956 28.4139H153.722H149.128V12.0065H149.362ZM177.561 28.4139L183.398 12.0065H183.632H189.211L195.024 28.4139H194.789H189.867L188.976 25.5778H183.632L182.718 28.4139H182.484H177.561ZM186.304 16.1787L184.546 21.9681H188.062L186.304 16.1787ZM209.988 12.0065H222.458V28.4139H222.224H217.629V15.9443H214.582V22.4135C214.582 22.7573 214.567 23.1323 214.535 23.5386C214.52 23.9449 214.465 24.359 214.371 24.7809C214.168 25.7497 213.66 26.6326 212.848 27.4295C212.051 28.2108 210.645 28.6015 208.629 28.6015L208.394 28.6249C208.144 28.6093 207.918 28.5936 207.715 28.578C207.527 28.578 207.34 28.5624 207.152 28.5311C207.043 28.5155 206.933 28.4921 206.824 28.4608C206.715 28.4452 206.597 28.4296 206.472 28.4139V24.4761H206.707C206.863 24.523 207.011 24.5621 207.152 24.5933C207.308 24.609 207.465 24.6246 207.621 24.6402C208.637 24.609 209.246 24.2496 209.449 23.562C209.652 22.8588 209.754 22.0228 209.754 21.054V12.0065H209.988ZM237.016 28.4139V12.0065H237.251H241.845V18.4054H244.259C244.587 18.4054 245.017 18.421 245.548 18.4523C246.08 18.4835 246.634 18.5851 247.212 18.757C248.088 19.007 248.884 19.4758 249.603 20.1633C250.338 20.8509 250.705 21.9291 250.705 23.3979C250.705 24.8668 250.338 25.9528 249.603 26.656C248.884 27.3435 248.095 27.8123 247.236 28.0624C246.658 28.2342 246.095 28.3358 245.548 28.3671C245.001 28.3983 244.572 28.4139 244.259 28.4139H244.025H237.016ZM241.845 25.1324H243.579C244.267 25.1324 244.822 25.0153 245.244 24.7809C245.666 24.5308 245.876 24.0699 245.876 23.3979C245.876 22.7416 245.666 22.2963 245.244 22.0619C244.837 21.8119 244.283 21.6869 243.579 21.6869H241.845V25.1324ZM264.436 28.4139V12.0065H264.67H269.264V17.9132H274.608V12.0065H274.843H279.437V28.4139H279.202H274.608V21.851H269.264V28.4139H269.03H264.436ZM293.984 28.4139V12.0065H294.218H298.812V18.4054H301.227C301.555 18.4054 301.984 18.421 302.516 18.4523C303.047 18.4835 303.602 18.5851 304.18 18.757C305.055 19.007 305.852 19.4758 306.571 20.1633C307.305 20.8509 307.672 21.9291 307.672 23.3979C307.672 24.8668 307.305 25.9528 306.571 26.656C305.852 27.3435 305.063 27.8123 304.203 28.0624C303.625 28.2342 303.063 28.3358 302.516 28.3671C301.969 28.3983 301.539 28.4139 301.227 28.4139H300.992H293.984ZM298.812 25.1324H300.547C301.234 25.1324 301.789 25.0153 302.211 24.7809C302.633 24.5308 302.844 24.0699 302.844 23.3979C302.844 22.7416 302.633 22.2963 302.211 22.0619C301.805 21.8119 301.25 21.6869 300.547 21.6869H298.812V25.1324ZM308.422 28.4139V12.0065H308.657H313.251V28.4139H313.017H308.422ZM328.047 12.0065H332.477V21.4994L338.594 12.0065H338.829H343.329V28.4139H343.095H338.665V18.9445L332.641 28.4139H332.406H327.812V12.0065H328.047ZM331 8.49058L333.672 7.50613H333.907C334 7.86554 334.141 8.13899 334.328 8.32651C334.516 8.51402 334.719 8.64684 334.938 8.72498C335.079 8.78748 335.219 8.83436 335.36 8.86561C335.5 8.88124 335.625 8.88905 335.735 8.88905C335.844 8.88905 335.969 8.88124 336.11 8.86561C336.25 8.83436 336.391 8.78748 336.532 8.72498C336.751 8.64684 336.954 8.51402 337.141 8.32651C337.329 8.13899 337.469 7.86554 337.563 7.50613H337.797L340.47 8.49058C340.063 9.42815 339.43 10.1001 338.571 10.5064C337.727 10.9126 336.821 11.1158 335.852 11.1158H335.618C334.539 11.1158 333.586 10.8892 332.758 10.436C331.93 9.96725 331.344 9.31877 331 8.49058ZM390.288 27.6639C389.959 27.8827 389.631 28.0624 389.303 28.203C388.975 28.3436 388.647 28.4608 388.319 28.5546C387.897 28.6796 387.475 28.7577 387.053 28.789C386.647 28.8358 386.248 28.8593 385.858 28.8593L385.623 28.8827C383.311 28.8671 381.334 28.1014 379.693 26.5857C378.052 25.0699 377.232 22.9448 377.232 20.2102C377.232 17.3506 378.091 15.1942 379.81 13.741C381.529 12.2721 383.443 11.5377 385.553 11.5377H385.787C386.069 11.5377 386.358 11.5533 386.655 11.5846C386.951 11.6158 387.256 11.6627 387.569 11.7252C388.037 11.819 388.498 11.9596 388.952 12.1471C389.42 12.3346 389.866 12.569 390.288 12.8503V17.6084H390.053C389.959 17.4991 389.85 17.3819 389.725 17.2569C389.6 17.1319 389.459 16.999 389.303 16.8584C388.959 16.5615 388.53 16.288 388.014 16.038C387.514 15.788 386.936 15.6552 386.28 15.6396C384.998 15.6708 383.998 16.1552 383.279 17.0928C382.561 18.0147 382.201 19.1007 382.201 20.3508C382.201 21.7572 382.6 22.8432 383.397 23.6089C384.209 24.359 385.17 24.7496 386.28 24.7809C387.108 24.7496 387.834 24.5543 388.459 24.1949C389.1 23.8355 389.631 23.437 390.053 22.9995H390.288V27.6639ZM402.547 28.4139L408.383 12.0065H408.618H414.196L420.009 28.4139H419.775H414.853L413.962 25.5778H408.618L407.704 28.4139H407.469H402.547ZM411.29 16.1787L409.532 21.9681H413.048L411.29 16.1787ZM433.169 12.0065H437.599V21.4994L443.717 12.0065H443.951H448.451V28.4139H448.217H443.787V18.9445L437.763 28.4139H437.529H432.935V12.0065H433.169ZM436.122 8.49058L438.794 7.50613H439.029C439.123 7.86554 439.263 8.13899 439.451 8.32651C439.638 8.51402 439.841 8.64684 440.06 8.72498C440.201 8.78748 440.341 8.83436 440.482 8.86561C440.623 8.88124 440.748 8.88905 440.857 8.88905C440.966 8.88905 441.091 8.88124 441.232 8.86561C441.373 8.83436 441.513 8.78748 441.654 8.72498C441.873 8.64684 442.076 8.51402 442.263 8.32651C442.451 8.13899 442.592 7.86554 442.685 7.50613H442.92L445.592 8.49058C445.186 9.42815 444.553 10.1001 443.693 10.5064C442.849 10.9126 441.943 11.1158 440.974 11.1158H440.74C439.662 11.1158 438.708 10.8892 437.88 10.436C437.052 9.96725 436.466 9.31877 436.122 8.49058ZM465.306 28.4139V15.9443H461.697V12.0065H461.931H473.744V15.9443H470.135V28.4139H469.9H465.306Z" fill="white"/>
<path d="M2.87157 108.061L10.5067 55.6634H11.2553H25.9267L34.7595 86.3536L43.5923 55.6634H44.3409H59.0123L66.6475 108.061H65.8989H51.8263L48.1585 79.467L39.8496 108.061H39.1011H29.6694L21.3606 79.467L17.6927 108.061H16.9442H2.87157ZM72.4025 108.061V55.6634H73.151H104.59V68.2389H87.8225V75.5746H103.018V87.1022H87.8225V95.4859H104.59V108.061H103.841H72.4025ZM112.461 108.061V55.6634H113.21H151.91V68.2389H127.881V76.0986H135.591C136.639 76.0986 138.012 76.1485 139.708 76.2483C141.405 76.3481 143.176 76.6725 145.023 77.2214C147.817 78.0199 150.363 79.5169 152.658 81.7127C155.003 83.8585 156.176 87.2269 156.176 91.818C156.176 96.5588 155.003 100.052 152.658 102.298C150.363 104.543 147.842 106.065 145.098 106.864C143.251 107.463 141.455 107.812 139.708 107.912C137.962 108.011 136.589 108.061 135.591 108.061H134.843H112.461ZM127.881 97.5818H133.42C135.616 97.5818 137.388 97.2075 138.735 96.459C140.083 95.6605 140.756 94.1884 140.756 92.0426C140.756 89.9466 140.083 88.5244 138.735 87.7759C137.438 86.9774 135.666 86.5782 133.42 86.5782H127.881V97.5818ZM162.973 108.061V55.6634H163.722H195.161V68.2389H178.393V75.5746H193.589V87.1022H178.393V95.4859H195.161V108.061H194.412H162.973ZM209.544 55.6634H249.367V108.061H248.618H233.947V68.2389H224.216V88.8987C224.216 89.9966 224.166 91.1942 224.066 92.4917C224.016 93.7892 223.842 95.1116 223.542 96.459C222.893 99.553 221.272 102.372 218.677 104.918C216.132 107.413 211.64 108.66 205.203 108.66L204.454 108.735C203.656 108.685 202.932 108.635 202.284 108.585C201.685 108.585 201.086 108.535 200.487 108.436C200.138 108.386 199.788 108.311 199.439 108.211C199.09 108.161 198.715 108.111 198.316 108.061V95.4859H199.065C199.564 95.6356 200.038 95.7603 200.487 95.8601C200.986 95.91 201.485 95.9599 201.984 96.0099C205.228 95.91 207.174 94.7623 207.823 92.5666C208.472 90.3209 208.796 87.6511 208.796 84.5571V55.6634H209.544ZM258.807 108.061V55.6634H259.556H274.227V76.0986H281.937C282.985 76.0986 284.358 76.1485 286.054 76.2483C287.751 76.3481 289.523 76.6725 291.369 77.2214C294.164 78.0199 296.709 79.5169 299.004 81.7127C301.35 83.9084 302.522 87.3517 302.522 92.0426C302.522 96.7334 301.35 100.202 299.004 102.447C296.709 104.643 294.189 106.14 291.444 106.939C289.597 107.488 287.801 107.812 286.054 107.912C284.308 108.011 282.935 108.061 281.937 108.061H281.189H258.807ZM274.227 97.5818H279.767C281.962 97.5818 283.734 97.2075 285.081 96.459C286.429 95.6605 287.102 94.1884 287.102 92.0426C287.102 89.9466 286.429 88.5244 285.081 87.7759C283.784 86.9774 282.012 86.5782 279.767 86.5782H274.227V97.5818ZM309.319 108.061V55.6634H310.068H341.507V68.2389H324.739V75.5746H339.935V87.1022H324.739V95.4859H341.507V108.061H340.758H309.319ZM349.378 108.061V55.6634H350.127H372.209C377.798 55.6634 381.965 56.861 384.709 59.2564C387.504 61.6517 389.375 64.2966 390.324 67.1909C390.673 68.2389 390.922 69.2868 391.072 70.3348C391.222 71.3329 391.297 72.281 391.297 73.1793C391.297 74.0775 391.222 75.0506 391.072 76.0986C390.922 77.0967 390.673 78.1197 390.324 79.1676C389.425 82.062 387.579 84.7318 384.784 87.177C381.99 89.5724 377.798 90.77 372.209 90.77H364.798V108.061H364.05H349.378ZM364.798 67.1909V79.2425H368.242C370.387 79.2425 371.959 78.8932 372.957 78.1945C373.955 77.4959 374.629 76.7473 374.978 75.9489C375.178 75.4 375.303 74.876 375.353 74.3769C375.403 73.8779 375.428 73.4787 375.428 73.1793C375.428 72.8799 375.403 72.5804 375.353 72.281C375.353 71.9816 375.328 71.6822 375.278 71.3828C375.028 70.3348 374.405 69.3867 373.406 68.5383C372.408 67.6401 370.687 67.1909 368.242 67.1909H364.798ZM398.136 108.061V55.6634H398.884H420.966C426.556 55.6634 430.722 56.861 433.467 59.2564C436.262 61.6517 438.133 64.2966 439.081 67.1909C439.431 68.2389 439.68 69.2868 439.83 70.3348C439.979 71.3329 440.054 72.281 440.054 73.1793C440.054 74.0775 439.979 75.0506 439.83 76.0986C439.68 77.0967 439.431 78.1197 439.081 79.1676C438.183 82.062 436.337 84.7318 433.542 87.177C430.747 89.5724 426.556 90.77 420.966 90.77H413.556V108.061H412.807H398.136ZM413.556 67.1909V79.2425H416.999C419.145 79.2425 420.717 78.8932 421.715 78.1945C422.713 77.4959 423.387 76.7473 423.736 75.9489C423.936 75.4 424.06 74.876 424.11 74.3769C424.16 73.8779 424.185 73.4787 424.185 73.1793C424.185 72.8799 424.16 72.5804 424.11 72.281C424.11 71.9816 424.085 71.6822 424.035 71.3828C423.786 70.3348 423.162 69.3867 422.164 68.5383C421.166 67.6401 419.444 67.1909 416.999 67.1909H413.556ZM441.654 108.061L460.292 55.6634H461.041H478.856L497.42 108.061H496.672H480.952L478.108 99.004H461.041L458.122 108.061H457.373H441.654ZM469.574 68.9874L463.96 87.4765H475.188L469.574 68.9874Z" fill="#57BE78"/>
<path d="M23.7804 138.859H21.1379V121.087H11.3073V138.859H8.67856V118.924H23.7804V138.859ZM40.6895 131.616C40.6895 133.871 40.1738 135.687 39.1423 137.066C38.1109 138.444 36.7144 139.133 34.9527 139.133C33.1546 139.133 31.7398 138.562 30.7083 137.422V144.555H28.1754V124.045H30.4893L30.6125 125.688C31.6439 124.41 33.077 123.771 34.9116 123.771C36.6915 123.771 38.0972 124.442 39.1286 125.784C40.1692 127.125 40.6895 128.992 40.6895 131.384V131.616ZM38.1565 131.329C38.1565 129.658 37.8006 128.339 37.0886 127.372C36.3766 126.404 35.4 125.921 34.1586 125.921C32.6251 125.921 31.4751 126.601 30.7083 127.961V135.039C31.4659 136.39 32.6251 137.066 34.186 137.066C35.4 137.066 36.3629 136.586 37.0749 135.628C37.796 134.66 38.1565 133.227 38.1565 131.329ZM43.2498 131.315C43.2498 129.864 43.5328 128.558 44.0987 127.399C44.6737 126.24 45.4679 125.346 46.481 124.716C47.5033 124.086 48.6671 123.771 49.9724 123.771C51.9896 123.771 53.6189 124.469 54.8603 125.866C56.1108 127.262 56.736 129.12 56.736 131.438V131.616C56.736 133.058 56.4576 134.355 55.9008 135.505C55.3532 136.646 54.5636 137.536 53.5322 138.175C52.5099 138.813 51.3324 139.133 49.9998 139.133C47.9917 139.133 46.3624 138.435 45.1119 137.038C43.8705 135.642 43.2498 133.793 43.2498 131.493V131.315ZM45.7965 131.616C45.7965 133.259 46.1753 134.578 46.9329 135.573C47.6996 136.568 48.7219 137.066 49.9998 137.066C51.2868 137.066 52.3091 136.564 53.0667 135.559C53.8243 134.546 54.2031 133.131 54.2031 131.315C54.2031 129.69 53.8152 128.376 53.0393 127.372C52.2726 126.359 51.2503 125.852 49.9724 125.852C48.7219 125.852 47.7133 126.35 46.9465 127.345C46.1798 128.339 45.7965 129.763 45.7965 131.616ZM69.4966 124.045H72.0295V138.859H69.4966V128.056L62.6645 138.859H60.1315V124.045H62.6645V134.861L69.4966 124.045ZM84.2424 128.098C84.2424 127.404 83.9777 126.856 83.4483 126.455C82.9189 126.044 82.1933 125.838 81.2713 125.838C80.3768 125.838 79.6284 126.071 79.0259 126.537C78.4326 127.002 78.136 127.55 78.136 128.18H75.6167C75.6167 126.893 76.1553 125.838 77.2323 125.017C78.3094 124.195 79.6557 123.785 81.2713 123.785C83.0056 123.785 84.3565 124.159 85.3241 124.907C86.2916 125.647 86.7754 126.706 86.7754 128.084C86.7754 128.75 86.5746 129.362 86.1729 129.919C85.7713 130.475 85.2008 130.918 84.4615 131.247C86.1866 131.831 87.0492 132.981 87.0492 134.697C87.0492 136.057 86.5244 137.134 85.4747 137.928C84.425 138.722 83.0239 139.119 81.2713 139.119C79.5645 139.119 78.1542 138.704 77.0406 137.873C75.9362 137.034 75.384 135.902 75.384 134.478H77.9032C77.9032 135.199 78.2227 135.82 78.8616 136.34C79.5097 136.851 80.3129 137.107 81.2713 137.107C82.2389 137.107 83.0193 136.883 83.6126 136.436C84.2059 135.988 84.5026 135.409 84.5026 134.697C84.5026 133.866 84.2516 133.273 83.7495 132.917C83.2566 132.552 82.4853 132.369 81.4356 132.369H78.9027V130.233H81.6547C83.3799 130.188 84.2424 129.476 84.2424 128.098ZM90.5679 138.859V124.045H96.3458C98.3174 124.045 99.828 124.392 100.878 125.085C101.937 125.77 102.466 126.779 102.466 128.111C102.466 128.796 102.261 129.416 101.85 129.973C101.439 130.521 100.832 130.941 100.029 131.233C100.923 131.443 101.64 131.854 102.178 132.465C102.726 133.077 103 133.807 103 134.656C103 136.016 102.498 137.056 101.494 137.777C100.499 138.499 99.0887 138.859 97.2631 138.859H90.5679ZM93.1009 132.356V136.819H97.2905C98.3493 136.819 99.1389 136.623 99.6592 136.23C100.189 135.838 100.453 135.286 100.453 134.574C100.453 133.095 99.3671 132.356 97.1947 132.356H93.1009ZM93.1009 130.329H96.3732C98.7464 130.329 99.933 129.636 99.933 128.248C99.933 126.861 98.8103 126.144 96.5649 126.099H93.1009V130.329ZM105.683 131.315C105.683 129.864 105.966 128.558 106.532 127.399C107.107 126.24 107.901 125.346 108.915 124.716C109.937 124.086 111.101 123.771 112.406 123.771C114.423 123.771 116.053 124.469 117.294 125.866C118.544 127.262 119.17 129.12 119.17 131.438V131.616C119.17 133.058 118.891 134.355 118.334 135.505C117.787 136.646 116.997 137.536 115.966 138.175C114.944 138.813 113.766 139.133 112.433 139.133C110.425 139.133 108.796 138.435 107.546 137.038C106.304 135.642 105.683 133.793 105.683 131.493V131.315ZM108.23 131.616C108.23 133.259 108.609 134.578 109.366 135.573C110.133 136.568 111.156 137.066 112.433 137.066C113.72 137.066 114.743 136.564 115.5 135.559C116.258 134.546 116.637 133.131 116.637 131.315C116.637 129.69 116.249 128.376 115.473 127.372C114.706 126.359 113.684 125.852 112.406 125.852C111.156 125.852 110.147 126.35 109.38 127.345C108.613 128.339 108.23 129.763 108.23 131.616ZM121.237 136.792L122.113 135.71C123.099 134.432 123.661 132.515 123.797 129.96L124.03 124.045H133.573V136.792H135.476V143.213H132.943V138.859H122.606V143.213H120.073L120.087 136.792H121.237ZM124.236 136.792H131.04V126.386H126.481L126.33 129.919C126.175 132.867 125.477 135.158 124.236 136.792ZM147.867 124.045H150.4V138.859H147.867V128.056L141.035 138.859H138.502V124.045H141.035V134.861L147.867 124.045ZM165.475 126.099H160.505V138.859H157.972V126.099H153.097V124.045H165.475V126.099ZM172.991 139.133C170.983 139.133 169.349 138.476 168.09 137.161C166.83 135.838 166.2 134.072 166.2 131.863V131.397C166.2 129.928 166.479 128.618 167.035 127.468C167.601 126.309 168.386 125.405 169.39 124.757C170.404 124.1 171.499 123.771 172.676 123.771C174.602 123.771 176.099 124.405 177.167 125.674C178.235 126.943 178.769 128.759 178.769 131.123V132.178H168.733C168.77 133.638 169.194 134.82 170.007 135.724C170.828 136.618 171.869 137.066 173.128 137.066C174.023 137.066 174.78 136.883 175.401 136.518C176.022 136.153 176.565 135.669 177.03 135.067L178.577 136.271C177.336 138.179 175.474 139.133 172.991 139.133ZM172.676 125.852C171.654 125.852 170.796 126.226 170.102 126.975C169.409 127.714 168.98 128.755 168.815 130.097H176.236V129.905C176.163 128.618 175.816 127.623 175.196 126.92C174.575 126.208 173.735 125.852 172.676 125.852ZM193.857 124.045V138.859H191.311V126.14H186.272L185.971 131.685C185.807 134.231 185.378 136.052 184.684 137.148C183.999 138.243 182.909 138.813 181.412 138.859H180.398V136.627L181.124 136.573C181.946 136.481 182.534 136.007 182.89 135.149C183.246 134.291 183.474 132.702 183.575 130.384L183.849 124.045H193.857ZM200.689 129.152H204.537C206.216 129.17 207.544 129.608 208.521 130.466C209.498 131.324 209.986 132.488 209.986 133.958C209.986 135.436 209.484 136.623 208.48 137.517C207.476 138.412 206.125 138.859 204.427 138.859H198.156V124.045H200.689V129.152ZM200.689 131.219V136.792H204.455C205.404 136.792 206.139 136.55 206.659 136.066C207.179 135.573 207.439 134.902 207.439 134.053C207.439 133.232 207.184 132.561 206.673 132.041C206.171 131.511 205.463 131.237 204.55 131.219H200.689ZM232.207 138.859H229.674V132.534H222.87V138.859H220.323V124.045H222.87V130.466H229.674V124.045H232.207V138.859ZM245.433 138.859C245.287 138.567 245.169 138.047 245.078 137.298C243.9 138.521 242.494 139.133 240.86 139.133C239.4 139.133 238.2 138.722 237.26 137.901C236.329 137.07 235.863 136.02 235.863 134.752C235.863 133.209 236.447 132.013 237.616 131.164C238.793 130.306 240.445 129.877 242.572 129.877H245.036V128.714C245.036 127.828 244.772 127.125 244.242 126.605C243.713 126.076 242.932 125.811 241.901 125.811C240.997 125.811 240.24 126.039 239.628 126.496C239.017 126.952 238.711 127.504 238.711 128.152H236.164C236.164 127.413 236.424 126.701 236.945 126.016C237.474 125.323 238.186 124.775 239.081 124.373C239.984 123.972 240.975 123.771 242.052 123.771C243.759 123.771 245.096 124.2 246.063 125.058C247.031 125.907 247.533 127.08 247.569 128.577V135.395C247.569 136.755 247.743 137.837 248.09 138.64V138.859H245.433ZM241.23 136.929C242.024 136.929 242.777 136.723 243.489 136.312C244.201 135.902 244.717 135.368 245.036 134.711V131.671H243.051C239.948 131.671 238.396 132.579 238.396 134.396C238.396 135.19 238.661 135.81 239.19 136.258C239.72 136.705 240.4 136.929 241.23 136.929ZM262.329 126.099H257.359V138.859H254.826V126.099H249.952V124.045H262.329V126.099ZM269.805 135.149L273.255 124.045H275.966L270.01 141.146C269.088 143.61 267.623 144.842 265.615 144.842L265.136 144.801L264.191 144.623V142.57L264.876 142.624C265.734 142.624 266.4 142.451 266.875 142.104C267.358 141.757 267.755 141.123 268.066 140.201L268.627 138.695L263.342 124.045H266.108L269.805 135.149ZM290.753 131.616C290.753 133.871 290.237 135.687 289.206 137.066C288.174 138.444 286.778 139.133 285.016 139.133C283.218 139.133 281.803 138.562 280.771 137.422V144.555H278.239V124.045H280.552L280.676 125.688C281.707 124.41 283.14 123.771 284.975 123.771C286.755 123.771 288.16 124.442 289.192 125.784C290.232 127.125 290.753 128.992 290.753 131.384V131.616ZM288.22 131.329C288.22 129.658 287.864 128.339 287.152 127.372C286.44 126.404 285.463 125.921 284.222 125.921C282.688 125.921 281.538 126.601 280.771 127.961V135.039C281.529 136.39 282.688 137.066 284.249 137.066C285.463 137.066 286.426 136.586 287.138 135.628C287.859 134.66 288.22 133.227 288.22 131.329ZM303.13 138.859C302.984 138.567 302.865 138.047 302.774 137.298C301.596 138.521 300.191 139.133 298.557 139.133C297.096 139.133 295.896 138.722 294.956 137.901C294.025 137.07 293.559 136.02 293.559 134.752C293.559 133.209 294.144 132.013 295.312 131.164C296.489 130.306 298.142 129.877 300.268 129.877H302.733V128.714C302.733 127.828 302.468 127.125 301.939 126.605C301.409 126.076 300.629 125.811 299.597 125.811C298.694 125.811 297.936 126.039 297.325 126.496C296.713 126.952 296.407 127.504 296.407 128.152H293.861C293.861 127.413 294.121 126.701 294.641 126.016C295.17 125.323 295.882 124.775 296.777 124.373C297.681 123.972 298.671 123.771 299.748 123.771C301.455 123.771 302.792 124.2 303.76 125.058C304.727 125.907 305.229 127.08 305.266 128.577V135.395C305.266 136.755 305.439 137.837 305.786 138.64V138.859H303.13ZM298.927 136.929C299.721 136.929 300.474 136.723 301.186 136.312C301.898 135.902 302.413 135.368 302.733 134.711V131.671H300.748C297.644 131.671 296.092 132.579 296.092 134.396C296.092 135.19 296.357 135.81 296.886 136.258C297.416 136.705 298.096 136.929 298.927 136.929ZM321.381 124.045V138.859H318.834V126.14H313.796L313.494 131.685C313.33 134.231 312.901 136.052 312.207 137.148C311.523 138.243 310.432 138.813 308.935 138.859H307.922V136.627L308.648 136.573C309.469 136.481 310.058 136.007 310.414 135.149C310.77 134.291 310.998 132.702 311.098 130.384L311.372 124.045H321.381ZM328.213 129.152H332.06C333.74 129.17 335.068 129.608 336.044 130.466C337.021 131.324 337.509 132.488 337.509 133.958C337.509 135.436 337.007 136.623 336.003 137.517C334.999 138.412 333.648 138.859 331.951 138.859H325.68V124.045H328.213V129.152ZM328.213 131.219V136.792H331.978C332.927 136.792 333.662 136.55 334.182 136.066C334.703 135.573 334.963 134.902 334.963 134.053C334.963 133.232 334.707 132.561 334.196 132.041C333.694 131.511 332.987 131.237 332.074 131.219H328.213ZM352.776 138.859H350.243V132.534H343.438V138.859H340.891V124.045H343.438V130.466H350.243V124.045H352.776V138.859ZM356.185 131.315C356.185 129.864 356.468 128.558 357.034 127.399C357.609 126.24 358.403 125.346 359.416 124.716C360.438 124.086 361.602 123.771 362.907 123.771C364.925 123.771 366.554 124.469 367.795 125.866C369.046 127.262 369.671 129.12 369.671 131.438V131.616C369.671 133.058 369.393 134.355 368.836 135.505C368.288 136.646 367.499 137.536 366.467 138.175C365.445 138.813 364.267 139.133 362.935 139.133C360.927 139.133 359.297 138.435 358.047 137.038C356.805 135.642 356.185 133.793 356.185 131.493V131.315ZM358.731 131.616C358.731 133.259 359.11 134.578 359.868 135.573C360.635 136.568 361.657 137.066 362.935 137.066C364.222 137.066 365.244 136.564 366.002 135.559C366.759 134.546 367.138 133.131 367.138 131.315C367.138 129.69 366.75 128.376 365.974 127.372C365.208 126.359 364.185 125.852 362.907 125.852C361.657 125.852 360.648 126.35 359.881 127.345C359.115 128.339 358.731 129.763 358.731 131.616ZM382.432 124.045H384.964V138.859H382.432V128.056L375.599 138.859H373.066V124.045H375.599V134.861L382.432 124.045ZM383.116 118.65C383.116 119.755 382.737 120.645 381.98 121.32C381.231 121.987 380.245 122.32 379.022 122.32C377.799 122.32 376.809 121.982 376.051 121.307C375.294 120.631 374.915 119.746 374.915 118.65H376.982C376.982 119.289 377.156 119.791 377.503 120.156C377.849 120.512 378.356 120.69 379.022 120.69C379.661 120.69 380.159 120.512 380.515 120.156C380.88 119.8 381.062 119.298 381.062 118.65H383.116ZM404.516 135.505L409.555 124.045H412.717V138.859H410.184V128.084L405.392 138.859H403.64L398.752 127.851V138.859H396.219V124.045H399.505L404.516 135.505ZM422.945 139.133C420.937 139.133 419.303 138.476 418.043 137.161C416.784 135.838 416.154 134.072 416.154 131.863V131.397C416.154 129.928 416.432 128.618 416.989 127.468C417.555 126.309 418.34 125.405 419.344 124.757C420.357 124.1 421.453 123.771 422.63 123.771C424.556 123.771 426.053 124.405 427.121 125.674C428.189 126.943 428.723 128.759 428.723 131.123V132.178H418.687C418.723 133.638 419.148 134.82 419.96 135.724C420.782 136.618 421.822 137.066 423.082 137.066C423.976 137.066 424.734 136.883 425.355 136.518C425.975 136.153 426.518 135.669 426.984 135.067L428.531 136.271C427.29 138.179 425.428 139.133 422.945 139.133ZM422.63 125.852C421.608 125.852 420.75 126.226 420.056 126.975C419.362 127.714 418.933 128.755 418.769 130.097H426.19V129.905C426.117 128.618 425.77 127.623 425.149 126.92C424.529 126.208 423.689 125.852 422.63 125.852ZM438.17 124.894C440.032 124.894 441.52 125.519 442.633 126.769C443.756 128.011 444.317 129.649 444.317 131.685V131.917C444.317 133.314 444.048 134.565 443.51 135.669C442.971 136.764 442.195 137.618 441.182 138.229C440.178 138.832 439.019 139.133 437.704 139.133C435.715 139.133 434.113 138.471 432.899 137.148C431.685 135.815 431.078 134.031 431.078 131.794V130.562C431.078 127.449 431.653 124.976 432.803 123.141C433.962 121.307 435.669 120.188 437.924 119.787C439.201 119.559 440.064 119.28 440.511 118.952C440.958 118.623 441.182 118.171 441.182 117.596H443.263C443.263 118.737 443.003 119.627 442.483 120.266C441.972 120.905 441.15 121.357 440.018 121.621L438.129 122.046C436.623 122.402 435.491 123.004 434.733 123.853C433.985 124.693 433.497 125.816 433.268 127.221C434.61 125.67 436.244 124.894 438.17 124.894ZM437.677 126.975C436.436 126.975 435.45 127.395 434.72 128.234C433.989 129.065 433.624 130.22 433.624 131.698V131.917C433.624 133.506 433.989 134.765 434.72 135.696C435.459 136.618 436.454 137.079 437.704 137.079C438.964 137.079 439.959 136.614 440.689 135.683C441.419 134.752 441.785 133.392 441.785 131.603C441.785 130.206 441.415 129.088 440.676 128.248C439.945 127.399 438.946 126.975 437.677 126.975ZM453.313 139.133C451.305 139.133 449.671 138.476 448.411 137.161C447.152 135.838 446.522 134.072 446.522 131.863V131.397C446.522 129.928 446.8 128.618 447.357 127.468C447.923 126.309 448.708 125.405 449.712 124.757C450.725 124.1 451.82 123.771 452.998 123.771C454.924 123.771 456.421 124.405 457.489 125.674C458.557 126.943 459.091 128.759 459.091 131.123V132.178H449.055C449.091 133.638 449.516 134.82 450.328 135.724C451.15 136.618 452.19 137.066 453.45 137.066C454.344 137.066 455.102 136.883 455.723 136.518C456.343 136.153 456.886 135.669 457.352 135.067L458.899 136.271C457.658 138.179 455.796 139.133 453.313 139.133ZM452.998 125.852C451.976 125.852 451.118 126.226 450.424 126.975C449.73 127.714 449.301 128.755 449.137 130.097H456.558V129.905C456.485 128.618 456.138 127.623 455.517 126.92C454.897 126.208 454.057 125.852 452.998 125.852ZM474.179 124.045V138.859H471.632V126.14H466.594L466.292 131.685C466.128 134.231 465.699 136.052 465.005 137.148C464.321 138.243 463.23 138.813 461.733 138.859H460.72V136.627L461.446 136.573C462.267 136.481 462.856 136.007 463.212 135.149C463.568 134.291 463.796 132.702 463.896 130.384L464.17 124.045H474.179ZM487.829 124.045H490.362V138.859H487.829V128.056L480.997 138.859H478.464V124.045H480.997V134.861L487.829 124.045Z" fill="#999999"/>
</svg>
