<svg width="208" height="208" viewBox="0 0 208 208" fill="none" xmlns="http://www.w3.org/2000/svg">
<path d="M104.045 86.9325L78.2159 18.8001L37.7882 0.929321L0.729393 120.44L23.1893 130.492L104.045 86.9325Z" fill="#FFA800"/>
<path d="M104.045 86.9325L129.874 18.8001L170.301 0.929321L207.36 120.44L184.9 130.492L104.045 86.9325Z" fill="#FFE500"/>
<path d="M104.045 86.9325L124.259 33.3202L166.932 48.9571L205.114 206.443L162.44 188.573L146.719 122.674L124.259 172.936L104.045 164V86.9325Z" fill="#FFA800"/>
<path d="M104.045 164L87.1997 172.936L62.4939 119.323L44.526 188.573L2.97522 207.56L38.911 48.9571L83.8308 34.4371L104.045 86.9326V164Z" fill="#FFE600"/>
</svg>
