<svg width="46" height="36" fill="none" xmlns="http://www.w3.org/2000/svg"><path d="M12.888 24.13h.001l.005-.001h21.247c.523 0 .983-.346 1.126-.846L39.955 6.95c.1-.353.03-.731-.191-1.023a1.174 1.174 0 0 0-.936-.465H10.185L9.347 1.71A1.17 1.17 0 0 0 8.203.796H1.172A1.17 1.17 0 0 0 0 1.962 1.17 1.17 0 0 0 1.172 3.13h6.091l4.231 18.955a3.505 3.505 0 0 0-2.119 3.212c0 1.93 1.577 3.5 3.516 3.5h21.25a1.17 1.17 0 0 0 1.172-1.167 1.17 1.17 0 0 0-1.172-1.167H12.89a1.17 1.17 0 0 1-1.172-1.166 1.17 1.17 0 0 1 1.169-1.167zM37.275 7.795l-4.018 14H13.83l-3.125-14h26.569zM11 32.5c0 1.93 1.57 3.5 3.5 3.5s3.5-1.57 3.5-3.5-1.57-3.5-3.5-3.5-3.5 1.57-3.5 3.5zm3.5-1.167c.643 0 1.167.524 1.167 1.167s-.524 1.167-1.167 1.167a1.168 1.168 0 0 1-1.167-1.167c0-.643.524-1.167 1.167-1.167zM28 32.5c0 1.93 1.57 3.5 3.5 3.5s3.5-1.57 3.5-3.5-1.57-3.5-3.5-3.5-3.5 1.57-3.5 3.5zm3.5-1.167c.643 0 1.167.524 1.167 1.167s-.524 1.167-1.167 1.167a1.168 1.168 0 0 1-1.167-1.167c0-.643.524-1.167 1.167-1.167z" fill="#3E3E3E"/></svg>