<svg width="68" height="76" viewBox="0 0 68 76" fill="none" xmlns="http://www.w3.org/2000/svg">
<g opacity="0.7">
<path d="M60 0.5H8C3.85786 0.5 0.5 3.85786 0.5 8V68C0.5 72.1421 3.85786 75.5 8 75.5H60C64.1421 75.5 67.5 72.1421 67.5 68V8C67.5 3.85786 64.1421 0.5 60 0.5Z" fill="#5CA3FD" stroke="#5CA3FD"/>
<path d="M51.1604 25.4066C50.8235 25.2136 50.3939 25.3304 50.201 25.6673C50.008 26.0046 50.1251 26.4338 50.4621 26.6268C54.356 28.8556 56.5002 31.7296 56.5002 34.719C56.5002 40.5293 48.3106 45.601 37.4502 46.5161C37.0635 46.5487 36.7764 46.8889 36.8086 47.2757C36.8397 47.6426 37.147 47.9198 37.5084 47.9198C37.5282 47.9198 37.5483 47.9191 37.5685 47.9173C43.1111 47.4503 48.2055 45.9101 51.9137 43.5806C55.778 41.153 57.9064 38.0061 57.9064 34.719C57.9064 31.2037 55.5107 27.8965 51.1604 25.4066Z" fill="white"/>
<path d="M34.4941 47.7521C34.4981 47.7459 34.5018 47.7396 34.5054 47.7334C34.5149 47.718 34.5237 47.7023 34.5322 47.6862C34.5358 47.6792 34.5387 47.6723 34.542 47.6653C34.5497 47.6492 34.5567 47.6327 34.5629 47.6162C34.5658 47.6089 34.5684 47.602 34.571 47.5946C34.5768 47.5774 34.582 47.5602 34.5863 47.5423C34.5882 47.5353 34.5904 47.528 34.5922 47.5207C34.5962 47.502 34.5992 47.4833 34.6017 47.4643C34.6028 47.4577 34.6043 47.4511 34.605 47.4445C34.6076 47.4192 34.6094 47.3932 34.6094 47.3672C34.6094 47.3408 34.6076 47.3152 34.605 47.2896C34.6043 47.283 34.6028 47.2768 34.6017 47.2702C34.5992 47.2508 34.5962 47.2321 34.5922 47.2134C34.5904 47.2061 34.5882 47.1991 34.5863 47.1918C34.582 47.1742 34.5768 47.1566 34.571 47.1394C34.5684 47.1321 34.5658 47.1251 34.5629 47.1178C34.5567 47.101 34.5497 47.0849 34.542 47.0687C34.5387 47.0618 34.5354 47.0548 34.5322 47.0479C34.5237 47.0314 34.5149 47.016 34.5054 47.0003C34.5018 46.9944 34.4981 46.9882 34.4941 46.982C34.4823 46.9636 34.4692 46.9461 34.4556 46.9289C34.4538 46.9263 34.4519 46.9237 34.4498 46.9212C34.434 46.9018 34.4172 46.8834 34.3992 46.8662C34.3941 46.8611 34.3886 46.8567 34.3835 46.8516C34.3699 46.8391 34.3564 46.8274 34.3421 46.8161C34.3395 46.8139 34.3373 46.8113 34.3348 46.8095L30.6415 43.9721C30.3339 43.7355 29.8922 43.7937 29.6557 44.1013C29.4191 44.4093 29.477 44.8506 29.7849 45.0872L31.7673 46.6103C26.4696 46.3462 21.5613 45.104 17.7684 43.0448C13.605 40.7846 11.3125 37.8278 11.3125 34.719C11.3125 31.7296 13.4567 28.8556 17.3506 26.6268C17.6875 26.4338 17.8043 26.0046 17.6117 25.6673C17.4187 25.3304 16.9891 25.2136 16.6522 25.4066C12.302 27.8965 9.90625 31.2037 9.90625 34.719C9.90625 38.3672 12.4602 41.7631 17.0975 44.2804C21.12 46.4641 26.3151 47.7704 31.8976 48.0238L29.7849 49.6469C29.477 49.8834 29.4191 50.3247 29.6557 50.6327C29.7941 50.8129 30.0028 50.9074 30.2138 50.9074C30.3632 50.9074 30.5141 50.8601 30.6415 50.762L34.3348 47.9246C34.3373 47.9224 34.3395 47.9202 34.3421 47.918C34.3564 47.9066 34.3699 47.8949 34.3835 47.8825C34.3886 47.8777 34.3941 47.8729 34.3992 47.8682C34.4172 47.8506 34.434 47.8323 34.4498 47.8129C34.4519 47.8103 34.4538 47.8078 34.4556 47.8052C34.4692 47.788 34.482 47.7704 34.4941 47.7521Z" fill="white"/>
<path d="M19.7654 31.4982L33.5873 38.5397C33.5946 38.5438 33.6023 38.5463 33.6096 38.5496C33.6206 38.5547 33.6316 38.5595 33.6426 38.5643C33.6602 38.5712 33.6781 38.5774 33.6961 38.5833C33.7071 38.5866 33.7177 38.5903 33.7287 38.5928C33.7484 38.598 33.7686 38.602 33.7887 38.6053C33.7982 38.6071 33.8074 38.6093 33.8169 38.6104C33.8466 38.6141 33.8763 38.6166 33.9063 38.6166C33.9359 38.6166 33.9656 38.6141 33.9956 38.6104C34.0048 38.6093 34.0143 38.6071 34.0238 38.6053C34.044 38.602 34.0638 38.5983 34.0839 38.5928C34.0949 38.5903 34.1055 38.5866 34.1165 38.5833C34.1344 38.5774 34.1524 38.5712 34.17 38.5643C34.1809 38.5595 34.1919 38.5547 34.2029 38.5496C34.2106 38.5463 34.2179 38.5438 34.2256 38.5397L48.0472 31.4982C48.2827 31.3781 48.431 31.136 48.431 30.8716V28.047C48.431 27.6588 48.1164 27.3439 47.7278 27.3439C47.3397 27.3439 47.0247 27.6588 47.0247 28.047V30.441L34.6094 36.7662V22.4671L47.0247 16.1419V25.2349C47.0247 25.6231 47.3397 25.938 47.7278 25.938C48.1164 25.938 48.431 25.6231 48.431 25.2349V14.9945C48.431 14.9627 48.4288 14.9312 48.4244 14.9C48.4229 14.8894 48.4203 14.8795 48.4185 14.8689C48.4149 14.8488 48.4112 14.8286 48.4057 14.8088C48.4024 14.7968 48.3976 14.785 48.3936 14.7733C48.3881 14.7557 48.3823 14.7382 48.3749 14.7213C48.3698 14.7092 48.364 14.6975 48.3581 14.6858C48.3504 14.6697 48.3423 14.6539 48.3336 14.6389C48.3266 14.6272 48.3189 14.6162 48.3116 14.6049C48.3021 14.5906 48.2922 14.5763 48.2816 14.5627C48.2731 14.5518 48.264 14.5415 48.2552 14.5313C48.2438 14.5181 48.2321 14.5056 48.22 14.4935C48.2098 14.4836 48.1995 14.4745 48.1889 14.4653C48.1761 14.454 48.1625 14.4434 48.149 14.4331C48.1376 14.4243 48.1259 14.4163 48.1138 14.4082C48.1076 14.4038 48.1017 14.3991 48.0952 14.395C48.0867 14.3899 48.0776 14.3859 48.0688 14.3811C48.0615 14.3771 48.0549 14.372 48.0472 14.3679L34.2253 7.32639C34.0249 7.22421 33.7876 7.22421 33.5869 7.32639L31.5988 8.33933C31.2527 8.51584 31.115 8.93918 31.2912 9.28489C31.4677 9.63096 31.8907 9.76865 32.2367 9.59251L33.9063 8.7418L46.1791 14.9945L45.4105 15.3864L33.9063 21.2472L22.4021 15.3864L21.6334 14.9945L29.7227 10.8732C30.0687 10.697 30.2064 10.2737 30.0303 9.92759C29.8538 9.58152 29.4304 9.44382 29.0847 9.62034L19.7654 14.3679C19.7581 14.372 19.7511 14.3771 19.7438 14.3811C19.735 14.3859 19.7258 14.3899 19.7174 14.395C19.7108 14.3991 19.7053 14.4038 19.6987 14.4082C19.6866 14.4159 19.6753 14.4243 19.6636 14.4331C19.65 14.4434 19.6365 14.454 19.6237 14.4653C19.613 14.4745 19.6028 14.4836 19.5929 14.4935C19.5804 14.5056 19.5691 14.5181 19.5577 14.5313C19.5486 14.5415 19.5394 14.5518 19.531 14.5627C19.5204 14.5763 19.5105 14.5906 19.501 14.6049C19.4937 14.6162 19.486 14.6272 19.479 14.6389C19.4702 14.6539 19.4625 14.67 19.4545 14.6858C19.4486 14.6975 19.4427 14.7092 19.4376 14.721C19.4303 14.7382 19.4248 14.7557 19.4189 14.7733C19.4149 14.785 19.4105 14.7964 19.4072 14.8085C19.4017 14.8286 19.3981 14.8488 19.3944 14.8693C19.3926 14.8795 19.3896 14.8894 19.3882 14.9C19.3842 14.9312 19.3816 14.9627 19.3816 14.9945V20.3643C19.3816 20.7528 19.6965 21.0674 20.0847 21.0674C20.4729 21.0674 20.7878 20.7528 20.7878 20.3643V16.1419L33.2032 22.4671V36.7662L20.7878 30.441V23.1768C20.7878 22.7882 20.4729 22.4737 20.0847 22.4737C19.6965 22.4737 19.3816 22.7882 19.3816 23.1768V30.8716C19.3816 31.136 19.5299 31.3781 19.7654 31.4982Z" fill="white"/>
<path d="M27.2071 67.1621C26.1631 67.1621 25.2751 66.9461 24.5431 66.5141C23.8231 66.0821 23.3191 65.4641 23.0311 64.6601L24.3091 63.0761C24.3451 63.2441 24.4291 63.4361 24.5611 63.6521C24.6931 63.8561 24.8731 64.0601 25.1011 64.2641C25.3411 64.4561 25.6291 64.6181 25.9651 64.7501C26.3131 64.8821 26.7151 64.9481 27.1711 64.9481C27.4831 64.9481 27.7771 64.9121 28.0531 64.8401C28.3411 64.7561 28.5931 64.6421 28.8091 64.4981C29.0251 64.3541 29.1931 64.1801 29.3131 63.9761C29.4451 63.7601 29.5111 63.5141 29.5111 63.2381C29.5111 62.6261 29.1871 62.1701 28.5391 61.8701C27.8911 61.5701 26.9851 61.4201 25.8211 61.4201H25.2271V59.4041H25.8211C26.3011 59.4041 26.7451 59.3741 27.1531 59.3141C27.5611 59.2421 27.9151 59.1401 28.2151 59.0081C28.5151 58.8641 28.7491 58.6841 28.9171 58.4681C29.0851 58.2521 29.1691 57.9941 29.1691 57.6941C29.1691 57.4301 29.1091 57.2021 28.9891 57.0101C28.8811 56.8181 28.7371 56.6621 28.5571 56.5421C28.3771 56.4221 28.1731 56.3321 27.9451 56.2721C27.7291 56.2121 27.5131 56.1821 27.2971 56.1821C26.9371 56.1821 26.6071 56.2301 26.3071 56.3261C26.0071 56.4101 25.7431 56.5241 25.5151 56.6681C25.2871 56.8001 25.0891 56.9561 24.9211 57.1361C24.7651 57.3041 24.6391 57.4721 24.5431 57.6401L22.9951 55.8941C23.1991 55.6061 23.4571 55.3481 23.7691 55.1201C24.0811 54.8921 24.4291 54.7001 24.8131 54.5441C25.1971 54.3881 25.5991 54.2681 26.0191 54.1841C26.4391 54.1001 26.8591 54.0581 27.2791 54.0581C27.9271 54.0581 28.5211 54.1481 29.0611 54.3281C29.6131 54.5081 30.0871 54.7601 30.4831 55.0841C30.8791 55.3961 31.1851 55.7681 31.4011 56.2001C31.6291 56.6201 31.7431 57.0761 31.7431 57.5681C31.7431 58.2881 31.5271 58.8821 31.0951 59.3501C30.6631 59.8061 30.0751 60.1181 29.3311 60.2861C29.7391 60.3581 30.1051 60.4961 30.4291 60.7001C30.7651 60.8921 31.0471 61.1381 31.2751 61.4381C31.5151 61.7261 31.6951 62.0561 31.8151 62.4281C31.9471 62.7881 32.0131 63.1661 32.0131 63.5621C32.0131 64.1741 31.8751 64.7081 31.5991 65.1641C31.3231 65.6081 30.9571 65.9801 30.5011 66.2801C30.0571 66.5681 29.5471 66.7901 28.9711 66.9461C28.3951 67.0901 27.8071 67.1621 27.2071 67.1621ZM34.1544 67.0001V54.2201H38.7984C39.8424 54.2201 40.7544 54.3881 41.5344 54.7241C42.3264 55.0601 42.9864 55.5161 43.5144 56.0921C44.0424 56.6681 44.4384 57.3461 44.7024 58.1261C44.9664 58.8941 45.0984 59.7161 45.0984 60.5921C45.0984 61.5641 44.9484 62.4461 44.6484 63.2381C44.3604 64.0181 43.9404 64.6901 43.3884 65.2541C42.8364 65.8061 42.1704 66.2381 41.3904 66.5501C40.6224 66.8501 39.7584 67.0001 38.7984 67.0001H34.1544ZM42.5964 60.5921C42.5964 59.9801 42.5124 59.4161 42.3444 58.9001C42.1764 58.3841 41.9304 57.9401 41.6064 57.5681C41.2824 57.1961 40.8804 56.9081 40.4004 56.7041C39.9324 56.5001 39.3984 56.3981 38.7984 56.3981H36.6384V64.8221H38.7984C39.4104 64.8221 39.9504 64.7141 40.4184 64.4981C40.8984 64.2821 41.2944 63.9881 41.6064 63.6161C41.9304 63.2321 42.1764 62.7821 42.3444 62.2661C42.5124 61.7501 42.5964 61.1921 42.5964 60.5921Z" fill="white"/>
</g>
</svg>
