<svg width="68" height="76" viewBox="0 0 68 76" fill="none" xmlns="http://www.w3.org/2000/svg">
<g opacity="0.7">
<rect width="68" height="76" rx="5" fill="#5CA3FD"/>
<path d="M21.4936 64.452C21.4936 64.8813 21.4049 65.2547 21.2276 65.572C21.0502 65.8893 20.8076 66.1553 20.4996 66.37C20.1916 66.5753 19.8322 66.734 19.4216 66.846C19.0109 66.9487 18.5769 67 18.1196 67H13.2756V57.06H18.8056C19.1509 57.06 19.4636 57.1347 19.7436 57.284C20.0236 57.4333 20.2616 57.6293 20.4576 57.872C20.6536 58.1053 20.8029 58.376 20.9056 58.684C21.0176 58.9827 21.0736 59.2907 21.0736 59.608C21.0736 60.084 20.9522 60.532 20.7096 60.952C20.4762 61.372 20.1216 61.6893 19.6456 61.904C20.2149 62.072 20.6629 62.3707 20.9896 62.8C21.3256 63.2293 21.4936 63.78 21.4936 64.452ZM19.1556 63.99C19.1556 63.682 19.0669 63.4207 18.8896 63.206C18.7122 62.9913 18.4882 62.884 18.2176 62.884H15.5716V65.054H18.1196C18.4182 65.054 18.6656 64.956 18.8616 64.76C19.0576 64.564 19.1556 64.3073 19.1556 63.99ZM15.5716 59.02V61.078H17.8256C18.0776 61.078 18.3016 60.994 18.4976 60.826C18.6936 60.658 18.7916 60.3967 18.7916 60.042C18.7916 59.7153 18.7029 59.4633 18.5256 59.286C18.3576 59.1087 18.1522 59.02 17.9096 59.02H15.5716ZM25.0142 63.794L28.2202 59.65H29.8302V67H27.5902V62.982L24.4262 67H22.7882V59.65H25.0142V63.794ZM30.8269 65.054H31.2049C31.4195 65.0353 31.5969 64.984 31.7369 64.9C31.8862 64.8067 32.0122 64.648 32.1149 64.424C32.2175 64.2 32.3015 63.8967 32.3669 63.514C32.4322 63.1313 32.4975 62.6413 32.5629 62.044L32.8149 59.65H38.2889V65.054H39.3389V68.974H37.3369V67H32.7589V68.974H30.8269V65.054ZM36.0629 65.054V61.568H34.7469L34.6489 62.394C34.5742 63.0007 34.4762 63.514 34.3549 63.934C34.2335 64.354 34.0795 64.7273 33.8929 65.054H36.0629ZM43.9383 67.14C43.3223 67.14 42.767 67.042 42.2723 66.846C41.787 66.6407 41.3716 66.3653 41.0263 66.02C40.6903 65.6747 40.4336 65.278 40.2563 64.83C40.079 64.3727 39.9903 63.8967 39.9903 63.402C39.9903 62.87 40.079 62.3707 40.2563 61.904C40.4336 61.428 40.6903 61.0127 41.0263 60.658C41.3623 60.3033 41.773 60.0233 42.2583 59.818C42.753 59.6127 43.313 59.51 43.9383 59.51C44.5636 59.51 45.119 59.6127 45.6043 59.818C46.0896 60.0233 46.5003 60.3033 46.8363 60.658C47.1723 61.0033 47.4243 61.4047 47.5923 61.862C47.7696 62.3193 47.8583 62.8 47.8583 63.304C47.8583 63.4347 47.8536 63.5653 47.8443 63.696C47.835 63.8173 47.821 63.9247 47.8023 64.018H42.3703C42.4076 64.5127 42.585 64.8907 42.9023 65.152C43.229 65.404 43.5976 65.53 44.0083 65.53C44.335 65.53 44.6476 65.4507 44.9463 65.292C45.2543 65.1333 45.4596 64.9187 45.5623 64.648L47.4663 65.18C47.177 65.7587 46.729 66.23 46.1223 66.594C45.5156 66.958 44.7876 67.14 43.9383 67.14ZM45.4923 62.632C45.4456 62.1653 45.2776 61.7967 44.9883 61.526C44.699 61.2553 44.3396 61.12 43.9103 61.12C43.4716 61.12 43.1076 61.26 42.8183 61.54C42.5383 61.8107 42.375 62.1747 42.3283 62.632H45.4923ZM52.3735 67.14C51.7482 67.14 51.1882 67.0373 50.6935 66.832C50.2082 66.6267 49.7975 66.3513 49.4615 66.006C49.1255 65.6513 48.8688 65.2453 48.6915 64.788C48.5235 64.3213 48.4395 63.836 48.4395 63.332C48.4395 62.828 48.5235 62.3473 48.6915 61.89C48.8688 61.4233 49.1255 61.0173 49.4615 60.672C49.7975 60.3173 50.2082 60.0373 50.6935 59.832C51.1882 59.6173 51.7482 59.51 52.3735 59.51C52.9988 59.51 53.5542 59.6173 54.0395 59.832C54.5248 60.0373 54.9355 60.3173 55.2715 60.672C55.6075 61.0173 55.8642 61.4233 56.0415 61.89C56.2188 62.3473 56.3075 62.828 56.3075 63.332C56.3075 63.836 56.2188 64.3213 56.0415 64.788C55.8735 65.2453 55.6215 65.6513 55.2855 66.006C54.9495 66.3513 54.5342 66.6267 54.0395 66.832C53.5542 67.0373 52.9988 67.14 52.3735 67.14ZM50.7355 63.332C50.7355 63.9107 50.8895 64.3773 51.1975 64.732C51.5055 65.0773 51.8975 65.25 52.3735 65.25C52.6068 65.25 52.8215 65.2033 53.0175 65.11C53.2135 65.0167 53.3815 64.886 53.5215 64.718C53.6708 64.55 53.7875 64.3493 53.8715 64.116C53.9555 63.8733 53.9975 63.612 53.9975 63.332C53.9975 62.7533 53.8435 62.2913 53.5355 61.946C53.2275 61.5913 52.8402 61.414 52.3735 61.414C52.1402 61.414 51.9208 61.4607 51.7155 61.554C51.5195 61.6473 51.3468 61.778 51.1975 61.946C51.0575 62.114 50.9455 62.3193 50.8615 62.562C50.7775 62.7953 50.7355 63.052 50.7355 63.332Z" fill="white"/>
<path d="M52.6759 19.3882C51.2053 16.536 49.0606 14.0173 46.474 12.1045C46.0944 11.8239 45.5593 11.9041 45.2786 12.2836C44.9978 12.6631 45.0781 13.1983 45.4576 13.479C47.8347 15.2368 49.8053 17.5511 51.1567 20.1717C52.5727 22.9177 53.2906 25.8879 53.2906 29.0001C53.2906 39.637 44.6368 48.2907 34 48.2907C23.3632 48.2907 14.7094 39.637 14.7094 29C14.7094 18.363 23.3632 9.70939 34 9.70939C34.4719 9.70939 34.8547 9.32663 34.8547 8.8547C34.8547 8.38276 34.4719 8 34 8C22.4206 8 13 17.4206 13 29C13 40.5794 22.4206 50 34 50C45.5794 50 55 40.5794 55 29C55 25.6604 54.1964 22.3368 52.6759 19.3882Z" fill="white"/>
<path d="M28.6264 19.2489C28.3592 19.4009 28.1941 19.6846 28.1941 19.9919V38.7488C28.1941 39.2208 28.5769 39.6035 29.0488 39.6035C29.5207 39.6035 29.9035 39.2208 29.9035 38.7488V21.4955L42.5577 29.0286L33.2523 35.0239C32.8556 35.2796 32.7411 35.8085 32.9968 36.2052C33.2526 36.6021 33.7814 36.7166 34.1782 36.4607L44.6433 29.7182C44.892 29.5579 45.0401 29.2804 45.0349 28.9846C45.0296 28.6887 44.8718 28.4166 44.6175 28.2652L29.486 19.2574C29.2216 19.1003 28.8937 19.0969 28.6264 19.2489Z" fill="white"/>
</g>
</svg>
