<svg width="68" height="76" viewBox="0 0 68 76" fill="none" xmlns="http://www.w3.org/2000/svg">
<rect x="0.5" y="0.5" width="67" height="75" rx="7.5" stroke="#222222"/>
<g clip-path="url(#clip0)">
<path d="M51.1604 25.4068C50.8234 25.2138 50.3939 25.3306 50.2009 25.6675C50.0079 26.0048 50.1251 26.434 50.462 26.627C54.3559 28.8558 56.5001 31.7298 56.5001 34.7192C56.5001 40.5295 48.3105 45.6012 37.4501 46.5163C37.0634 46.5489 36.7763 46.8891 36.8085 47.2759C36.8397 47.6428 37.1469 47.92 37.5084 47.92C37.5281 47.92 37.5483 47.9193 37.5684 47.9175C43.111 47.4505 48.2054 45.9103 51.9137 43.5808C55.7779 41.1532 57.9063 38.0063 57.9063 34.7192C57.9063 31.2039 55.5106 27.8967 51.1604 25.4068Z" fill="#222222"/>
<path d="M34.4941 47.7523C34.4981 47.7461 34.5018 47.7398 34.5054 47.7336C34.5149 47.7182 34.5237 47.7025 34.5322 47.6864C34.5358 47.6794 34.5387 47.6725 34.542 47.6655C34.5497 47.6494 34.5567 47.6329 34.5629 47.6164C34.5658 47.6091 34.5684 47.6022 34.571 47.5948C34.5768 47.5776 34.582 47.5604 34.5863 47.5425C34.5882 47.5355 34.5904 47.5282 34.5922 47.5209C34.5962 47.5022 34.5992 47.4835 34.6017 47.4645C34.6028 47.4579 34.6043 47.4513 34.605 47.4447C34.6076 47.4194 34.6094 47.3934 34.6094 47.3674C34.6094 47.341 34.6076 47.3154 34.605 47.2898C34.6043 47.2832 34.6028 47.277 34.6017 47.2704C34.5992 47.251 34.5962 47.2323 34.5922 47.2136C34.5904 47.2063 34.5882 47.1993 34.5863 47.192C34.582 47.1744 34.5768 47.1568 34.571 47.1396C34.5684 47.1323 34.5658 47.1253 34.5629 47.118C34.5567 47.1012 34.5497 47.0851 34.542 47.0689C34.5387 47.062 34.5354 47.055 34.5322 47.0481C34.5237 47.0316 34.5149 47.0162 34.5054 47.0005C34.5018 46.9946 34.4981 46.9884 34.4941 46.9822C34.4823 46.9638 34.4692 46.9463 34.4556 46.9291C34.4538 46.9265 34.4519 46.9239 34.4498 46.9214C34.434 46.902 34.4172 46.8836 34.3992 46.8664C34.3941 46.8613 34.3886 46.8569 34.3835 46.8518C34.3699 46.8393 34.3564 46.8276 34.3421 46.8163C34.3395 46.8141 34.3373 46.8115 34.3348 46.8097L30.6415 43.9723C30.3339 43.7357 29.8922 43.7939 29.6557 44.1015C29.4191 44.4095 29.477 44.8508 29.7849 45.0874L31.7673 46.6105C26.4696 46.3464 21.5613 45.1042 17.7684 43.045C13.605 40.7848 11.3125 37.828 11.3125 34.7192C11.3125 31.7298 13.4567 28.8558 17.3506 26.627C17.6875 26.434 17.8043 26.0048 17.6117 25.6675C17.4187 25.3306 16.9891 25.2138 16.6522 25.4068C12.302 27.8967 9.90625 31.2039 9.90625 34.7192C9.90625 38.3674 12.4602 41.7633 17.0975 44.2806C21.12 46.4643 26.3151 47.7706 31.8976 48.024L29.7849 49.6471C29.477 49.8836 29.4191 50.3249 29.6557 50.6329C29.7941 50.8131 30.0028 50.9076 30.2138 50.9076C30.3632 50.9076 30.5141 50.8603 30.6415 50.7622L34.3348 47.9248C34.3373 47.9226 34.3395 47.9204 34.3421 47.9182C34.3564 47.9068 34.3699 47.8951 34.3835 47.8827C34.3886 47.8779 34.3941 47.8731 34.3992 47.8684C34.4172 47.8508 34.434 47.8325 34.4498 47.8131C34.4519 47.8105 34.4538 47.808 34.4556 47.8054C34.4692 47.7882 34.482 47.7706 34.4941 47.7523Z" fill="#222222"/>
<path d="M19.7654 31.4983L33.5873 38.5398C33.5946 38.5439 33.6023 38.5464 33.6096 38.5497C33.6206 38.5548 33.6316 38.5596 33.6426 38.5644C33.6602 38.5713 33.6781 38.5775 33.6961 38.5834C33.7071 38.5867 33.7177 38.5904 33.7287 38.5929C33.7484 38.5981 33.7686 38.6021 33.7887 38.6054C33.7982 38.6072 33.8074 38.6094 33.8169 38.6105C33.8466 38.6142 33.8763 38.6167 33.9063 38.6167C33.9359 38.6167 33.9656 38.6142 33.9956 38.6105C34.0048 38.6094 34.0143 38.6072 34.0238 38.6054C34.044 38.6021 34.0638 38.5984 34.0839 38.5929C34.0949 38.5904 34.1055 38.5867 34.1165 38.5834C34.1344 38.5775 34.1524 38.5713 34.17 38.5644C34.1809 38.5596 34.1919 38.5548 34.2029 38.5497C34.2106 38.5464 34.2179 38.5439 34.2256 38.5398L48.0472 31.4983C48.2827 31.3782 48.431 31.1361 48.431 30.8717V28.0471C48.431 27.6589 48.1164 27.344 47.7278 27.344C47.3397 27.344 47.0247 27.6589 47.0247 28.0471V30.4411L34.6094 36.7663V22.4672L47.0247 16.142V25.235C47.0247 25.6232 47.3397 25.9381 47.7278 25.9381C48.1164 25.9381 48.431 25.6232 48.431 25.235V14.9946C48.431 14.9628 48.4288 14.9313 48.4244 14.9001C48.4229 14.8895 48.4203 14.8796 48.4185 14.869C48.4149 14.8489 48.4112 14.8287 48.4057 14.8089C48.4024 14.7969 48.3976 14.7851 48.3936 14.7734C48.3881 14.7558 48.3823 14.7383 48.3749 14.7214C48.3698 14.7093 48.364 14.6976 48.3581 14.6859C48.3504 14.6698 48.3423 14.654 48.3336 14.639C48.3266 14.6273 48.3189 14.6163 48.3116 14.605C48.3021 14.5907 48.2922 14.5764 48.2816 14.5628C48.2731 14.5519 48.264 14.5416 48.2552 14.5314C48.2438 14.5182 48.2321 14.5057 48.22 14.4936C48.2098 14.4837 48.1995 14.4746 48.1889 14.4654C48.1761 14.4541 48.1625 14.4435 48.149 14.4332C48.1376 14.4244 48.1259 14.4164 48.1138 14.4083C48.1076 14.4039 48.1017 14.3992 48.0952 14.3951C48.0867 14.39 48.0776 14.386 48.0688 14.3812C48.0615 14.3772 48.0549 14.3721 48.0472 14.368L34.2253 7.32651C34.0249 7.22433 33.7876 7.22433 33.5869 7.32651L31.5988 8.33945C31.2527 8.51596 31.115 8.9393 31.2912 9.28501C31.4677 9.63108 31.8907 9.76877 32.2367 9.59263L33.9063 8.74192L46.1791 14.9946L45.4105 15.3865L33.9063 21.2473L22.4021 15.3865L21.6334 14.9946L29.7227 10.8733C30.0687 10.6971 30.2064 10.2738 30.0303 9.92771C29.8538 9.58164 29.4304 9.44394 29.0847 9.62046L19.7654 14.368C19.7581 14.3721 19.7511 14.3772 19.7438 14.3812C19.735 14.386 19.7258 14.39 19.7174 14.3951C19.7108 14.3992 19.7053 14.4039 19.6987 14.4083C19.6866 14.416 19.6753 14.4244 19.6636 14.4332C19.65 14.4435 19.6365 14.4541 19.6237 14.4654C19.613 14.4746 19.6028 14.4837 19.5929 14.4936C19.5804 14.5057 19.5691 14.5182 19.5577 14.5314C19.5486 14.5416 19.5394 14.5519 19.531 14.5628C19.5204 14.5764 19.5105 14.5907 19.501 14.605C19.4937 14.6163 19.486 14.6273 19.479 14.639C19.4702 14.654 19.4625 14.6701 19.4545 14.6859C19.4486 14.6976 19.4427 14.7093 19.4376 14.7211C19.4303 14.7383 19.4248 14.7558 19.4189 14.7734C19.4149 14.7851 19.4105 14.7965 19.4072 14.8086C19.4017 14.8287 19.3981 14.8489 19.3944 14.8694C19.3926 14.8796 19.3896 14.8895 19.3882 14.9001C19.3842 14.9313 19.3816 14.9628 19.3816 14.9946V20.3644C19.3816 20.7529 19.6965 21.0675 20.0847 21.0675C20.4729 21.0675 20.7878 20.7529 20.7878 20.3644V16.142L33.2032 22.4672V36.7663L20.7878 30.4411V23.1769C20.7878 22.7883 20.4729 22.4738 20.0847 22.4738C19.6965 22.4738 19.3816 22.7883 19.3816 23.1769V30.8717C19.3816 31.1361 19.5299 31.3782 19.7654 31.4983Z" fill="#222222"/>
</g>
<path d="M27.207 67.162C26.163 67.162 25.275 66.946 24.543 66.514C23.823 66.082 23.319 65.464 23.031 64.66L24.309 63.076C24.345 63.244 24.429 63.436 24.561 63.652C24.693 63.856 24.873 64.06 25.101 64.264C25.341 64.456 25.629 64.618 25.965 64.75C26.313 64.882 26.715 64.948 27.171 64.948C27.483 64.948 27.777 64.912 28.053 64.84C28.341 64.756 28.593 64.642 28.809 64.498C29.025 64.354 29.193 64.18 29.313 63.976C29.445 63.76 29.511 63.514 29.511 63.238C29.511 62.626 29.187 62.17 28.539 61.87C27.891 61.57 26.985 61.42 25.821 61.42H25.227V59.404H25.821C26.301 59.404 26.745 59.374 27.153 59.314C27.561 59.242 27.915 59.14 28.215 59.008C28.515 58.864 28.749 58.684 28.917 58.468C29.085 58.252 29.169 57.994 29.169 57.694C29.169 57.43 29.109 57.202 28.989 57.01C28.881 56.818 28.737 56.662 28.557 56.542C28.377 56.422 28.173 56.332 27.945 56.272C27.729 56.212 27.513 56.182 27.297 56.182C26.937 56.182 26.607 56.23 26.307 56.326C26.007 56.41 25.743 56.524 25.515 56.668C25.287 56.8 25.089 56.956 24.921 57.136C24.765 57.304 24.639 57.472 24.543 57.64L22.995 55.894C23.199 55.606 23.457 55.348 23.769 55.12C24.081 54.892 24.429 54.7 24.813 54.544C25.197 54.388 25.599 54.268 26.019 54.184C26.439 54.1 26.859 54.058 27.279 54.058C27.927 54.058 28.521 54.148 29.061 54.328C29.613 54.508 30.087 54.76 30.483 55.084C30.879 55.396 31.185 55.768 31.401 56.2C31.629 56.62 31.743 57.076 31.743 57.568C31.743 58.288 31.527 58.882 31.095 59.35C30.663 59.806 30.075 60.118 29.331 60.286C29.739 60.358 30.105 60.496 30.429 60.7C30.765 60.892 31.047 61.138 31.275 61.438C31.515 61.726 31.695 62.056 31.815 62.428C31.947 62.788 32.013 63.166 32.013 63.562C32.013 64.174 31.875 64.708 31.599 65.164C31.323 65.608 30.957 65.98 30.501 66.28C30.057 66.568 29.547 66.79 28.971 66.946C28.395 67.09 27.807 67.162 27.207 67.162ZM34.1543 67V54.22H38.7983C39.8423 54.22 40.7543 54.388 41.5343 54.724C42.3263 55.06 42.9863 55.516 43.5143 56.092C44.0423 56.668 44.4383 57.346 44.7023 58.126C44.9663 58.894 45.0983 59.716 45.0983 60.592C45.0983 61.564 44.9483 62.446 44.6483 63.238C44.3603 64.018 43.9403 64.69 43.3883 65.254C42.8363 65.806 42.1703 66.238 41.3903 66.55C40.6223 66.85 39.7583 67 38.7983 67H34.1543ZM42.5963 60.592C42.5963 59.98 42.5123 59.416 42.3443 58.9C42.1763 58.384 41.9303 57.94 41.6063 57.568C41.2823 57.196 40.8803 56.908 40.4003 56.704C39.9323 56.5 39.3983 56.398 38.7983 56.398H36.6383V64.822H38.7983C39.4103 64.822 39.9503 64.714 40.4183 64.498C40.8983 64.282 41.2943 63.988 41.6063 63.616C41.9303 63.232 42.1763 62.782 42.3443 62.266C42.5123 61.75 42.5963 61.192 42.5963 60.592Z" fill="#222222"/>
<defs>
<clipPath id="clip0">
<rect x="10" y="5" width="48" height="48" fill="white"/>
</clipPath>
</defs>
</svg>
