<svg width="18" height="17" viewBox="0 0 18 17" fill="none" xmlns="http://www.w3.org/2000/svg">
<path d="M9.13283 8.33473L16.7878 8.33473C17.048 8.33473 17.2562 8.54294 17.2562 8.80319C17.2562 9.06344 17.048 9.27165 16.7878 9.27165L9.13283 9.27165C8.91422 10.3578 7.95301 11.1802 6.80095 11.1802C5.6489 11.1802 4.68769 10.3578 4.46908 9.27165L1.06148 9.27165C0.80123 9.27165 0.593027 9.06344 0.593027 8.80319C0.593027 8.54294 0.80123 8.33473 1.06148 8.33473L4.46908 8.33473C4.68769 7.24861 5.6489 6.4262 6.80095 6.4262C7.94954 6.4262 8.91422 7.24514 9.13283 8.33473ZM5.36088 8.80319C5.36088 9.59783 6.00631 10.2433 6.80095 10.2433C7.5956 10.2433 8.24103 9.59783 8.24103 8.80319C8.24103 8.00855 7.5956 7.36312 6.80095 7.36312C6.00631 7.36312 5.36088 8.00855 5.36088 8.80319Z" fill="#333333"/>
<path d="M13.0609 14.0708L16.7878 14.0708C17.048 14.0708 17.2562 14.279 17.2562 14.5393C17.2562 14.7995 17.048 15.0077 16.7878 15.0077L13.0609 15.0077C12.8423 16.0939 11.8811 16.9163 10.7291 16.9163C9.577 16.9163 8.61579 16.0939 8.39718 15.0077L1.06148 15.0077C0.80123 15.0077 0.593027 14.7995 0.593027 14.5393C0.593027 14.279 0.80123 14.0708 1.06148 14.0708L8.40065 14.0708C8.61926 12.9847 9.58047 12.1623 10.7325 12.1623C11.8846 12.1623 12.8423 12.9847 13.0609 14.0708ZM9.28898 14.5393C9.28898 15.3339 9.93441 15.9793 10.7291 15.9793C11.5237 15.9793 12.1691 15.3339 12.1691 14.5393C12.1691 13.7446 11.5237 13.0992 10.7291 13.0992C9.93441 13.0992 9.28898 13.7481 9.28898 14.5393Z" fill="#333333"/>
<path d="M13.0609 2.63356L16.7878 2.63356C17.048 2.63356 17.2562 2.84176 17.2562 3.10202C17.2562 3.36227 17.048 3.57047 16.7878 3.57047L13.0609 3.57047C12.8423 4.6566 11.8811 5.479 10.7291 5.479C9.57699 5.479 8.61579 4.6566 8.39718 3.57047L1.05801 3.57047C0.797756 3.57047 0.589554 3.36227 0.589554 3.10202C0.589554 2.84176 0.797756 2.63356 1.05801 2.63356L8.40065 2.63356C8.61926 1.54743 9.58047 0.725031 10.7325 0.725031C11.8846 0.725031 12.8423 1.54396 13.0609 2.63356ZM9.28898 3.10202C9.28898 3.89666 9.93441 4.54209 10.7291 4.54209C11.5237 4.54209 12.1691 3.89666 12.1691 3.10202C12.1691 2.30738 11.5237 1.66195 10.7291 1.66195C9.93441 1.66195 9.28898 2.30738 9.28898 3.10202Z" fill="#333333"/>
</svg>
