<svg width="83" height="83" viewBox="0 0 83 83" fill="none" xmlns="http://www.w3.org/2000/svg">
<path d="M70.0312 59.332C68.2398 59.332 66.7891 60.7828 66.7891 62.5742C66.7891 64.3657 68.2398 65.8164 70.0312 65.8164C71.8227 65.8164 73.2734 64.3657 73.2734 62.5742C73.2734 60.7828 71.8227 59.332 70.0312 59.332Z" fill="#FFA800"/>
<path d="M68.4102 46.3633C67.5154 46.3633 66.7891 47.0896 66.7891 47.9844C66.7891 48.8791 67.5154 49.6055 68.4102 49.6055C69.3049 49.6055 70.0312 48.8791 70.0312 47.9844C70.0312 47.0896 69.3049 46.3633 68.4102 46.3633Z" fill="#FFA800"/>
<path d="M20.4258 59.332C18.6343 59.332 17.1836 60.7828 17.1836 62.5742C17.1836 64.3657 18.6343 65.8164 20.4258 65.8164C22.2172 65.8164 23.668 64.3657 23.668 62.5742C23.668 60.7828 22.2172 59.332 20.4258 59.332Z" fill="#FFA800"/>
<path d="M76.1863 39.9828L73.3912 28.8023C74.3848 27.8518 74.8945 26.591 74.8945 25.2891C74.8945 22.6073 72.713 20.4258 70.0312 20.4258H57.0625V15.5625C57.0625 12.8807 54.881 10.6992 52.1992 10.6992H4.86328C2.18151 10.6992 0 12.8807 0 15.5625V57.7109C0 60.3927 2.18151 62.5742 4.86328 62.5742H10.6992C10.6992 67.9378 15.0622 72.3008 20.4258 72.3008C25.7893 72.3008 30.1523 67.9378 30.1523 62.5742H60.3047C60.3047 67.9378 64.6677 72.3008 70.0312 72.3008C75.3948 72.3008 79.7578 67.9378 79.7578 62.5742C79.7578 62.4818 79.7534 62.3899 79.7508 62.2975C81.6411 61.6307 83 59.8266 83 57.7109V47.9844C83 43.9544 80.044 40.6033 76.1863 39.9828ZM70.3865 30.1523L72.8181 39.8789H59.3548L63.0719 36.1618C63.7052 35.5285 63.7052 34.5027 63.0719 33.8695C62.4387 33.2362 61.4129 33.2362 60.7796 33.8695L57.0625 37.5859V30.1523H70.3865ZM71.6523 25.2891C71.6523 26.1838 70.926 26.9102 70.0312 26.9102H57.0625V23.668H70.0312C70.9254 23.668 71.6523 24.3949 71.6523 25.2891ZM20.4258 69.0586C16.8505 69.0586 13.9414 66.1495 13.9414 62.5742C13.9414 58.9502 16.9031 56.0898 20.4258 56.0898C23.9567 56.0898 26.9102 58.9578 26.9102 62.5742C26.9102 66.1495 24.0011 69.0586 20.4258 69.0586ZM29.5957 59.332C28.2419 55.5066 24.5773 52.8477 20.4258 52.8477C16.2724 52.8477 12.6065 55.5085 11.2552 59.332H4.86328C3.96915 59.332 3.24219 58.6051 3.24219 57.7109V15.5625C3.24219 14.6684 3.96915 13.9414 4.86328 13.9414H52.1992C53.0934 13.9414 53.8203 14.6684 53.8203 15.5625V59.332H29.5957ZM70.0312 69.0586C66.456 69.0586 63.5469 66.1495 63.5469 62.5742C63.5469 58.9502 66.5085 56.0898 70.0312 56.0898C73.5622 56.0898 76.5156 58.9578 76.5156 62.5742C76.5156 66.1495 73.6065 69.0586 70.0312 69.0586ZM79.0859 59.0224C77.6479 55.3635 74.0701 52.8477 70.0312 52.8477C65.8778 52.8477 62.212 55.5085 60.8607 59.332H57.0625V43.1211H74.8945C77.0077 43.1211 78.8099 44.4762 79.4792 46.3633H74.8945C73.9991 46.3633 73.2734 47.089 73.2734 47.9844C73.2734 48.8798 73.9991 49.6055 74.8945 49.6055H79.7578V57.7109C79.7578 58.2498 79.4919 58.7273 79.0859 59.0224Z" fill="#FFA800"/>
<path d="M28.5312 20.4258C20.4866 20.4258 13.9414 26.9709 13.9414 35.0156C13.9414 43.0603 20.4866 49.6055 28.5312 49.6055C36.5759 49.6055 43.1211 43.0603 43.1211 35.0156C43.1211 26.9709 36.5759 20.4258 28.5312 20.4258ZM28.5312 46.3633C22.2742 46.3633 17.1836 41.2727 17.1836 35.0156C17.1836 28.7586 22.2742 23.668 28.5312 23.668C34.7883 23.668 39.8789 28.7586 39.8789 35.0156C39.8789 41.2727 34.7883 46.3633 28.5312 46.3633Z" fill="#D93232"/>
<path d="M35.0156 33.3945H30.1523V28.5312C30.1523 27.6358 29.4267 26.9102 28.5312 26.9102C27.6358 26.9102 26.9102 27.6358 26.9102 28.5312V35.0156C26.9102 35.911 27.6358 36.6367 28.5312 36.6367H35.0156C35.911 36.6367 36.6367 35.911 36.6367 35.0156C36.6367 34.1202 35.911 33.3945 35.0156 33.3945Z" fill="#D93232"/>
</svg>
