<svg width="83" height="63" fill="none" xmlns="http://www.w3.org/2000/svg"><path d="M76.186 29.983l-2.795-11.18a4.825 4.825 0 0 0 1.503-3.514 4.869 4.869 0 0 0-4.863-4.863H57.062V5.562A4.869 4.869 0 0 0 52.2.7H4.863A4.869 4.869 0 0 0 0 5.563V47.71a4.869 4.869 0 0 0 4.863 4.863H10.7c0 5.364 4.363 9.727 9.727 9.727 5.363 0 9.726-4.363 9.726-9.727h30.153c0 5.364 4.363 9.727 9.726 9.727 5.364 0 9.727-4.363 9.727-9.727 0-.092-.005-.184-.007-.276A4.87 4.87 0 0 0 83 47.71v-9.727c0-4.03-2.956-7.38-6.814-8.001zm-5.8-9.83l2.432 9.726H59.355l3.717-3.717a1.62 1.62 0 1 0-2.292-2.293l-3.718 3.717v-7.434h13.325zm1.266-4.864c0 .895-.726 1.621-1.62 1.621h-12.97v-3.242h12.97c.893 0 1.62.727 1.62 1.621zM20.426 59.06a6.492 6.492 0 0 1-6.485-6.485c0-3.624 2.962-6.484 6.485-6.484 3.53 0 6.484 2.868 6.484 6.484a6.492 6.492 0 0 1-6.484 6.485zm9.17-9.727c-1.354-3.825-5.019-6.484-9.17-6.484-4.154 0-7.82 2.66-9.17 6.484H4.862a1.623 1.623 0 0 1-1.62-1.621V5.563c0-.895.726-1.622 1.62-1.622H52.2c.894 0 1.621.727 1.621 1.622v43.769H29.596zm40.435 9.727a6.492 6.492 0 0 1-6.484-6.485c0-3.624 2.962-6.484 6.484-6.484 3.531 0 6.485 2.868 6.485 6.484a6.492 6.492 0 0 1-6.485 6.485zm9.055-10.037c-1.438-3.658-5.016-6.174-9.055-6.174-4.153 0-7.819 2.66-9.17 6.484h-3.798v-16.21h17.831a4.871 4.871 0 0 1 4.585 3.241h-4.585a1.621 1.621 0 1 0 0 3.242h4.864v8.106a1.62 1.62 0 0 1-.672 1.311z" fill="#FFA800"/></svg>