<svg width="24" height="21" fill="none" xmlns="http://www.w3.org/2000/svg"><path d="M7.58 13.631h12.146a.669.669 0 00.644-.48l2.68-9.28a.657.657 0 00-.11-.58.672.672 0 00-.535-.265H6.035L5.556.894a.668.668 0 00-.654-.519H.884c-.37 0-.67.297-.67.663 0 .366.3.663.67.663h3.481L6.783 12.47a1.99 1.99 0 00-1.21 1.824c0 1.096.9 1.988 2.008 1.988h12.145c.37 0 .67-.296.67-.662 0-.366-.3-.663-.67-.663H7.581a.667.667 0 01-.67-.663c0-.365.3-.662.669-.663zm13.937-9.279l-2.296 7.954H8.12L6.333 4.352h15.184zM6.5 18.387c0 1.096.898 1.988 2.001 1.988 1.104 0 2.001-.892 2.001-1.988a1.997 1.997 0 00-2-1.989c-1.104 0-2.001.893-2.001 1.989zm2.001-.663c.368 0 .667.297.667.663 0 .365-.299.663-.667.663a.666.666 0 01-.666-.663c0-.366.299-.663.666-.663zM16.217 18.387c0 1.096.897 1.988 2 1.988 1.104 0 2.001-.892 2.001-1.988a1.997 1.997 0 00-2-1.989c-1.104 0-2.001.893-2.001 1.989zm2-.663c.368 0 .667.297.667.663 0 .365-.299.663-.667.663a.666.666 0 01-.666-.663c0-.366.299-.663.666-.663z" fill="#fff"/></svg>