<svg width="23" height="21" viewBox="0 0 23 21" fill="none" xmlns="http://www.w3.org/2000/svg">
<path d="M22.3621 6.35697L22.3513 6.34209C22.257 6.21173 22.1187 6.12047 21.8839 6.08735L6.00772 4.40018L5.60786 4.35769L5.56359 3.95802L5.3618 2.13612C5.34042 2.00321 5.2888 1.88812 5.20319 1.78283C5.12373 1.68509 5.02842 1.6216 4.90527 1.58559L4.9006 1.58422L4.90061 1.5842L1.40861 0.52607C1.22354 0.478928 1.04466 0.494473 0.852825 0.583024C0.684393 0.660773 0.583494 0.772184 0.525518 0.938016C0.478095 1.11901 0.497295 1.27351 0.578278 1.42748L22.3621 6.35697ZM22.3621 6.35697L22.3739 6.37103M22.3621 6.35697L22.3739 6.37103M22.3739 6.37103C22.4748 6.49092 22.5206 6.63064 22.4914 6.83571L21.5288 12.0839L21.5262 12.0982M22.3739 6.37103L21.5262 12.0982M20.4142 15.3039C20.2694 15.1713 20.1109 15.1096 19.9146 15.1096H6.51728H5.9153L6.02577 14.5179L6.30488 13.0228L6.3811 12.6146H6.79639H20.8534C21.0297 12.6146 21.18 12.5633 21.3211 12.454L20.4142 15.3039ZM20.4142 15.3039C20.5474 15.426 20.6071 15.5614 20.6071 15.743C20.6071 15.9246 20.5474 16.0601 20.4141 16.1822C20.2693 16.3148 20.1109 16.3764 19.9146 16.3764H5.09635C4.89029 16.3764 4.71793 16.3051 4.55524 16.1327C4.41871 15.9722 4.37092 15.8083 4.39725 15.6078L5.02903 12.3415L5.04316 12.2685L5.03542 12.1945L4.07122 2.98277L4.03652 2.65133L3.71725 2.55581L0.977297 1.73604C0.977203 1.73601 0.977108 1.73599 0.977014 1.73596C0.772117 1.6744 0.653816 1.57101 0.578306 1.42754L20.4142 15.3039ZM21.5262 12.0982L21.5244 12.1127M21.5262 12.0982L21.5244 12.1127M21.5244 12.1127C21.5078 12.2468 21.45 12.3542 21.3212 12.454L21.5244 12.1127ZM7.8475 18.3722L7.84761 18.3723C8.10523 18.6171 8.22483 18.8968 8.22483 19.2397C8.22483 19.5827 8.10479 19.8688 7.84331 20.1232C7.58388 20.3756 7.27863 20.5 6.89793 20.5C6.51722 20.5 6.21198 20.3756 5.95255 20.1232L5.95253 20.1232C5.69106 19.8688 5.57102 19.5828 5.57102 19.2397C5.57102 18.8968 5.69062 18.6171 5.94827 18.3723L5.94838 18.3722C6.20701 18.1263 6.51357 18.0033 6.89793 18.0033C7.28224 18.0033 7.58881 18.1263 7.8475 18.3722ZM18.6821 18.3722L18.6821 18.3722C18.9397 18.6171 19.0594 18.8969 19.0594 19.2397C19.0594 19.5827 18.9393 19.8687 18.6779 20.1232C18.4185 20.3756 18.1131 20.5 17.7325 20.5C17.3517 20.5 17.0464 20.3756 16.7872 20.1232L16.7871 20.1232C16.5256 19.8687 16.4055 19.5827 16.4055 19.2397C16.4055 18.8969 16.5251 18.6172 16.7828 18.3723L16.7829 18.3722C17.0416 18.1263 17.3481 18.0033 17.7325 18.0033C18.1167 18.0033 18.4234 18.1263 18.6821 18.3722Z" stroke="white"/>
</svg>
