<svg width="25" height="24" fill="none" xmlns="http://www.w3.org/2000/svg"><path d="M23.756 6.871c.203.241.28.53.229.868l-.964 5.257a.98.98 0 01-.394.675 1.23 1.23 0 01-.774.266H7.796l-.279 1.495h13.398c.321 0 .6.108.837.325.237.217.355.487.355.808 0 .322-.118.59-.355.808a1.199 1.199 0 01-.837.325H6.096c-.355 0-.66-.136-.913-.41a1.13 1.13 0 01-.28-.94l.635-3.28-.964-9.211-2.74-.82a1.11 1.11 0 01-.698-.555 1.145 1.145 0 01-.089-.868c.101-.305.3-.526.596-.663s.597-.165.901-.084l3.502 1.06c.22.065.401.186.545.362.144.177.233.378.267.603l.203 1.833 15.884 1.688c.355.048.625.2.811.458zM7.898 19.325c.507 0 .939.17 1.294.507.355.337.533.747.533 1.23 0 .482-.178.896-.533 1.242a1.787 1.787 0 01-1.294.518c-.508 0-.939-.173-1.294-.518a1.672 1.672 0 01-.533-1.242c0-.483.178-.893.533-1.23a1.809 1.809 0 011.294-.507zm10.835 0c.507 0 .938.17 1.294.507.355.337.532.747.532 1.23 0 .482-.177.896-.532 1.242a1.787 1.787 0 01-1.294.518c-.508 0-.94-.173-1.295-.518a1.672 1.672 0 01-.532-1.242c0-.483.177-.893.532-1.23a1.81 1.81 0 011.295-.507z" stroke="#fff"/></svg>