<svg width="24" height="8" viewBox="0 0 24 8" fill="none" xmlns="http://www.w3.org/2000/svg">
<path d="M6.03517 0.122451C5.58799 0.122451 5.25591 0.399971 5.25591 0.897298V4.65547H5.23431L1.93783 0.450271C1.8027 0.270514 1.48071 0.121033 1.28219 0.121033C0.835006 0.121033 0.50293 0.398552 0.50293 0.895878V6.54449C0.50293 7.04197 0.835006 7.31933 1.28219 7.31933C1.73079 7.31933 2.06287 7.04182 2.06287 6.54449V2.83677H2.08447L5.38111 6.99167C5.52634 7.17143 5.83681 7.32091 6.03533 7.32091C6.48393 7.32091 6.81601 7.04339 6.81601 6.54607V0.897454C6.81585 0.401389 6.48378 0.122451 6.03517 0.122451ZM12.2172 5.88901H10.2921V4.37795H11.9987C12.499 4.37795 12.7578 4.03011 12.7578 3.69219C12.7578 3.34277 12.5077 3.00502 11.9987 3.00502H10.2921V1.55293H12.1223C12.6111 1.55293 12.8612 1.20509 12.8612 0.867179C12.8612 0.519334 12.6225 0.178586 12.1223 0.178586H9.5431C8.99248 0.178586 8.73373 0.546613 8.73373 1.04552V6.51453C8.73373 6.96171 9.07589 7.25926 9.53459 7.25926H12.2174C12.7062 7.25926 12.9549 6.91283 12.9549 6.5735C12.9547 6.22692 12.7161 5.88901 12.2172 5.88901ZM22.7439 0.122451C22.2449 0.122451 22.005 0.399971 21.9129 0.838482L21.0288 5.06386H21.0072L19.6557 0.709183C19.5421 0.351247 19.2301 0.122609 18.8463 0.122609C18.4625 0.122609 18.149 0.351247 18.0355 0.709183L16.684 5.06386H16.6638L15.7797 0.838482C15.6862 0.399971 15.4476 0.122451 14.9473 0.122451C14.4916 0.122451 14.2098 0.460362 14.2098 0.779508L14.25 1.116L15.5713 6.54465C15.6747 6.96156 16.0184 7.31949 16.6006 7.31949C17.1096 7.31949 17.5049 7.00035 17.6299 6.59353L18.8362 2.75636H18.8578L20.0641 6.59353C20.1891 7.00035 20.5846 7.31949 21.0934 7.31949C21.6757 7.31949 22.0207 6.96156 22.1242 6.54465L23.444 1.116L23.4856 0.779508C23.4815 0.460362 23.2011 0.122451 22.7439 0.122451Z" fill="white"/>
</svg>
