<svg width="58" height="58" viewBox="0 0 58 58" fill="none" xmlns="http://www.w3.org/2000/svg">
<path d="M56.6997 45.837L47.7425 36.8788C45.9584 35.1019 43.0039 35.1558 41.1576 37.0028L36.6449 41.5144C36.3598 41.3573 36.0647 41.1932 35.7545 41.0191C32.9048 39.4401 29.0045 37.2759 24.9002 33.1686C20.7838 29.0527 18.6176 25.1464 17.0338 22.2949C16.8667 21.9928 16.7065 21.7015 16.5484 21.4249L19.5771 18.4007L21.0661 16.9099C22.9152 15.0603 22.9661 12.1066 21.1862 10.3245L12.229 1.36533C10.4491 -0.414274 7.49323 -0.360286 5.64414 1.4893L3.1197 4.02824L3.18869 4.09673C2.34221 5.17682 1.63486 6.42255 1.10848 7.76592C0.623253 9.04463 0.321154 10.2649 0.183017 11.4876C-0.999721 21.2928 3.48095 30.2539 15.6409 42.4141C32.4497 59.2217 45.9954 57.952 46.5798 57.89C47.8525 57.7379 49.0722 57.4338 50.3118 56.9524C51.6435 56.4321 52.8884 55.7258 53.9678 54.8811L54.0229 54.9301L56.5804 52.4259C58.4256 50.5766 58.4788 47.6219 56.6997 45.837Z" fill="#5CA3FD"/>
</svg>
