<svg width="37" height="37" fill="none" xmlns="http://www.w3.org/2000/svg"><path d="M1.126 34.038l8.344-8.342a15.108 15.108 0 01-3.574-9.773C5.896 7.552 12.707.75 21.073.75c8.374 0 15.177 6.81 15.177 15.174s-6.81 15.173-15.177 15.173c-3.72 0-7.132-1.344-9.775-3.573l-8.344 8.342a1.305 1.305 0 01-.914.384 1.3 1.3 0 01-.914-2.212zm32.536-18.114c0-6.94-5.648-12.579-12.581-12.579C14.14 3.345 8.5 8.992 8.5 15.924c0 6.931 5.64 12.585 12.58 12.585 6.934 0 12.582-5.646 12.582-12.585z" fill="#3E3E3E" stroke="#3E3E3E" stroke-width=".5"/></svg>