<svg width="11" height="16" viewBox="0 0 11 16" fill="none" xmlns="http://www.w3.org/2000/svg">
<path d="M5.5 0C2.46728 0 0 2.59944 0 5.79456C0 9.75981 4.92196 15.581 5.13152 15.8269C5.32835 16.0579 5.67201 16.0575 5.86848 15.8269C6.07804 15.581 11 9.75981 11 5.79456C10.9999 2.59944 8.53269 0 5.5 0ZM5.5 14.679C3.84351 12.606 0.990449 8.516 0.990449 5.79462C0.990449 3.17481 3.01341 1.0435 5.5 1.0435C7.98659 1.0435 10.0096 3.17481 10.0096 5.79459C10.0095 8.51609 7.15691 12.6053 5.5 14.679Z" fill="#333333"/>
<path d="M5.4997 2.87939C3.97387 2.87939 2.73254 4.18724 2.73254 5.7948C2.73254 7.40236 3.9739 8.71021 5.4997 8.71021C7.02551 8.71021 8.26683 7.40236 8.26683 5.7948C8.26683 4.18724 7.02551 2.87939 5.4997 2.87939ZM5.4997 7.66671C4.51999 7.66671 3.72299 6.82699 3.72299 5.7948C3.72299 4.76261 4.52002 3.92289 5.4997 3.92289C6.47938 3.92289 7.27641 4.76261 7.27641 5.7948C7.27641 6.82699 6.47938 7.66671 5.4997 7.66671Z" fill="#333333"/>
</svg>
