<svg width="351" height="80" viewBox="0 0 351 80" fill="none" xmlns="http://www.w3.org/2000/svg">
<rect width="80" height="80" rx="23.7624" fill="#F53A41"/>
<path d="M39.7307 35.8192L33.5268 19.3653L23.8163 15.0496L14.9151 43.9112L20.3098 46.3388L39.7307 35.8192Z" fill="#FFA800"/>
<path d="M39.7307 35.8192L45.9346 19.3653L55.6451 15.0496L64.5463 43.9112L59.1516 46.3388L39.7307 35.8192Z" fill="#FFE500"/>
<path d="M39.7307 35.8194L44.5859 22.8721L54.8359 26.6484L64.0069 64.681L53.7569 60.3652L49.9806 44.4509L44.5859 56.589L39.7307 54.4311V35.8194Z" fill="#FFA800"/>
<path d="M39.7305 54.4309L35.6845 56.5887L29.7503 43.6415L25.4345 60.365L15.4543 64.9505L24.0859 26.6482L34.8753 23.1416L39.7305 35.8191V54.4309Z" fill="#FFE600"/>
<path d="M104.109 19.6697L109.094 35.2058L114.063 19.6697H121.149V42H115.75V36.7855L116.271 26.1111L110.873 42H107.315L101.901 26.0958L102.422 36.7855V42H97.0392V19.6697H104.109ZM133.249 29.3625V29.3778L136.945 19.6697H142.62L135.105 37.3836C134.297 39.1729 133.387 40.4357 132.375 41.1718C131.373 41.8978 130.197 42.2812 128.848 42.3221H127.759L126.931 42.2914L126.838 38.1198C126.961 38.1607 127.319 38.1811 127.912 38.1811C128.73 38.1811 129.344 38.0431 129.752 37.7671C130.172 37.4808 130.509 36.9338 130.765 36.126L131.025 35.3899L122.958 19.6697H128.679L133.249 29.3625ZM149.844 34.4236V42H144.46V19.6697H153.371C155.079 19.6697 156.587 19.9866 157.895 20.6206C159.214 21.2442 160.232 22.1389 160.947 23.3045C161.673 24.4599 162.036 25.7737 162.036 27.246C162.036 29.4239 161.254 31.1671 159.69 32.4759C158.136 33.7744 155.999 34.4236 153.279 34.4236H149.844ZM149.844 30.2674H153.371C154.414 30.2674 155.206 30.0067 155.748 29.4852C156.3 28.9638 156.576 28.2276 156.576 27.2767C156.576 26.2338 156.295 25.4005 155.733 24.7768C155.171 24.1531 154.404 23.8362 153.432 23.8259H149.844V30.2674ZM183.83 31.2949C183.83 33.4728 183.426 35.4001 182.618 37.0769C181.811 38.7537 180.66 40.0471 179.168 40.9571C177.685 41.8569 175.993 42.3067 174.091 42.3067C172.189 42.3067 170.502 41.8722 169.03 41.0031C167.558 40.1238 166.407 38.8713 165.579 37.2456C164.761 35.6199 164.332 33.7539 164.291 31.6477V30.3901C164.291 28.202 164.69 26.2747 165.487 24.6081C166.295 22.9313 167.445 21.6379 168.938 20.7279C170.441 19.8179 172.148 19.3629 174.06 19.3629C175.952 19.3629 177.639 19.8128 179.122 20.7126C180.604 21.6123 181.754 22.8955 182.572 24.5621C183.4 26.2185 183.82 28.1202 183.83 30.2674V31.2949ZM178.355 30.3594C178.355 28.1407 177.981 26.4587 177.235 25.3136C176.499 24.1582 175.441 23.5805 174.06 23.5805C171.361 23.5805 169.935 25.605 169.781 29.6539L169.766 31.2949C169.766 33.483 170.129 35.1649 170.855 36.3407C171.581 37.5166 172.66 38.1045 174.091 38.1045C175.451 38.1045 176.499 37.5268 177.235 36.3714C177.971 35.216 178.344 33.5546 178.355 31.387V30.3594ZM193.676 19.6697L198.661 35.2058L203.63 19.6697H210.715V42H205.317V36.7855L205.838 26.1111L200.44 42H196.881L191.468 26.0958L191.989 36.7855V42H186.606V19.6697H193.676ZM224.012 34.3776H214.795V30.3747H224.012V34.3776ZM235.361 19.6697L240.346 35.2058L245.315 19.6697H252.401V42H247.002V36.7855L247.523 26.1111L242.125 42H238.567L233.153 26.0958L233.674 36.7855V42H228.291V19.6697H235.361ZM269.685 32.5372H261.219V37.8591H271.219V42H255.836V19.6697H271.249V23.8259H261.219V28.5343H269.685V32.5372ZM288.503 23.8259H278.826V27.3534H281.602C283.371 27.3534 284.935 27.655 286.295 28.2583C287.655 28.8615 288.698 29.7153 289.424 30.8195C290.16 31.9135 290.528 33.1711 290.528 34.5923C290.528 36.7906 289.71 38.5748 288.074 39.9449C286.448 41.315 284.26 42 281.51 42H273.412V19.6697H288.503V23.8259ZM278.826 31.4943V37.8591H281.586C282.68 37.8591 283.544 37.5523 284.178 36.9389C284.822 36.3254 285.145 35.533 285.145 34.5617C285.145 33.6415 284.828 32.9002 284.194 32.3378C283.56 31.7755 282.68 31.4943 281.556 31.4943H278.826ZM306.892 32.5372H298.426V37.8591H308.426V42H293.043V19.6697H308.456V23.8259H298.426V28.5343H306.892V32.5372ZM329.406 19.6697V42H324.023V23.8259H319.008L318.64 31.3256C318.487 33.9124 318.129 35.9778 317.566 37.5217C317.004 39.0656 316.201 40.1954 315.159 40.9111C314.126 41.6166 312.715 41.9796 310.926 42H309.484V37.8591L310.235 37.7824C311.309 37.629 312.086 36.9747 312.567 35.8193C313.047 34.6537 313.359 32.6957 313.502 29.9453L313.886 19.6697H329.406ZM338.179 27.3534H340.955C342.724 27.3534 344.288 27.655 345.648 28.2583C347.008 28.8615 348.051 29.7153 348.777 30.8195C349.513 31.9135 349.881 33.1711 349.881 34.5923C349.881 36.7906 349.063 38.5748 347.427 39.9449C345.801 41.315 343.613 42 340.863 42H332.781V19.6697H338.179V27.3534ZM338.179 31.4943V37.8591H340.94C342.034 37.8591 342.898 37.5523 343.532 36.9389C344.176 36.3254 344.498 35.533 344.498 34.5617C344.498 33.6415 344.181 32.9002 343.547 32.3378C342.913 31.7755 342.034 31.4943 340.909 31.4943H338.179Z" fill="#333333"/>
<path d="M99.3359 54.0921H100.356V55.1598H100.771C101.447 55.1598 102.033 55.2942 102.527 55.5631C103.025 55.832 103.405 56.2116 103.666 56.702C103.931 57.1923 104.063 57.7518 104.063 58.3805C104.063 59.037 103.915 59.6222 103.618 60.1362C103.326 60.6464 102.922 61.0299 102.408 61.2869C101.898 61.544 101.295 61.6725 100.599 61.6725H100.356V63.0071H99.3359V61.6725H99.069C98.373 61.6725 97.77 61.542 97.2599 61.281C96.7498 61.02 96.3504 60.6325 96.0617 60.1185C95.7731 59.6044 95.6287 59.0291 95.6287 58.3924C95.6287 57.7676 95.7612 57.2101 96.0261 56.7198C96.295 56.2294 96.6786 55.8478 97.1768 55.575C97.6751 55.2982 98.2623 55.1598 98.9385 55.1598H99.3359V54.0921ZM100.356 60.8243H100.504C101.299 60.8243 101.916 60.6088 102.355 60.1778C102.798 59.7428 103.019 59.1398 103.019 58.3687C103.019 57.6371 102.816 57.0638 102.408 56.6486C102.001 56.2334 101.432 56.0258 100.7 56.0258H100.356V60.8243ZM99.3359 56.0258H98.9978C98.2781 56.0258 97.7107 56.2354 97.2955 56.6545C96.8842 57.0737 96.6786 57.6451 96.6786 58.3687C96.6786 59.1477 96.8981 59.7527 97.337 60.1837C97.7759 60.6108 98.3947 60.8243 99.1935 60.8243H99.3359V56.0258ZM109.248 62.8884L109.052 61.9631H109.005C108.68 62.3704 108.356 62.6472 108.032 62.7935C107.712 62.9359 107.31 63.0071 106.828 63.0071C106.183 63.0071 105.677 62.841 105.309 62.5088C104.945 62.1767 104.764 61.7041 104.764 61.0912C104.764 59.7784 105.813 59.0903 107.913 59.0271L109.016 58.9915V58.5881C109.016 58.078 108.906 57.7024 108.684 57.4612C108.467 57.216 108.117 57.0934 107.634 57.0934C107.093 57.0934 106.48 57.2595 105.796 57.5917L105.493 56.8384C105.813 56.6644 106.163 56.528 106.543 56.4291C106.927 56.3303 107.31 56.2808 107.694 56.2808C108.469 56.2808 109.042 56.4528 109.414 56.7969C109.789 57.1409 109.977 57.6925 109.977 58.4517V62.8884H109.248ZM107.023 62.1945C107.636 62.1945 108.117 62.0264 108.465 61.6903C108.817 61.3542 108.993 60.8836 108.993 60.2786V59.6914L108.008 59.7329C107.225 59.7606 106.66 59.8832 106.312 60.1007C105.968 60.3142 105.796 60.6483 105.796 61.1031C105.796 61.459 105.902 61.7298 106.116 61.9157C106.333 62.1015 106.636 62.1945 107.023 62.1945ZM111.188 58.9915C111.188 57.5679 111.397 56.4588 111.817 55.664C112.236 54.8652 112.9 54.367 113.809 54.1692C114.94 53.928 115.937 53.7323 116.799 53.582L116.983 54.448C115.611 54.6774 114.63 54.8593 114.041 54.9937C113.467 55.1242 113.036 55.4326 112.748 55.919C112.463 56.4054 112.307 57.0677 112.279 57.906H112.35C112.596 57.5739 112.912 57.3129 113.299 57.1231C113.687 56.9333 114.092 56.8384 114.515 56.8384C115.314 56.8384 115.937 57.0974 116.384 57.6154C116.831 58.1334 117.054 58.8511 117.054 59.7685C117.054 60.7848 116.795 61.5796 116.277 62.1529C115.759 62.7223 115.037 63.0071 114.112 63.0071C113.199 63.0071 112.483 62.6571 111.965 61.9572C111.447 61.2573 111.188 60.2687 111.188 58.9915ZM114.201 62.1826C115.407 62.1826 116.01 61.4135 116.01 59.8753C116.01 58.4082 115.462 57.6747 114.367 57.6747C114.067 57.6747 113.776 57.738 113.495 57.8645C113.218 57.9871 112.963 58.1512 112.73 58.3568C112.501 58.5624 112.323 58.774 112.196 58.9915C112.196 60.0315 112.36 60.8243 112.688 61.37C113.017 61.9117 113.521 62.1826 114.201 62.1826ZM121.313 63.0071C120.89 63.0071 120.503 62.9299 120.151 62.7757C119.803 62.6176 119.51 62.3763 119.273 62.0521H119.202C119.249 62.4317 119.273 62.7915 119.273 63.1316V65.8067H118.288V56.3876H119.089L119.225 57.2773H119.273C119.526 56.9214 119.82 56.6644 120.157 56.5062C120.493 56.3481 120.878 56.269 121.313 56.269C122.175 56.269 122.84 56.5636 123.306 57.1527C123.777 57.7419 124.012 58.5684 124.012 59.6321C124.012 60.6997 123.773 61.5301 123.294 62.1233C122.82 62.7125 122.159 63.0071 121.313 63.0071ZM121.171 57.1053C120.507 57.1053 120.026 57.2892 119.73 57.6569C119.433 58.0247 119.281 58.6099 119.273 59.4126V59.6321C119.273 60.5455 119.425 61.2 119.73 61.5954C120.034 61.9869 120.522 62.1826 121.195 62.1826C121.756 62.1826 122.195 61.9552 122.511 61.5005C122.832 61.0457 122.992 60.419 122.992 59.6202C122.992 58.8096 122.832 58.1888 122.511 57.7578C122.195 57.3228 121.748 57.1053 121.171 57.1053ZM126.177 56.3876V60.5099L126.136 61.5894L126.118 61.9275L129.635 56.3876H130.863V62.8884H129.944V58.9144L129.962 58.1314L129.991 57.3603L126.48 62.8884H125.252V56.3876H126.177ZM136.255 56.3876H137.335L134.529 59.5253L137.566 62.8884H136.416L133.45 59.5965V62.8884H132.465V56.3876H133.45V59.549L136.255 56.3876ZM142.288 62.8884L142.092 61.9631H142.045C141.721 62.3704 141.396 62.6472 141.072 62.7935C140.752 62.9359 140.351 63.0071 139.868 63.0071C139.224 63.0071 138.717 62.841 138.35 62.5088C137.986 62.1767 137.804 61.7041 137.804 61.0912C137.804 59.7784 138.854 59.0903 140.954 59.0271L142.057 58.9915V58.5881C142.057 58.078 141.946 57.7024 141.725 57.4612C141.507 57.216 141.157 57.0934 140.675 57.0934C140.133 57.0934 139.52 57.2595 138.836 57.5917L138.534 56.8384C138.854 56.6644 139.204 56.528 139.583 56.4291C139.967 56.3303 140.351 56.2808 140.734 56.2808C141.509 56.2808 142.082 56.4528 142.454 56.7969C142.83 57.1409 143.018 57.6925 143.018 58.4517V62.8884H142.288ZM140.064 62.1945C140.677 62.1945 141.157 62.0264 141.505 61.6903C141.857 61.3542 142.033 60.8836 142.033 60.2786V59.6914L141.048 59.7329C140.266 59.7606 139.7 59.8832 139.352 60.1007C139.008 60.3142 138.836 60.6483 138.836 61.1031C138.836 61.459 138.943 61.7298 139.156 61.9157C139.374 62.1015 139.676 62.1945 140.064 62.1945ZM144.021 60.0829V59.1813H146.933V60.0829H144.021ZM148.98 62.8884H147.995V56.3876H153.452V62.8884H152.456V57.2417H148.98V62.8884ZM158.079 63.0071C157.656 63.0071 157.268 62.9299 156.916 62.7757C156.568 62.6176 156.276 62.3763 156.039 62.0521H155.967C156.015 62.4317 156.039 62.7915 156.039 63.1316V65.8067H155.054V56.3876H155.855L155.991 57.2773H156.039C156.292 56.9214 156.586 56.6644 156.922 56.5062C157.258 56.3481 157.644 56.269 158.079 56.269C158.941 56.269 159.605 56.5636 160.072 57.1527C160.542 57.7419 160.778 58.5684 160.778 59.6321C160.778 60.6997 160.539 61.5301 160.06 62.1233C159.586 62.7125 158.925 63.0071 158.079 63.0071ZM157.937 57.1053C157.272 57.1053 156.792 57.2892 156.495 57.6569C156.199 58.0247 156.046 58.6099 156.039 59.4126V59.6321C156.039 60.5455 156.191 61.2 156.495 61.5954C156.8 61.9869 157.288 62.1826 157.96 62.1826C158.522 62.1826 158.961 61.9552 159.277 61.5005C159.597 61.0457 159.758 60.419 159.758 59.6202C159.758 58.8096 159.597 58.1888 159.277 57.7578C158.961 57.3228 158.514 57.1053 157.937 57.1053ZM167.629 59.6321C167.629 60.6918 167.362 61.5202 166.828 62.1173C166.294 62.7105 165.557 63.0071 164.616 63.0071C164.035 63.0071 163.519 62.8706 163.068 62.5978C162.617 62.3249 162.269 61.9335 162.024 61.4234C161.779 60.9133 161.656 60.3162 161.656 59.6321C161.656 58.5723 161.921 57.7479 162.451 57.1587C162.981 56.5655 163.716 56.269 164.657 56.269C165.567 56.269 166.289 56.5715 166.822 57.1765C167.36 57.7815 167.629 58.6 167.629 59.6321ZM162.676 59.6321C162.676 60.4625 162.842 61.0952 163.175 61.5301C163.507 61.9651 163.995 62.1826 164.64 62.1826C165.284 62.1826 165.773 61.9671 166.105 61.5361C166.441 61.1011 166.609 60.4664 166.609 59.6321C166.609 58.8056 166.441 58.1789 166.105 57.7518C165.773 57.3208 165.28 57.1053 164.628 57.1053C163.983 57.1053 163.497 57.3168 163.169 57.74C162.84 58.1631 162.676 58.7938 162.676 59.6321ZM169.8 56.3876V60.5099L169.759 61.5894L169.741 61.9275L173.258 56.3876H174.486V62.8884H173.567V58.9144L173.585 58.1314L173.614 57.3603L170.103 62.8884H168.875V56.3876H169.8ZM177.328 59.0864C178.558 59.0864 179.173 58.7463 179.173 58.0662C179.173 57.4256 178.674 57.1053 177.678 57.1053C177.373 57.1053 177.097 57.133 176.847 57.1883C176.598 57.2437 176.272 57.3544 175.869 57.5205L175.519 56.7198C176.191 56.4192 176.925 56.269 177.719 56.269C178.467 56.269 179.056 56.4232 179.487 56.7316C179.918 57.0361 180.133 57.4533 180.133 57.9831C180.133 58.7107 179.728 59.1872 178.917 59.4126V59.4601C179.416 59.6064 179.779 59.816 180.009 60.0888C180.238 60.3577 180.353 60.6958 180.353 61.1031C180.353 61.7041 180.11 62.1727 179.623 62.5088C179.141 62.841 178.473 63.0071 177.618 63.0071C176.681 63.0071 175.958 62.8667 175.448 62.5859V61.6843C176.171 62.0244 176.903 62.1945 177.642 62.1945C178.212 62.1945 178.641 62.0976 178.929 61.9038C179.222 61.7061 179.368 61.4234 179.368 61.0556C179.368 60.3004 178.753 59.9227 177.524 59.9227H176.622V59.0864H177.328ZM186.747 58.0187C186.747 58.4418 186.625 58.7641 186.38 58.9856C186.138 59.203 185.798 59.3493 185.359 59.4245V59.4779C185.913 59.553 186.316 59.7151 186.569 59.9642C186.827 60.2134 186.955 60.5574 186.955 60.9963C186.955 61.6013 186.732 62.0679 186.285 62.3961C185.842 62.7243 185.193 62.8884 184.339 62.8884H181.474V56.3876H184.327C185.941 56.3876 186.747 56.9313 186.747 58.0187ZM185.97 60.9311C185.97 60.5791 185.836 60.3241 185.567 60.1659C185.302 60.0038 184.861 59.9227 184.244 59.9227H182.459V62.064H184.268C185.403 62.064 185.97 61.6863 185.97 60.9311ZM185.787 58.1136C185.787 57.7973 185.664 57.5739 185.419 57.4434C185.178 57.3089 184.81 57.2417 184.316 57.2417H182.459V59.0745H184.126C184.735 59.0745 185.164 58.9994 185.413 58.8491C185.662 58.6989 185.787 58.4537 185.787 58.1136ZM193.516 59.6321C193.516 60.6918 193.249 61.5202 192.715 62.1173C192.181 62.7105 191.444 63.0071 190.502 63.0071C189.921 63.0071 189.405 62.8706 188.954 62.5978C188.504 62.3249 188.156 61.9335 187.91 61.4234C187.665 60.9133 187.543 60.3162 187.543 59.6321C187.543 58.5723 187.808 57.7479 188.338 57.1587C188.867 56.5655 189.603 56.269 190.544 56.269C191.453 56.269 192.175 56.5715 192.709 57.1765C193.247 57.7815 193.516 58.6 193.516 59.6321ZM188.563 59.6321C188.563 60.4625 188.729 61.0952 189.061 61.5301C189.393 61.9651 189.882 62.1826 190.526 62.1826C191.171 62.1826 191.659 61.9671 191.991 61.5361C192.327 61.1011 192.495 60.4664 192.495 59.6321C192.495 58.8056 192.327 58.1789 191.991 57.7518C191.659 57.3208 191.167 57.1053 190.514 57.1053C189.87 57.1053 189.383 57.3168 189.055 57.74C188.727 58.1631 188.563 58.7938 188.563 59.6321ZM200.408 65.1364H199.453V62.8884H194.91V65.1364H193.961V62.0402H194.471C195.001 61.3206 195.416 60.4763 195.717 59.5075C196.017 58.5387 196.173 57.4987 196.185 56.3876H199.477V62.0402H200.408V65.1364ZM198.528 62.0402V57.1646H197.069C197.018 58.0425 196.848 58.9322 196.559 59.8337C196.274 60.7314 195.918 61.4669 195.491 62.0402H198.528ZM202.153 56.3876V60.5099L202.111 61.5894L202.093 61.9275L205.611 56.3876H206.839V62.8884H205.919V58.9144L205.937 58.1314L205.967 57.3603L202.455 62.8884H201.227V56.3876H202.153ZM212.824 57.2299H210.712V62.8884H209.728V57.2299H207.64V56.3876H212.824V57.2299ZM216.371 63.0071C215.41 63.0071 214.651 62.7144 214.094 62.1292C213.54 61.544 213.263 60.7314 213.263 59.6914C213.263 58.6435 213.52 57.8111 214.034 57.1943C214.552 56.5774 215.246 56.269 216.116 56.269C216.931 56.269 217.575 56.5379 218.05 57.0756C218.524 57.6095 218.762 58.3153 218.762 59.1932V59.816H214.283C214.303 60.5791 214.495 61.1584 214.859 61.5539C215.227 61.9493 215.743 62.147 216.407 62.147C217.107 62.147 217.799 62.0007 218.483 61.7081V62.5859C218.135 62.7362 217.805 62.843 217.492 62.9062C217.184 62.9734 216.81 63.0071 216.371 63.0071ZM216.104 57.0934C215.582 57.0934 215.165 57.2635 214.853 57.6035C214.544 57.9436 214.363 58.4142 214.307 59.0152H217.706C217.706 58.3944 217.567 57.9199 217.291 57.5917C217.014 57.2595 216.618 57.0934 216.104 57.0934ZM224.806 62.8884H223.81V57.2299H221.858C221.752 58.6376 221.603 59.7547 221.413 60.5811C221.224 61.4076 220.977 62.0126 220.672 62.3961C220.372 62.7797 219.988 62.9715 219.521 62.9715C219.308 62.9715 219.138 62.9477 219.011 62.9003V62.1707C219.098 62.1945 219.197 62.2063 219.308 62.2063C219.763 62.2063 220.124 61.7259 220.393 60.765C220.662 59.8041 220.866 58.345 221.004 56.3876H224.806V62.8884ZM227.399 59.0745H229.404C231.064 59.0745 231.895 59.6855 231.895 60.9073C231.895 61.5479 231.677 62.0383 231.242 62.3783C230.811 62.7184 230.179 62.8884 229.344 62.8884H226.414V56.3876H227.399V59.0745ZM227.399 59.9227V62.064H229.297C229.819 62.064 230.218 61.973 230.495 61.7911C230.772 61.6092 230.91 61.3344 230.91 60.9666C230.91 60.6068 230.782 60.3438 230.525 60.1778C230.272 60.0077 229.852 59.9227 229.267 59.9227H227.399Z" fill="#3E4757"/>
<path d="M239.079 54.2167L235.846 62.8884H234.861L238.094 54.2167H239.079ZM250.106 58.5407C250.106 59.9286 249.754 61.02 249.05 61.8148C248.35 62.6097 247.376 63.0071 246.126 63.0071C244.849 63.0071 243.862 62.6176 243.166 61.8386C242.474 61.0556 242.128 59.9524 242.128 58.5288C242.128 57.1172 242.476 56.0238 243.172 55.2488C243.868 54.4698 244.857 54.0803 246.138 54.0803C247.384 54.0803 248.356 54.4757 249.056 55.2666C249.756 56.0574 250.106 57.1488 250.106 58.5407ZM243.196 58.5407C243.196 59.7151 243.445 60.6068 243.943 61.2158C244.446 61.8208 245.173 62.1233 246.126 62.1233C247.087 62.1233 247.813 61.8208 248.303 61.2158C248.793 60.6108 249.038 59.7191 249.038 58.5407C249.038 57.3742 248.793 56.4904 248.303 55.8894C247.817 55.2843 247.095 54.9818 246.138 54.9818C245.177 54.9818 244.446 55.2863 243.943 55.8953C243.445 56.5003 243.196 57.3821 243.196 58.5407ZM258.375 59.6321C258.375 60.6167 258.094 61.4016 257.533 61.9869C256.975 62.5681 256.194 62.9003 255.19 62.9833V65.8067H254.217V62.9833C253.236 62.9082 252.461 62.5721 251.892 61.975C251.323 61.3779 251.038 60.5969 251.038 59.6321C251.038 58.6475 251.321 57.8645 251.886 57.2832C252.455 56.702 253.244 56.3718 254.253 56.2927V53.6591H255.19V56.2927C256.182 56.3836 256.961 56.7257 257.527 57.3188C258.092 57.912 258.375 58.6831 258.375 59.6321ZM252.07 59.6321C252.07 60.3913 252.244 60.9864 252.592 61.4174C252.94 61.8485 253.493 62.0995 254.253 62.1707V57.1172C253.521 57.1844 252.973 57.4236 252.61 57.8349C252.25 58.2421 252.07 58.8412 252.07 59.6321ZM257.355 59.6321C257.355 58.1176 256.633 57.2832 255.19 57.129V62.1707C255.941 62.0956 256.489 61.8425 256.833 61.4115C257.181 60.9805 257.355 60.3873 257.355 59.6321ZM260.534 56.3876V60.5099L260.493 61.5894L260.475 61.9275L263.993 56.3876H265.22V62.8884H264.301V58.9144L264.319 58.1314L264.348 57.3603L260.837 62.8884H259.609V56.3876H260.534ZM273.163 65.1364H272.178V62.8884H266.822V56.3876H267.807V62.0402H271.259V56.3876H272.244V62.0402H273.163V65.1364ZM274.866 56.3876V60.5099L274.824 61.5894L274.806 61.9275L278.324 56.3876H279.552V62.8884H278.632V58.9144L278.65 58.1314L278.68 57.3603L275.168 62.8884H273.94V56.3876H274.866ZM285.151 62.8884L284.956 61.9631H284.908C284.584 62.3704 284.26 62.6472 283.935 62.7935C283.615 62.9359 283.214 63.0071 282.731 63.0071C282.087 63.0071 281.581 62.841 281.213 62.5088C280.849 62.1767 280.667 61.7041 280.667 61.0912C280.667 59.7784 281.717 59.0903 283.817 59.0271L284.92 58.9915V58.5881C284.92 58.078 284.809 57.7024 284.588 57.4612C284.37 57.216 284.02 57.0934 283.538 57.0934C282.996 57.0934 282.383 57.2595 281.699 57.5917L281.397 56.8384C281.717 56.6644 282.067 56.528 282.447 56.4291C282.83 56.3303 283.214 56.2808 283.597 56.2808C284.372 56.2808 284.946 56.4528 285.317 56.7969C285.693 57.1409 285.881 57.6925 285.881 58.4517V62.8884H285.151ZM282.927 62.1945C283.54 62.1945 284.02 62.0264 284.368 61.6903C284.72 61.3542 284.896 60.8836 284.896 60.2786V59.6914L283.912 59.7329C283.129 59.7606 282.563 59.8832 282.215 60.1007C281.871 60.3142 281.699 60.6483 281.699 61.1031C281.699 61.459 281.806 61.7298 282.02 61.9157C282.237 62.1015 282.54 62.1945 282.927 62.1945ZM292.275 62.8884H291.279V57.2299H289.327C289.221 58.6376 289.072 59.7547 288.883 60.5811C288.693 61.4076 288.446 62.0126 288.141 62.3961C287.841 62.7797 287.457 62.9715 286.991 62.9715C286.777 62.9715 286.607 62.9477 286.48 62.9003V62.1707C286.567 62.1945 286.666 62.2063 286.777 62.2063C287.232 62.2063 287.594 61.7259 287.862 60.765C288.131 59.8041 288.335 58.345 288.473 56.3876H292.275V62.8884ZM294.868 59.0745H296.873C298.534 59.0745 299.364 59.6855 299.364 60.9073C299.364 61.5479 299.146 62.0383 298.711 62.3783C298.28 62.7184 297.648 62.8884 296.813 62.8884H293.883V56.3876H294.868V59.0745ZM294.868 59.9227V62.064H296.766C297.288 62.064 297.687 61.973 297.964 61.7911C298.241 61.6092 298.379 61.3344 298.379 60.9666C298.379 60.6068 298.251 60.3438 297.994 60.1778C297.741 60.0077 297.322 59.9227 296.736 59.9227H294.868ZM301.571 56.3876V59.1101H305.213V56.3876H306.197V62.8884H305.213V59.9583H301.571V62.8884H300.586V56.3876H301.571ZM308.784 59.0745H310.557C311.384 59.0745 311.995 59.2287 312.39 59.5372C312.79 59.8417 312.989 60.2984 312.989 60.9073C312.989 61.5598 312.778 62.0541 312.355 62.3902C311.936 62.7223 311.317 62.8884 310.498 62.8884H307.799V56.3876H308.784V59.0745ZM315.065 62.8884H314.081V56.3876H315.065V62.8884ZM308.784 59.9227V62.064H310.451C311.495 62.064 312.017 61.6982 312.017 60.9666C312.017 60.6029 311.896 60.3379 311.655 60.1718C311.414 60.0058 311.002 59.9227 310.421 59.9227H308.784ZM317.599 56.3876V60.5099L317.557 61.5894L317.539 61.9275L321.057 56.3876H322.284V62.8884H321.365V58.9144L321.383 58.1314L321.412 57.3603L317.901 62.8884H316.673V56.3876H317.599ZM319.455 55.5275C318.724 55.5275 318.19 55.3872 317.854 55.1064C317.517 54.8217 317.33 54.3551 317.29 53.7066H318.215C318.251 54.1178 318.358 54.4045 318.536 54.5666C318.718 54.7288 319.032 54.8098 319.479 54.8098C319.886 54.8098 320.187 54.7228 320.38 54.5489C320.578 54.3749 320.699 54.0941 320.742 53.7066H321.673C321.626 54.3314 321.426 54.792 321.074 55.0886C320.722 55.3812 320.183 55.5275 319.455 55.5275ZM329.154 63.0071C328.213 63.0071 327.483 62.7184 326.965 62.1411C326.451 61.5598 326.194 60.7393 326.194 59.6795C326.194 58.5921 326.455 57.7518 326.977 57.1587C327.503 56.5655 328.25 56.269 329.219 56.269C329.532 56.269 329.844 56.3026 330.156 56.3698C330.469 56.437 330.714 56.5161 330.892 56.6071L330.589 57.4434C330.372 57.3564 330.135 57.2852 329.878 57.2299C329.621 57.1705 329.393 57.1409 329.195 57.1409C327.875 57.1409 327.214 57.9831 327.214 59.6677C327.214 60.4664 327.374 61.0793 327.695 61.5064C328.019 61.9335 328.497 62.147 329.13 62.147C329.672 62.147 330.227 62.0303 330.797 61.797V62.669C330.362 62.8944 329.814 63.0071 329.154 63.0071ZM335.857 62.8884L335.661 61.9631H335.614C335.289 62.3704 334.965 62.6472 334.641 62.7935C334.321 62.9359 333.919 63.0071 333.437 63.0071C332.792 63.0071 332.286 62.841 331.918 62.5088C331.555 62.1767 331.373 61.7041 331.373 61.0912C331.373 59.7784 332.423 59.0903 334.522 59.0271L335.626 58.9915V58.5881C335.626 58.078 335.515 57.7024 335.293 57.4612C335.076 57.216 334.726 57.0934 334.244 57.0934C333.702 57.0934 333.089 57.2595 332.405 57.5917L332.102 56.8384C332.423 56.6644 332.773 56.528 333.152 56.4291C333.536 56.3303 333.919 56.2808 334.303 56.2808C335.078 56.2808 335.651 56.4528 336.023 56.7969C336.399 57.1409 336.586 57.6925 336.586 58.4517V62.8884H335.857ZM333.633 62.1945C334.246 62.1945 334.726 62.0264 335.074 61.6903C335.426 61.3542 335.602 60.8836 335.602 60.2786V59.6914L334.617 59.7329C333.834 59.7606 333.269 59.8832 332.921 60.1007C332.577 60.3142 332.405 60.6483 332.405 61.1031C332.405 61.459 332.512 61.7298 332.725 61.9157C332.943 62.1015 333.245 62.1945 333.633 62.1945ZM339.06 56.3876V60.5099L339.019 61.5894L339.001 61.9275L342.518 56.3876H343.746V62.8884H342.827V58.9144L342.845 58.1314L342.874 57.3603L339.363 62.8884H338.135V56.3876H339.06ZM340.917 55.5275C340.185 55.5275 339.651 55.3872 339.315 55.1064C338.979 54.8217 338.791 54.3551 338.752 53.7066H339.677C339.713 54.1178 339.82 54.4045 339.997 54.5666C340.179 54.7288 340.494 54.8098 340.941 54.8098C341.348 54.8098 341.648 54.7228 341.842 54.5489C342.04 54.3749 342.16 54.0941 342.204 53.7066H343.135C343.088 54.3314 342.888 54.792 342.536 55.0886C342.184 55.3812 341.644 55.5275 340.917 55.5275ZM349.731 57.2299H347.62V62.8884H346.635V57.2299H344.547V56.3876H349.731V57.2299Z" fill="#F53A41"/>
</svg>
