<svg width="70" height="70" viewBox="0 0 70 70" fill="none" xmlns="http://www.w3.org/2000/svg">
<path d="M35.3384 29.0912L26.673 6.10893L13.1097 0.0808105L0.676678 40.3939L8.21183 43.7847L35.3384 29.0912Z" fill="#FFA800"/>
<path d="M35.3384 29.0912L44.0038 6.10893L57.5671 0.0808105L70.0001 40.3939L62.4649 43.7847L35.3384 29.0912Z" fill="#FFE500"/>
<path d="M35.3384 29.091L42.12 11.0067L56.4368 16.2813L69.2466 69.4041L54.9298 63.376L49.6552 41.1473L42.12 58.1014L35.3384 55.0873V29.091Z" fill="#FFA800"/>
<path d="M35.3384 55.0874L29.687 58.1015L21.3983 40.0171L15.3702 63.3761L1.43018 69.781L13.4864 16.2814L28.5567 11.3835L35.3384 29.0912V55.0874Z" fill="#FFE600"/>
</svg>
