<svg width="80" height="80" viewBox="0 0 80 80" fill="none" xmlns="http://www.w3.org/2000/svg">
<rect width="80" height="80" rx="23.7624" fill="#F53A41"/>
<path d="M39.7306 35.819L33.5267 19.3652L23.8162 15.0494L14.915 43.9111L20.3097 46.3387L39.7306 35.819Z" fill="#FFA800"/>
<path d="M39.7306 35.819L45.9345 19.3652L55.645 15.0494L64.5462 43.9111L59.1515 46.3387L39.7306 35.819Z" fill="#FFE500"/>
<path d="M39.7306 35.8192L44.5858 22.8719L54.8358 26.6482L64.0067 64.6809L53.7568 60.3651L49.9805 44.4508L44.5858 56.5888L39.7306 54.4309V35.8192Z" fill="#FFA800"/>
<path d="M39.7304 54.4309L35.6843 56.5887L29.7502 43.6415L25.4344 60.365L15.4542 64.9505L24.0857 26.6482L34.8751 23.1416L39.7304 35.8191V54.4309Z" fill="#FFE600"/>
</svg>
