<svg width="19" height="14" viewBox="0 0 19 14" fill="none" xmlns="http://www.w3.org/2000/svg">
<path d="M9.52384 8.39613H9.52791C9.67119 8.39613 9.81279 8.35033 9.92735 8.26694L9.95842 8.24494C9.96519 8.24008 9.97227 8.23567 9.97938 8.23044L10.3413 7.90051L18.9801 0.0458028C18.9622 0.0186084 18.9317 0 18.8993 0H0.100371C0.0770556 0 0.0554167 0.00930439 0.0381863 0.0249369L9.07638 8.233C9.19029 8.33692 9.35281 8.39613 9.52384 8.39613ZM0 1.11299V12.756L6.47459 6.99311L0 1.11299ZM12.5322 7.03221L19 12.7589V1.15171L12.5322 7.03221ZM10.4758 8.9014C10.218 9.13449 9.88071 9.26297 9.52654 9.26297C9.17104 9.26297 8.8341 9.13524 8.57695 8.90325L7.09405 7.55571L0 13.869V13.889C0 13.949 0.0466307 14 0.101706 14H18.8996C18.9537 14 19 13.949 19 13.8887V13.87L11.912 7.59522L10.4758 8.9014Z" fill="#D93232"/>
</svg>
