<svg width="34" height="34" viewBox="0 0 34 34" fill="none" xmlns="http://www.w3.org/2000/svg">
<circle cx="17" cy="17" r="17" fill="white"/>
<path d="M5 15.5C4.17157 15.5 3.5 16.1716 3.5 17C3.5 17.8284 4.17157 18.5 5 18.5L5 15.5ZM29.0607 18.0607C29.6464 17.4749 29.6464 16.5251 29.0607 15.9393L19.5147 6.3934C18.9289 5.80761 17.9792 5.80761 17.3934 6.3934C16.8076 6.97919 16.8076 7.92893 17.3934 8.51472L25.8787 17L17.3934 25.4853C16.8076 26.0711 16.8076 27.0208 17.3934 27.6066C17.9792 28.1924 18.9289 28.1924 19.5147 27.6066L29.0607 18.0607ZM5 18.5L28 18.5L28 15.5L5 15.5L5 18.5Z" fill="#3E8CE5"/>
</svg>
