<svg width="472" height="456" viewBox="0 0 472 456" fill="none" xmlns="http://www.w3.org/2000/svg">
<path d="M58.8283 38.3051C40.81 56.5977 26.2865 79.2611 16.7202 101.537C0.283247 139.812 -2.32841 182.598 1.62468 223.631C3.64812 244.637 7.45131 265.455 12.446 285.95C16.2183 301.427 18.0701 328.4 34.5663 334.321C106.938 360.296 197.635 382.783 274.838 371.022C313.513 365.129 357.299 371.805 394.571 359.075C419.662 350.506 438.853 329.126 449.913 305.043C470.722 259.712 474.009 207.313 469.246 158.27C467.255 137.774 466.162 109.148 455.015 91.6651C443.214 73.1607 419.423 60.9612 401.255 49.8376C342.546 13.895 269.995 3.77381 202.313 2.00213C166.8 1.07697 121.729 -4.73758 89.8919 13.7932C78.715 20.2971 68.2895 28.6992 58.8283 38.3051Z" fill="#F5F5F5"/>
<path d="M158.44 96.7629C159.311 94.8776 160.309 93.1667 161.231 91.8981C165.647 85.8448 171.707 82.1321 178.756 81.1716C186.308 80.1325 194.383 82.4971 200.91 87.6519C207.424 92.8002 210.801 99.4596 210.422 106.414C210.02 113.787 205.376 120.779 197.683 125.593C188.887 131.103 178.991 131.332 169.821 126.237C158.776 120.103 155.37 111.587 158.782 98.613C158.958 97.9519 158.811 97.2806 158.44 96.7629ZM261.337 91.4854C260.227 90.2848 258.704 90.1428 257.891 90.0651C254.219 89.7199 250.482 89.5113 246.765 89.4456L245.655 82.7705C245.627 82.6081 245.575 82.1839 245.509 82.244C245.601 82.132 245.969 81.8975 246.195 81.7587L251.537 78.3873C252.167 77.9908 253.343 77.2478 253.799 75.8479C254.239 74.5053 253.794 73.2751 253.558 72.6121C251.474 66.8013 249.022 61.044 246.27 55.5223C246.015 55.0083 245.342 53.6587 243.798 53.2937C243.634 53.2562 243.252 53.2165 243.085 53.2165C242.225 53.2165 241.533 53.5607 241.159 53.7508L230.224 59.2846L226.595 55.7661C226.449 55.6222 226.127 55.3391 226.124 55.3581C226.13 55.1855 226.345 54.7025 226.429 54.5183L230.18 46.0912C230.514 45.3524 231.068 44.1046 230.772 42.6713C230.41 40.9452 229.016 39.9504 228.265 39.4161L216.327 30.9223C215.766 30.5254 214.541 29.7319 213.19 29.8541C211.661 29.991 210.703 31.0459 210.186 31.6121L201.907 40.7439C201.09 40.4853 200.309 40.198 199.498 39.8973C198.572 39.5581 197.621 39.2 196.586 38.8882L192.069 24.5392C191.756 23.5445 190.776 22.9106 189.758 23.0078C183.045 23.6323 176.37 24.9463 169.913 26.8903C169.174 27.1133 168.608 27.7055 168.412 28.4485C167.415 32.2964 166.786 36.2419 166.541 40.2035L159.731 42.1901C157.882 38.94 155.763 35.8324 153.415 32.9307C152.716 32.072 151.483 31.861 150.537 32.4463C144.623 36.1067 138.501 39.5785 132.34 42.7666C131.403 43.2505 130.939 44.3331 131.236 45.3477C132.455 49.5236 134.016 53.6259 135.882 57.5598C132.88 60.2723 131.609 61.1162 131.095 61.3688C129.408 61.0056 122.2 59.4673 119.228 58.8969C118.388 58.7373 117.546 59.0694 117.04 59.7477L104.992 75.983C104.618 76.4859 104.477 77.1303 104.603 77.7424C104.73 78.3619 105.113 78.8888 105.656 79.2085L118.857 86.8798C118.926 86.9186 119.064 86.9977 119.182 87.0768C119.158 87.186 119.13 87.298 119.113 87.3655L117.589 93.2527L108.474 94.278C107.832 94.3511 106.645 94.488 105.725 95.4378C104.9 96.2974 104.745 97.3495 104.661 97.9135C103.727 104.269 103.1 110.756 102.801 117.184C102.747 118.343 103.598 119.346 104.747 119.48L115.473 120.753C117.977 121.046 119.398 121.625 119.694 122.48C119.814 122.835 119.826 123.424 119.834 123.996C119.849 124.786 119.866 125.755 120.182 126.7C117.015 130.49 113.547 134.065 109.862 137.348C109.011 138.109 108.876 139.393 109.557 140.312C112.633 144.463 115.436 148.878 117.888 153.421C118.331 154.241 119.242 154.699 120.168 154.555L134.295 152.374C134.553 152.334 134.812 152.288 135.206 152.298C135.385 152.355 135.824 152.848 136.014 153.06C136.465 153.565 137.152 154.225 137.937 154.977C139.164 156.151 142.353 159.195 142.66 160.442C142.269 161.14 141.145 162.762 140.3 163.99C136.64 169.279 135.41 171.057 137.44 172.621C141.444 175.703 145.86 178.216 150.555 180.09C151.502 180.475 152.742 180.761 153.84 180.416C154.803 180.118 155.421 179.492 155.833 179.075L166.285 168.521C168.352 168.982 170.365 169.749 172.213 170.777C172.259 174.685 172.57 178.606 173.13 182.464C173.288 183.543 174.208 184.348 175.298 184.356C182.385 184.405 189.557 184.878 196.611 185.747C196.701 185.762 196.792 185.763 196.881 185.763C197.905 185.763 198.811 185.061 199.038 184.037C200.058 179.436 200.682 174.734 200.895 170.025C202.087 169.755 203.304 169.586 204.523 169.514L204.945 169.46C205.066 169.552 205.31 169.937 205.391 170.061C206.938 172.488 208.303 175.051 209.445 177.678C209.703 178.28 210.218 178.733 210.845 178.916C211.471 179.101 212.149 178.996 212.693 178.635C220.466 173.453 227.809 169.774 234.516 167.691C235.137 167.501 235.639 167.045 235.893 166.446C236.146 165.851 236.125 165.17 235.832 164.59L230.091 153.194C230.062 153.142 230.016 153.05 229.977 152.964C230.037 152.893 230.1 152.817 230.14 152.777L234.579 147.839C238.155 150.278 242.053 152.157 246.193 153.441C247.268 153.773 248.401 153.253 248.861 152.239C251.974 145.345 254.82 138.233 257.321 131.095C257.615 130.261 257.379 129.33 256.723 128.732C253.949 126.212 250.876 124.062 247.564 122.317C248.386 119.823 249.07 117.275 249.617 114.703C252.313 114.48 255.013 114.41 257.689 114.489C258.773 114.522 259.707 113.773 259.92 112.718C261.061 107.052 262.24 101.195 262.439 95.2421C262.467 94.4436 262.521 92.7674 261.337 91.4854Z" fill="#FFD716"/>
<path d="M292.424 169.611C293.027 168.312 293.718 167.134 294.357 166.259C297.416 162.089 301.614 159.531 306.497 158.869C311.728 158.153 317.322 159.783 321.842 163.334C326.354 166.881 328.694 171.469 328.431 176.261C328.152 181.341 324.936 186.159 319.608 189.475C313.514 193.271 306.66 193.43 300.308 189.919C292.657 185.693 290.297 179.825 292.661 170.886C292.783 170.43 292.681 169.968 292.424 169.611ZM363.699 165.975C362.93 165.148 361.875 165.05 361.311 164.996C358.769 164.759 356.18 164.615 353.606 164.57L352.836 159.971C352.816 159.859 352.781 159.566 352.735 159.608C352.799 159.531 353.054 159.369 353.211 159.273L356.911 156.951C357.347 156.678 358.161 156.165 358.478 155.2C358.783 154.276 358.474 153.428 358.31 152.971C356.867 148.967 355.168 145.001 353.262 141.196C353.085 140.843 352.619 139.912 351.55 139.661C351.437 139.635 351.172 139.607 351.056 139.607C350.461 139.607 349.981 139.845 349.722 139.976L342.147 143.789L339.634 141.364C339.532 141.265 339.309 141.07 339.308 141.083C339.311 140.965 339.461 140.631 339.519 140.505L342.117 134.698C342.348 134.189 342.732 133.329 342.528 132.342C342.277 131.153 341.311 130.468 340.791 130.099L332.521 124.247C332.133 123.973 331.285 123.427 330.348 123.511C329.289 123.605 328.626 124.332 328.268 124.722L322.533 131.014C321.967 130.836 321.425 130.638 320.864 130.431C320.223 130.197 319.563 129.951 318.847 129.736L315.719 119.85C315.501 119.166 314.823 118.726 314.117 118.795C309.468 119.226 304.844 120.128 300.372 121.469C299.86 121.623 299.467 122.031 299.332 122.543C298.641 125.194 298.205 127.913 298.035 130.642L293.318 132.011C292.038 129.771 290.57 127.63 288.943 125.63C288.459 125.039 287.605 124.894 286.95 125.297C282.854 127.819 278.613 130.211 274.345 132.408C273.696 132.742 273.375 133.487 273.581 134.187C274.425 137.063 275.506 139.89 276.798 142.6C274.719 144.469 273.839 145.051 273.483 145.225C272.314 144.975 267.322 143.915 265.263 143.521C264.681 143.411 264.098 143.64 263.748 144.108L255.402 155.294C255.143 155.641 255.045 156.084 255.133 156.506C255.22 156.933 255.485 157.296 255.862 157.516L265.006 162.802C265.053 162.829 265.149 162.883 265.231 162.938C265.215 163.013 265.195 163.09 265.183 163.136L264.128 167.193L257.813 167.899C257.369 167.95 256.547 168.043 255.91 168.698C255.338 169.291 255.231 170.016 255.173 170.404C254.525 174.783 254.092 179.252 253.884 183.681C253.846 184.48 254.436 185.171 255.233 185.263L262.662 186.141C264.397 186.342 265.38 186.742 265.585 187.33C265.669 187.575 265.677 187.981 265.683 188.375C265.693 188.919 265.705 189.587 265.924 190.238C263.729 192.849 261.328 195.312 258.775 197.575C258.186 198.099 258.092 198.984 258.564 199.617C260.694 202.477 262.636 205.519 264.334 208.649C264.641 209.214 265.273 209.529 265.914 209.43L275.699 207.927C275.878 207.9 276.058 207.868 276.33 207.875C276.454 207.915 276.758 208.253 276.89 208.4C277.202 208.747 277.679 209.203 278.222 209.721C279.072 210.53 281.281 212.627 281.494 213.486C281.223 213.967 280.444 215.085 279.859 215.93C277.324 219.575 276.472 220.8 277.878 221.878C280.651 224.001 283.71 225.732 286.962 227.023C287.619 227.289 288.477 227.486 289.238 227.249C289.905 227.043 290.333 226.612 290.618 226.324L297.858 219.052C299.29 219.37 300.684 219.899 301.964 220.607C301.996 223.3 302.211 226 302.6 228.66C302.709 229.402 303.346 229.957 304.101 229.963C309.009 229.997 313.978 230.322 318.865 230.922C318.927 230.931 318.99 230.932 319.052 230.932C319.761 230.932 320.389 230.448 320.545 229.743C321.252 226.573 321.685 223.334 321.832 220.089C322.658 219.903 323.501 219.786 324.345 219.737L324.638 219.7C324.722 219.763 324.891 220.028 324.946 220.114C326.018 221.786 326.964 223.552 327.754 225.362C327.934 225.777 328.289 226.089 328.724 226.214C329.158 226.342 329.628 226.27 330.004 226.021C335.389 222.452 340.475 219.916 345.12 218.481C345.55 218.35 345.899 218.036 346.074 217.623C346.25 217.213 346.235 216.744 346.032 216.344L342.056 208.492C342.036 208.456 342.004 208.393 341.976 208.334C342.018 208.285 342.062 208.232 342.089 208.205L345.164 204.803C347.641 206.483 350.341 207.778 353.209 208.663C353.954 208.891 354.738 208.533 355.057 207.835C357.213 203.085 359.185 198.185 360.917 193.266C361.12 192.692 360.957 192.05 360.503 191.638C358.581 189.902 356.452 188.42 354.159 187.219C354.728 185.5 355.202 183.744 355.58 181.972C357.449 181.819 359.318 181.77 361.172 181.825C361.923 181.848 362.57 181.331 362.718 180.605C363.508 176.7 364.325 172.664 364.462 168.563C364.482 168.013 364.52 166.858 363.699 165.975Z" fill="#E94222"/>
<path d="M294.429 67.5031C294.82 66.6637 295.267 65.9026 295.682 65.338C297.663 62.6446 300.382 60.9927 303.546 60.5654C306.935 60.1028 310.56 61.1549 313.488 63.4488C316.412 65.7394 317.928 68.7026 317.757 71.797C317.577 75.0781 315.493 78.1892 312.041 80.3315C308.093 82.783 303.652 82.8854 299.537 80.6184C294.58 77.8888 293.051 74.0992 294.582 68.3262C294.661 68.0319 294.596 67.7334 294.429 67.5031ZM340.607 65.1545C340.109 64.6201 339.425 64.5571 339.06 64.5223C337.412 64.3689 335.735 64.2762 334.067 64.2465L333.569 61.2764C333.556 61.2041 333.533 61.0159 333.503 61.0423C333.545 60.9927 333.71 60.888 333.812 60.8259L336.209 59.3264C336.492 59.1498 337.02 58.8189 337.224 58.1964C337.422 57.5985 337.222 57.051 337.116 56.7563C336.181 54.1704 335.08 51.6091 333.845 49.1516C333.73 48.9231 333.428 48.3223 332.736 48.1601C332.662 48.1434 332.491 48.1254 332.416 48.1254C332.03 48.1254 331.719 48.2788 331.551 48.3636L326.644 50.8258L325.016 49.26C324.95 49.1965 324.806 49.07 324.804 49.0788C324.807 49.0019 324.904 48.7868 324.941 48.7047L326.625 44.955C326.774 44.6264 327.023 44.0711 326.891 43.4333C326.728 42.6653 326.102 42.2227 325.765 41.9849L320.407 38.2055C320.155 38.0289 319.606 37.6757 319 37.7299C318.313 37.7906 317.884 38.2602 317.652 38.5123L313.936 42.5754C313.569 42.4604 313.218 42.3325 312.855 42.199C312.439 42.0479 312.012 41.8889 311.548 41.7499L309.521 35.3656C309.381 34.9234 308.94 34.6393 308.484 34.6842C305.471 34.9628 302.475 35.545 299.578 36.4112C299.246 36.51 298.992 36.7737 298.904 37.1046C298.456 38.8168 298.174 40.5721 298.064 42.3353L295.008 43.2192C294.179 41.7731 293.228 40.3899 292.174 39.0986C291.86 38.7167 291.307 38.6231 290.882 38.8836C288.228 40.5123 285.481 42.0567 282.716 43.476C282.295 43.6915 282.087 44.1731 282.22 44.624C282.767 46.4822 283.468 48.308 284.305 50.0586C282.958 51.2651 282.388 51.6411 282.157 51.7532C281.4 51.5915 278.165 50.9073 276.832 50.6533C276.455 50.5824 276.077 50.7298 275.849 51.0315L270.443 58.2562C270.275 58.48 270.211 58.7665 270.268 59.039C270.325 59.3148 270.497 59.5493 270.74 59.6912L276.665 63.1049C276.696 63.122 276.758 63.1577 276.811 63.1929C276.8 63.2411 276.788 63.2912 276.78 63.3213L276.096 65.9406L272.004 66.3971C271.717 66.4296 271.185 66.4903 270.772 66.9131C270.402 67.2954 270.331 67.764 270.294 68.0148C269.875 70.8431 269.594 73.7293 269.459 76.5896C269.435 77.105 269.817 77.5518 270.333 77.6112L275.146 78.178C276.27 78.3083 276.908 78.5664 277.04 78.946C277.094 79.1041 277.1 79.3665 277.104 79.6209C277.11 79.9723 277.118 80.4042 277.26 80.8242C275.838 82.5109 274.282 84.1011 272.628 85.5621C272.246 85.9014 272.185 86.4724 272.491 86.8812C273.872 88.7283 275.129 90.6931 276.23 92.7144C276.429 93.0792 276.838 93.2832 277.253 93.2192L283.592 92.2486C283.709 92.2305 283.825 92.2102 284.002 92.2148C284.082 92.2407 284.279 92.459 284.364 92.5536C284.567 92.7784 284.876 93.0727 285.228 93.4069C285.778 93.9293 287.209 95.2836 287.347 95.8389C287.172 96.149 286.667 96.8711 286.288 97.4176C284.646 99.7713 284.094 100.562 285.004 101.258C286.802 102.63 288.783 103.748 290.89 104.582C291.315 104.753 291.872 104.88 292.364 104.727C292.797 104.594 293.075 104.315 293.259 104.13L297.949 99.4334C298.877 99.6387 299.78 99.9803 300.61 100.437C300.631 102.176 300.77 103.921 301.021 105.638C301.093 106.118 301.505 106.476 301.994 106.48C305.174 106.501 308.393 106.712 311.56 107.099L311.681 107.106C312.14 107.106 312.546 106.793 312.648 106.338C313.106 104.29 313.386 102.198 313.482 100.103C314.017 99.9826 314.563 99.9075 315.11 99.8751L315.3 99.8519C315.354 99.8922 315.463 100.064 315.499 100.119C316.194 101.199 316.806 102.339 317.319 103.508C317.435 103.776 317.666 103.978 317.947 104.059C318.228 104.141 318.533 104.095 318.776 103.934C322.265 101.629 325.56 99.991 328.57 99.064C328.849 98.9801 329.074 98.7771 329.188 98.5106C329.302 98.2459 329.292 97.9423 329.161 97.6846L326.584 92.6129L326.533 92.5109L326.606 92.428L328.599 90.231C330.203 91.3165 331.953 92.1522 333.81 92.7232C334.293 92.8711 334.801 92.6393 335.008 92.1884C336.405 89.1209 337.682 85.9561 338.805 82.7801C338.936 82.4089 338.831 81.9945 338.536 81.7285C337.292 80.6073 335.912 79.6506 334.426 78.8742C334.795 77.7641 335.102 76.6304 335.347 75.486C336.557 75.3868 337.769 75.3553 338.969 75.3905C339.456 75.4049 339.876 75.0721 339.971 74.6025C340.483 72.0816 341.012 69.4748 341.101 66.8264C341.114 66.4704 341.138 65.7251 340.607 65.1545Z" fill="#5CA3FD"/>
<path d="M213.257 182.081C213.648 181.126 213.886 180.106 213.96 179.071C214.031 178.066 213.783 176.82 212.824 176.491C211.876 176.167 210.956 176.975 210.358 177.761C207.588 181.394 206.368 185.954 205.206 190.388C204.333 189.962 204.704 190.662 208.795 191.214C209.053 189.326 210.817 188.086 211.927 186.548C213.112 184.91 214.794 183.419 214.944 181.39C214.683 181.33 214.421 181.269 214.16 181.209C213.859 181.5 213.558 181.79 213.257 182.081Z" fill="#C8AE9A"/>
<path d="M253.293 387.336C252.308 369.316 254.377 350.938 254.197 332.806C254.845 326.522 253.794 320.12 251.125 314.212C250.959 313.845 250.779 313.47 250.45 313.189C249.426 312.317 247.675 312.78 246.316 313.244C233.289 317.686 217.902 316.64 206.025 310.368C203.679 313.325 203.005 316.951 202.426 320.456C201.49 326.12 200.465 331.773 200.214 337.463L200.211 337.496H200.212C200.16 338.717 200.129 339.94 200.158 341.166C200.321 348.258 201.976 355.246 203.269 362.236C204.112 366.796 204.855 371.387 204.925 376.007C204.983 379.789 204.342 383.245 205.364 386.946C207.883 396.063 207.889 405.994 208.954 415.309C210.095 425.283 211.22 435.258 212.153 445.25C212.19 445.649 212.226 446.043 212.263 446.441C212.871 446.576 222.159 448.346 222.159 446.358C222.904 426.967 223.649 407.578 224.393 388.188C224.707 380.029 223.994 352.464 226.494 344.69C227.525 344.775 228.555 344.861 229.585 344.946C235.249 370.604 241.959 415.549 247.621 441.209C248.12 443.466 248.725 445.903 250.525 447.359C252.325 448.814 255.687 448.406 256.219 446.154C254.556 426.55 254.366 406.951 253.293 387.336Z" fill="#1F375A"/>
<path d="M236.749 212.455C236.749 205.886 230.997 200.56 223.9 200.56C216.803 200.56 211.05 205.886 211.05 212.455C211.05 213.552 211.223 214.609 211.524 215.618C211.535 215.876 211.54 216.14 211.536 216.416C211.499 218.786 211.607 221.172 212.073 223.511C212.979 228.059 215.344 232.291 219.818 234.878C221.309 235.74 223.021 236.396 224.802 236.384C227.197 236.366 229.395 235.14 231.06 233.618C236.559 228.591 237.032 221.035 236.644 213.904C236.707 213.428 236.749 212.947 236.749 212.455Z" fill="#C8AE9A"/>
<path d="M223.169 446.751C220.417 446.556 217.637 446.658 214.912 447.052C212.812 448.413 210.511 449.537 208.084 450.391C207.379 450.637 206.637 450.879 206.116 451.357C205.597 451.84 205.386 452.652 205.872 453.158C206.297 453.604 207.048 453.651 207.713 453.66C212.801 453.706 217.894 453.33 222.899 452.536C223.199 452.485 223.518 452.429 223.735 452.244C223.908 452.095 223.989 451.882 224.053 451.677C224.564 450.024 224.235 448.19 223.169 446.751Z" fill="#3D322B"/>
<path d="M255.194 447.433C252.698 447.686 250.238 448.199 247.886 448.964C246.287 450.49 244.462 451.838 242.469 452.962C241.89 453.289 241.277 453.616 240.91 454.124C240.544 454.628 240.52 455.379 241.057 455.757C241.527 456.089 242.207 456.014 242.802 455.921C247.352 455.183 251.821 454.073 256.128 452.608C256.386 452.519 256.659 452.421 256.815 452.221C256.939 452.062 256.968 451.861 256.984 451.67C257.104 450.126 256.437 448.549 255.194 447.433Z" fill="#3D322B"/>
<path d="M208.797 191.57C209.455 189.86 209.991 187.565 208.721 186.762C207.411 185.935 205.638 187.598 204.476 189.077C201.924 192.326 199.373 195.576 196.821 198.825C191.846 205.16 186.78 211.65 183.685 219.148C182.423 222.204 181.541 225.847 182.969 228.307C183.857 229.835 185.468 230.581 187.046 231.166C194.908 234.075 196.034 224.73 198.705 217.79C202.069 209.05 205.433 200.31 208.797 191.57Z" fill="#1F375A"/>
<path d="M255.221 325.334C255.176 312.892 255.132 300.449 255.087 288.007C255.049 277.523 252.643 266.399 251.076 256.044C250.214 250.346 249.197 248.365 246.593 243.284C246.222 242.561 246.16 242.072 242.711 240.97C241.962 240.731 240.181 239.727 239.263 239.881C234.759 240.636 230.175 238.943 225.672 239.698C220.905 240.497 212.912 238.103 209.198 241.338C204.179 245.708 203.83 256.092 203.032 262.885C201.955 272.048 199.4 281.343 198.949 290.562C198.552 298.654 198.338 306.753 198.188 314.853C198.11 319.076 196.557 333.757 200.378 336.582C202.613 338.234 208.596 338.908 214.752 339.111C214.973 339.118 215.194 339.126 215.416 339.132C215.475 339.133 215.534 339.134 215.593 339.136C218.1 339.202 220.605 339.193 222.876 339.144C226.227 339.071 229.063 338.912 230.601 338.772C237.782 338.122 244.874 336.67 251.908 335.065C253.158 334.78 254.538 334.398 255.221 333.264C255.712 332.448 255.224 326.299 255.221 325.334Z" fill="#1F375A"/>
<path d="M197.824 264.824C199.207 266.695 200.822 268.522 202.948 269.406C205.076 270.291 207.821 269.948 209.09 268.078C210.247 266.369 209.873 264.034 209.347 261.985C208 256.75 215.052 258.069 213.013 253.047C210.863 247.752 199.614 236.096 197.463 230.801C196.812 229.197 196.099 227.509 194.724 226.459C192.321 224.623 185.829 225.425 184.757 228.422C183.795 231.11 186.842 238.603 187.574 241.43C189.71 249.685 192.688 257.882 197.824 264.824Z" fill="#1F375A"/>
<path d="M233.916 242.818C234.054 242.806 234.192 242.796 234.33 242.784C234.113 243.358 233.895 243.931 233.678 244.504C233.758 243.942 233.837 243.38 233.916 242.818ZM231.398 251.087C231.669 249.149 232.945 247.623 234.601 246.624C234.965 244.741 235.329 242.859 235.693 240.976C235.737 240.913 235.783 240.852 235.818 240.783C235.933 240.565 235.987 240.313 235.966 240.074C235.526 239.986 235.083 239.906 234.641 239.82C229.047 240.935 223.31 240.967 217.632 239.499C217.697 239.953 217.72 240.417 217.676 240.89C214.648 273.466 213.41 306.166 214.629 338.847C215.438 338.582 216.344 338.438 217.352 338.453C220.469 338.502 223.698 338.912 226.925 339.183C219.275 310.41 227.315 280.244 231.398 251.087Z" fill="#E8E8E8"/>
<path d="M241.072 206.483C240.003 201.973 236.784 198.472 232.684 196.427C226.27 193.229 215.444 193.004 212.178 200.644C205.77 202.887 209.064 213.025 215.455 210.705C215.528 210.678 215.607 210.649 215.682 210.622C218.975 212.245 223.608 212.778 227.683 212.847C229.204 216.571 232.296 219.77 236.796 217.942C241.117 216.184 242.042 210.571 241.072 206.483Z" fill="#8A6239"/>
<path d="M203.707 454.454C203.698 453.815 204.667 453.297 206.164 452.876C204.681 453.292 203.716 453.806 203.707 454.435V454.454Z" fill="url(#paint0_linear)"/>
<path d="M132.187 453.209C130.175 453.209 128.396 453.014 127.727 452.316C127.286 451.853 127.308 451.446 127.673 451.085C127.308 451.446 127.287 451.853 127.728 452.316C128.396 453.014 130.175 453.209 132.187 453.209C134.75 453.209 137.691 452.89 139.194 452.885C145.057 452.862 150.919 452.839 156.781 452.816C168.508 452.769 180.233 452.723 191.961 452.677C193.124 452.672 199.047 452.57 205.9 452.232C199.046 452.57 193.124 452.672 191.96 452.677C180.233 452.723 168.507 452.769 156.781 452.816C150.919 452.839 145.056 452.862 139.193 452.885C137.691 452.89 134.75 453.209 132.187 453.209ZM224.096 450.613H224.097C225.857 450.326 227.342 449.997 228.415 449.622C229.025 449.414 229.503 449.187 229.822 448.946C229.503 449.187 229.025 449.414 228.414 449.622C227.341 449.997 225.857 450.326 224.096 450.613Z" fill="url(#paint1_linear)"/>
<path d="M205.9 452.232C207.737 452.14 209.639 452.033 211.537 451.908C211.534 451.908 211.532 451.908 211.529 451.908C209.635 452.033 207.734 452.145 205.9 452.232ZM219.625 451.214C221.237 451.034 222.748 450.835 224.097 450.613H224.096C222.75 450.835 221.241 451.034 219.632 451.214C219.63 451.214 219.627 451.214 219.625 451.214Z" fill="url(#paint2_linear)"/>
<path d="M144.216 382.843C145.051 364.417 143.298 345.624 143.451 327.083C142.902 320.656 143.792 314.11 146.054 308.068C146.194 307.693 146.346 307.309 146.626 307.022C147.494 306.13 148.977 306.604 150.128 307.078C161.165 311.621 174.201 310.552 184.264 304.138C186.251 307.161 186.822 310.87 187.312 314.453C188.105 320.245 188.974 326.026 189.187 331.845L189.189 331.878H189.188C189.233 333.127 189.259 334.377 189.235 335.631C189.096 342.883 187.694 350.029 186.599 357.177C185.883 361.84 185.255 366.535 185.196 371.259C185.146 375.126 185.69 378.66 184.823 382.445C182.69 391.768 182.684 401.924 181.782 411.449C180.816 421.648 179.862 431.85 179.072 442.067C179.041 442.474 179.009 442.88 178.978 443.287C178.463 443.421 170.595 445.233 170.595 443.195C169.963 423.37 169.332 403.542 168.701 383.715C168.436 375.372 168.153 366.906 166.035 358.957C165.162 359.044 164.289 359.131 163.416 359.219C158.618 385.457 153.82 411.694 149.022 437.93C148.599 440.241 148.087 442.732 146.562 444.225C145.037 445.714 142.189 445.293 141.738 442.991C143.147 422.944 143.308 402.902 144.216 382.843Z" fill="#333333"/>
<path d="M170.707 444.411C173.001 444.222 175.317 444.323 177.588 444.715C179.338 446.076 181.256 447.202 183.278 448.056C183.866 448.301 184.484 448.54 184.918 449.025C185.351 449.505 185.527 450.317 185.121 450.824C184.767 451.272 184.141 451.318 183.588 451.323C179.348 451.374 175.104 450.995 170.932 450.202C170.682 450.155 170.416 450.095 170.236 449.911C170.091 449.759 170.024 449.551 169.971 449.343C169.545 447.691 169.819 445.855 170.707 444.411Z" fill="#736357"/>
<path d="M145.986 444.324C143.547 444.278 141.101 444.523 138.722 445.064C136.953 446.543 134.992 447.796 132.903 448.785C132.297 449.072 131.657 449.353 131.228 449.867C130.798 450.38 130.662 451.207 131.122 451.693C131.524 452.118 132.19 452.127 132.776 452.095C137.266 451.873 141.734 451.226 146.101 450.167C146.362 450.102 146.64 450.028 146.82 449.83C146.964 449.668 147.022 449.451 147.066 449.243C147.416 447.551 147.013 445.72 145.986 444.324Z" fill="#736357"/>
<path d="M164.057 228.596C166.453 228.576 168.651 227.197 170.315 225.484C176.515 219.107 176.329 209.112 175.72 200.265C175.656 199.327 175.574 198.338 175.038 197.562C174.214 196.368 172.603 196.052 171.155 195.887C164.968 195.887 158.863 196.166 152.627 196.466C152.104 196.49 151.543 196.529 151.13 196.851C150.69 197.194 150.527 197.777 150.432 198.325C149.995 200.868 150.827 203.53 150.791 206.13C150.754 208.797 150.862 211.482 151.328 214.112C152.234 219.23 154.599 223.991 159.074 226.901C160.564 227.871 162.276 228.61 164.057 228.596Z" fill="#F0E5D4"/>
<path d="M175.23 191.686C179.209 194.683 179.37 200.416 178.974 205.317C178.801 207.455 178.353 209.95 176.397 210.915C176.489 208.728 175.03 206.806 173.642 205.09C172.691 203.914 171.698 202.703 170.334 202.02C166.218 199.956 161.739 203.242 157.597 203.517C154.84 203.699 153.867 202.474 152.885 205.519C152.089 207.987 151.824 210.731 151.806 213.305C151.804 213.632 151.802 213.98 151.625 214.257C151.448 214.536 151.027 214.691 150.771 214.48C150.663 214.391 150.606 214.258 150.553 214.13C149.117 210.693 146.411 206.99 145.885 203.348C145.235 198.855 145.864 194.096 147.469 189.854C147.783 189.025 148.348 188.068 149.251 188.1C149.896 188.123 150.377 188.658 150.884 189.047C152.062 189.953 153.658 190.17 155.151 190.051C156.643 189.932 158.093 189.515 159.572 189.285C162.43 188.841 165.073 189.49 167.891 189.62C170.469 189.74 173.122 190.098 175.23 191.686Z" fill="#333333"/>
<path d="M170.931 230.62C174.842 226.464 178.53 231.107 179.98 235.15C185.83 251.469 187.784 268.947 189.693 286.229C189.999 288.998 190.305 291.766 190.611 294.535C191.713 304.505 192.814 314.476 193.916 324.446C193.981 325.033 182.584 327.464 181.615 327.706C175.663 329.195 169.458 329.247 163.376 328.844C155.762 328.339 148.183 327.131 140.552 327.158C137.298 327.169 133.99 327.4 130.835 326.575C132.085 320.782 132.178 314.804 132.42 308.876C133.005 294.579 134.486 280.338 135.966 266.109C136.796 258.126 137.264 249.962 138.339 242.048C138.928 237.723 140.888 230.154 145.221 228.263C149.82 226.257 152.072 231.591 155.804 232.989C160.074 234.587 165.306 234.864 169.203 232.173C169.925 231.674 170.454 231.127 170.931 230.62Z" fill="#333333"/>
<path d="M190.882 319.821C191.05 319.789 191.109 319.7 191.012 319.531C190.384 318.426 189.411 316.392 188.41 314.012C187.656 302.185 186.47 290.331 184.415 278.689C181.88 264.329 176.415 251.004 173.155 236.882C172.196 232.727 167.26 233.099 165.422 236.003C165.281 236.035 165.138 236.064 164.995 236.092C163.424 234.704 161.513 233.547 159.166 232.698C156.548 231.751 153.825 234.204 153.826 236.786C153.827 239.539 153.784 242.3 153.718 245.063C149.153 267.548 146.411 290.382 145.552 313.32L145.554 313.397C145.299 314.577 145.042 315.754 144.776 316.928C144.204 318.704 143.591 320.728 143.519 322.297C143.482 322.451 143.448 322.606 143.41 322.76C142.921 324.769 144.049 326.509 145.916 327.196C160.206 332.446 175.481 331.598 189.177 325.034C189.367 324.942 189.535 324.84 189.692 324.733C189.812 324.683 189.932 324.632 190.051 324.581C190.263 324.416 190.476 324.251 190.688 324.087C191.18 323.592 191.462 322.956 191.554 322.27C191.665 321.436 191.422 320.503 190.882 319.821Z" fill="#F0F0F0"/>
<path d="M208.709 190.021C209.046 188.994 209.557 188.019 210.216 187.145C210.857 186.295 211.933 185.472 212.97 185.863C213.993 186.249 214.203 187.52 214.16 188.553C213.956 193.332 211.804 197.795 209.689 202.117C207.968 201.692 206.316 201.003 204.82 200.086C205.919 198.405 206.575 196.465 206.713 194.484C206.859 192.372 206.484 190.04 207.772 188.322C208.034 188.452 208.295 188.582 208.557 188.711C208.607 189.148 208.658 189.584 208.709 190.021Z" fill="#E8DBCE"/>
<path d="M204.863 199.003C204.244 198.833 195.434 226.441 192.35 228.862C191.211 229.755 189.82 230.257 188.437 230.681C182.25 232.577 175.673 233.189 169.243 232.467C163.31 231.801 149.736 226.464 144.757 230.94C141.939 233.474 142.446 239.046 142.788 242.361C143.083 245.227 141.035 268.528 147.009 264.5C151.89 261.207 158.603 258.834 165.546 256.949L165.513 257.043C163.835 263.994 161.525 271.088 160.925 278.24C160.896 278.579 160.876 278.917 160.857 279.254C160.789 279.424 160.721 279.595 160.651 279.764C160.098 281.103 159.581 282.359 159.559 283.845C159.49 288.483 162.477 293.317 163.97 297.605C164.099 297.977 164.331 298.203 164.596 298.311C165.118 299.035 166.296 298.618 166.571 297.854C166.908 296.92 167.237 295.986 167.554 295.052C167.851 294.855 168.063 294.526 168.064 294.053C168.064 293.87 168.064 293.686 168.065 293.503C169.23 289.847 170.104 286.16 170.182 282.331C170.415 282.117 170.574 281.815 170.58 281.433C170.692 274.14 170.457 266.867 169.913 259.599C170.029 258.491 170.152 257.384 170.278 256.278C170.3 256.083 170.269 255.91 170.205 255.757C176.346 254.269 182.387 253.086 187.23 251.916C191.58 250.866 195.939 249.092 198.935 245.764C203.661 240.517 203.937 232.862 205.43 226.297C207.367 217.783 209.177 209.238 211.05 200.711C208.988 200.141 206.925 199.572 204.863 199.003Z" fill="#333333"/>
<path d="M272.787 453.102C271.975 453.787 273.08 454.334 273.611 454.384C274.577 454.48 275.58 454.425 276.524 454.193C276.775 454.133 277.03 454.056 277.231 453.896C277.389 453.768 277.505 453.595 277.617 453.426C277.929 452.956 278.667 452.217 278.783 451.674C278.879 451.222 278.613 450.789 278.404 450.378C277.96 449.511 277.202 448.617 277.24 447.581C276.349 447.681 275.473 447.608 274.628 447.531C273.486 447.43 272.399 447.33 271.401 447.658C271.256 448.393 270.709 448.995 270.963 449.57C270.796 449.192 265.737 450.474 265.137 450.592C264.173 450.78 263.203 450.944 262.223 451.031C262.014 451.049 261.753 451.035 261.475 451.022C260.737 450.989 259.881 450.953 259.569 451.51C259.417 451.783 259.367 452.103 259.344 452.413C259.327 452.65 259.324 452.897 259.401 453.12C259.533 453.508 259.886 453.787 260.268 453.928C262.822 454.877 265.371 454.325 267.936 453.773C269.545 453.422 271.16 453.075 272.787 453.102Z" fill="#1A1A1A"/>
<path d="M275.136 354.645C270.144 354.516 265.152 354.387 260.161 354.258C259.85 353.627 261.142 354.171 261.132 354.872C260.809 376.963 262.828 399.086 267.147 420.773C269.009 430.119 271.306 439.471 271.344 448.991C273.392 448.991 275.44 448.986 277.489 448.982C278.184 419.198 278.88 389.414 279.576 359.631C279.611 358.124 279.548 356.397 278.359 355.439C277.487 354.736 276.265 354.674 275.136 354.645Z" fill="#444748"/>
<path d="M316.461 445.097C319.173 445.065 321.865 444.097 323.973 442.398C319.208 434.007 314.443 425.617 309.678 417.228C308.172 414.575 306.657 411.905 305.628 409.034C304.363 405.504 303.554 401.782 303.367 398.038C301.309 356.933 301.309 356.933 304.388 348.083C304.788 346.931 312.274 342.7 304.388 348.083C301.492 350.059 290.519 348.435 287.049 348.946C286.288 349.058 285.46 349.205 284.952 349.781C284.372 350.439 285.238 352.739 284.48 352.295C278.29 348.661 282.424 353.604 283.349 365.032C283.675 369.052 287.917 394.659 289.128 398.505C291.267 405.304 294.157 412.332 298.503 417.985C305.196 426.689 309.67 434.707 316.461 445.097Z" fill="#444748"/>
<path d="M213.793 186.416C213.574 185.373 213.184 184.366 212.642 183.444C212.116 182.548 211.172 181.636 210.145 181.923C209.132 182.205 208.806 183.435 208.745 184.456C208.466 189.177 210.073 193.771 211.66 198.223C213.342 197.968 214.984 197.446 216.501 196.686C215.619 194.928 215.187 192.957 215.252 190.995C215.322 188.904 215.911 186.646 214.855 184.833C214.592 184.936 214.33 185.039 214.068 185.142C213.976 185.566 213.885 185.991 213.793 186.416Z" fill="#E8DBCE"/>
<path d="M262.216 261.96C270.296 263.954 275.584 241.198 265.436 238.954C256.246 236.921 242.137 239.485 233.36 235.186C229.147 233.124 226.052 229.535 224.598 224.736C221.699 215.175 219.035 205.553 216.61 195.887C214.497 196.246 212.384 196.606 210.271 196.965C211.723 209.292 213.176 221.619 214.628 233.946C214.909 236.32 215.215 238.783 216.359 240.92C217.469 242.992 219.251 244.537 221.039 245.902C232.911 254.968 249.397 258.798 262.216 261.96Z" fill="#444748"/>
<path d="M277.12 231.194C278.213 229.322 278.838 226.919 278.802 224.11C278.737 218.923 278.083 213.61 275.687 209.087C272.928 203.879 266.532 199.04 260.406 201.009C253.23 203.316 254.423 212.99 255.4 219.403C256.175 224.498 258.341 229.542 262.273 232.676C268.145 237.356 274.249 236.109 277.12 231.194Z" fill="#E8DBCE"/>
<path d="M320.875 448.716C320.359 449.781 321.715 449.832 322.273 449.645C323.288 449.302 324.275 448.796 325.125 448.135C325.351 447.961 325.574 447.769 325.705 447.511C325.808 447.309 325.849 447.084 325.887 446.859C325.994 446.244 326.409 445.156 326.287 444.556C326.186 444.054 325.723 443.735 325.332 443.412C324.501 442.732 323.043 441.489 322.625 440.424C320.616 441.606 317.564 442.994 316.066 444.354C316.886 444.959 316.963 445.489 317.474 445.958C317.137 445.649 312.605 449.237 312.054 449.63C311.165 450.259 310.258 450.859 309.309 451.394C308.57 451.807 306.94 452.107 306.847 453.082C306.813 453.425 306.904 453.772 307.019 454.1C307.106 454.349 307.212 454.597 307.389 454.789C307.694 455.122 308.173 455.249 308.621 455.216C313.492 454.902 316.593 450.564 320.875 448.716Z" fill="#1A1A1A"/>
<path d="M305.296 296.004C304.42 280.4 302.258 264.277 295.413 250.978C290.496 241.426 283.733 230.322 274.244 240.311C273.386 241.215 267.496 237.815 266.916 238.957C265.474 238.457 263.857 238.975 262.896 241.138C259.68 248.375 258.525 256.363 258.01 264.576C257.419 273.995 257.24 283.483 257.019 292.927C256.916 297.305 256.838 301.684 256.776 306.063C255.456 317.772 254.801 329.546 256.3 341.32C256.376 341.912 256.53 342.421 256.74 342.857C256.775 345.812 256.815 348.767 256.867 351.722C256.901 353.613 258.005 356.1 259.64 356.386C274.093 358.918 288.538 358.246 302.785 354.153C304.456 353.673 305.477 351.55 305.557 349.49C306.245 331.693 306.293 313.785 305.296 296.004Z" fill="#F0F0F0"/>
<path d="M285.363 196.963C285.118 195.083 283.102 194.206 281.027 194.063C280.5 192.816 279.601 192.078 278.535 191.821C277.968 190.657 276.881 189.579 275.418 188.975C271.774 187.467 267.359 187.883 265.001 190.402C264.357 190.341 263.749 190.436 263.172 190.651C262.17 190.534 261.126 190.578 260.225 190.875C258.518 189.869 256.531 189.5 254.716 190.605C252.944 191.685 252.324 194.144 252.086 196.702C252.039 196.713 251.996 196.712 251.948 196.724C250.875 196.995 249.761 197.839 248.8 198.965C242.534 200.502 239.462 208.211 245.346 212.771C248.244 215.016 252.113 214.959 255.088 212.909C256.609 211.861 257.347 210.596 258.193 209.009C258.835 207.805 259.12 205.997 260.557 205.268C261.528 204.776 263.653 205.022 265.369 205.232C265.44 205.537 265.533 205.866 265.647 206.267C266.078 207.792 266.39 209.291 266.728 210.86C267.28 213.428 268.65 215.617 271.68 215.611C272.487 215.609 273.737 214.687 274.333 214.792C276.217 215.123 274.962 218.26 275.057 219.788C275.269 223.237 277.286 225.802 280.132 227.535C281.102 228.126 282.434 227.746 283.001 226.786C285.005 223.395 289.91 214.239 289.273 208.324C289.33 208.247 289.385 208.169 289.428 208.082C291.863 203.178 289.918 198.608 285.363 196.963Z" fill="#D7C68E"/>
<path d="M303.519 268.887C299.791 256.642 294.17 245.059 288.583 233.561C287.756 231.86 284.9 232.296 284.497 234.089C284.379 234.616 284.267 235.146 284.152 235.674C283.476 235.556 282.754 235.783 282.305 236.547C272.522 253.183 273.61 274.194 272.547 292.775C271.668 308.144 270.789 323.512 269.91 338.881C269.23 342.755 268.585 346.635 267.993 350.524C267.91 351.067 267.987 351.556 268.168 351.978C267.088 354.976 266.868 358.074 267.398 361.407C267.568 362.478 268.887 363.374 269.945 363.323C271.717 363.238 273.436 362.953 275.079 362.493C282.107 363.349 289.499 363.509 295.867 360.301C304.203 356.102 307.541 353.631 308.075 345.082C308.816 333.211 308.042 314.785 308.074 302.893C308.106 291.331 306.897 279.987 303.519 268.887Z" fill="#444748"/>
<path d="M265.094 236.728C264.946 236.443 264.594 236.336 264.301 236.403C262.553 236.805 262.401 237.437 261.728 239.054C260.705 241.507 259.711 243.96 258.873 246.485C257.273 251.306 256.081 256.259 255.186 261.259C253.381 271.338 252.72 281.599 252.544 291.826C252.36 302.57 252.162 313.379 252.541 324.119C252.745 329.915 252.978 335.709 253.333 341.492C253.51 344.38 253.806 347.255 253.99 350.145C254.147 352.614 254.209 354.632 255.265 356.907C255.963 358.41 258.623 358.091 258.903 356.428C259.313 353.994 258.85 351.947 258.473 349.534C258.019 346.625 257.875 343.692 257.58 340.769C257.049 335.485 256.877 330.158 256.823 324.844C256.719 314.287 256.382 303.734 256.504 293.174C256.621 283.069 257.029 272.898 258.667 262.912C259.455 258.114 260.508 253.355 261.926 248.704C262.781 245.898 263.734 243.092 264.888 240.395C265.564 238.817 265.899 238.285 265.094 236.728Z" fill="#444748"/>
<path d="M267.454 242.787C266.782 244.089 265.936 245.223 265.45 246.627C264.986 247.966 264.789 249.534 264.916 250.942C264.96 251.421 265.173 251.846 265.48 252.165C265.225 252.45 265.044 252.843 264.992 253.352C264.94 253.856 264.883 254.36 264.829 254.864C264.723 255.11 264.666 255.397 264.679 255.728C264.685 255.86 264.687 255.991 264.692 256.122C263.592 266.122 262.132 276.093 261.108 286.108C260.001 296.938 258.894 307.768 257.786 318.598C257.606 320.364 260.002 321.057 261.129 319.977C264.239 316.998 264.591 312.557 265.28 308.525C266.251 302.845 267.027 297.128 267.618 291.397C268.842 279.547 269.169 267.629 268.686 255.728C268.673 255.401 268.595 255.117 268.47 254.872C268.539 254.532 268.595 254.187 268.667 253.848C268.834 253.059 268.59 252.458 268.165 252.071C269.683 250.461 270.33 248.45 269.794 246.286C269.756 246.132 269.696 246.001 269.627 245.881C269.844 245.572 270.087 245.284 270.393 245.046C272.478 243.425 268.768 240.244 267.454 242.787Z" fill="#1F375A"/>
<path d="M292.72 274.986C291.117 267.836 281.909 266.325 280.111 275.336C278.482 283.498 277.939 291.831 274.253 299.701C272.482 303.479 269.307 306.32 264.999 307.756C256.417 310.617 247.774 313.274 239.086 315.721C239.459 317.571 239.832 319.421 240.206 321.271C251.323 319.595 262.44 317.919 273.557 316.243C275.699 315.92 277.92 315.571 279.827 314.494C281.676 313.449 283.033 311.83 284.227 310.211C292.156 299.46 295.293 286.454 292.72 274.986Z" fill="#444748"/>
<path d="M230.59 320.555C229.835 320.829 229.064 321.111 228.437 321.62C227.809 322.129 227.339 322.914 227.411 323.728C227.483 324.542 228.239 325.295 229.029 325.158C228.97 325.385 229.018 325.639 229.156 325.827C230.79 326.296 232.423 325.254 233.918 324.434C235.073 323.8 236.286 323.277 237.536 322.872C238.593 322.53 239.784 322.191 240.341 321.214C240.748 320.502 240.702 319.602 240.451 318.819C240.199 318.037 239.761 317.333 239.396 316.598C237.431 316.97 235.467 317.342 233.502 317.713C233.182 317.774 232.849 317.841 232.593 318.046C232.338 318.251 232.194 318.642 232.363 318.925C232.789 318.97 233.197 319.181 233.484 319.506C232.52 319.855 231.555 320.205 230.59 320.555Z" fill="#E8DBCE"/>
<defs>
<linearGradient id="paint0_linear" x1="203.697" y1="454.102" x2="306.598" y2="451.174" gradientUnits="userSpaceOnUse">
<stop stop-color="#C7C7C7"/>
<stop offset="1" stop-color="#C7C7C7"/>
</linearGradient>
<linearGradient id="paint1_linear" x1="127.388" y1="451.307" x2="230.288" y2="448.379" gradientUnits="userSpaceOnUse">
<stop stop-color="#C7C7C7"/>
<stop offset="1" stop-color="#C7C7C7"/>
</linearGradient>
<linearGradient id="paint2_linear" x1="127.387" y1="451.307" x2="230.288" y2="448.379" gradientUnits="userSpaceOnUse">
<stop stop-color="#302722"/>
<stop offset="1" stop-color="#302722"/>
</linearGradient>
</defs>
</svg>
