<svg width="19" height="19" viewBox="0 0 19 19" fill="none" xmlns="http://www.w3.org/2000/svg">
<path d="M18.9909 14.9947C19.0312 15.3033 18.9372 15.5717 18.7093 15.7998L16.0342 18.4564C15.9135 18.5906 15.756 18.7048 15.5615 18.7986C15.3671 18.8926 15.1761 18.9529 14.9884 18.9797C14.975 18.9797 14.9347 18.9832 14.8676 18.9899C14.8006 18.9966 14.7135 19 14.6062 19C14.3514 19 13.939 18.9564 13.3691 18.8691C12.7992 18.7819 12.1019 18.5672 11.2773 18.2251C10.4525 17.8829 9.51726 17.3696 8.47137 16.6854C7.42547 16.0011 6.31247 15.0618 5.13245 13.8676C4.1938 12.9417 3.41606 12.0561 2.79923 11.2108C2.1824 10.3654 1.68625 9.58385 1.31079 8.86598C0.9353 8.14811 0.653704 7.49734 0.465974 6.91365C0.278243 6.32997 0.150855 5.82679 0.0838082 5.40412C0.0167616 4.98145 -0.010057 4.64936 0.00335233 4.40783C0.0167616 4.16631 0.0234663 4.03213 0.0234663 4.00529C0.0502849 3.81744 0.110627 3.62623 0.204492 3.43167C0.298357 3.23711 0.412336 3.07944 0.54643 2.95868L3.22159 0.281779C3.40932 0.0939264 3.62387 0 3.86524 0C4.03956 0 4.19376 0.0503177 4.32786 0.150953C4.46195 0.251589 4.57593 0.375706 4.66979 0.523304L6.82199 4.6091C6.94267 4.82379 6.9762 5.05861 6.92256 5.31355C6.86892 5.56849 6.75494 5.78318 6.58062 5.95762L5.59504 6.94384C5.56822 6.97068 5.54475 7.01429 5.52464 7.07467C5.50452 7.13505 5.49447 7.18537 5.49447 7.22562C5.5481 7.5074 5.66879 7.82944 5.85652 8.19172C6.01743 8.51376 6.2655 8.90623 6.60074 9.36916C6.93597 9.83208 7.412 10.3654 8.02883 10.9692C8.63225 11.5865 9.16862 12.0662 9.63795 12.4084C10.1072 12.7504 10.4995 13.0021 10.8146 13.1631C11.1298 13.3241 11.3711 13.4214 11.5387 13.4549L11.7901 13.5052C11.8169 13.5052 11.8606 13.4951 11.9208 13.475C11.9812 13.4549 12.0248 13.4314 12.0516 13.4045L13.1981 12.2372C13.4396 12.0225 13.721 11.9152 14.0429 11.9152C14.2709 11.9152 14.4519 11.9554 14.5859 12.0359H14.606L18.488 14.3304C18.7697 14.505 18.9373 14.7263 18.9909 14.9947Z" fill="#D93232"/>
</svg>
