<svg width="15" height="15" viewBox="0 0 15 15" fill="none" xmlns="http://www.w3.org/2000/svg">
<path d="M0.12974 14.235L3.77578 10.5898C2.79774 9.46563 2.20559 7.99889 2.20559 6.39579C2.20559 2.86696 5.07651 0 8.60279 0C12.1324 0 15 2.87029 15 6.39579C15 9.92129 12.1291 12.7916 8.60279 12.7916C6.99933 12.7916 5.53227 12.1996 4.40785 11.2217L0.761809 14.867C0.675315 14.9534 0.558882 15 0.445774 15C0.332667 15 0.216233 14.9568 0.12974 14.867C-0.0432472 14.694 -0.0432472 14.408 0.12974 14.235ZM14.1051 6.39579C14.1051 3.36253 11.6367 0.898004 8.60612 0.898004C5.57219 0.898004 3.10712 3.36585 3.10712 6.39579C3.10712 9.42572 5.57219 11.8969 8.60612 11.8969C11.6367 11.8969 14.1051 9.42905 14.1051 6.39579Z" fill="#A1A1A1"/>
</svg>
