<svg width="18" height="18" viewBox="0 0 18 18" fill="none" xmlns="http://www.w3.org/2000/svg">
<path d="M0.961634 16.0072L4.6885 12.2812C3.69724 11.0635 3.10263 9.51113 3.10263 7.82217C3.10263 3.91989 6.27701 0.75 10.1763 0.75C14.0793 0.75 17.25 3.9236 17.25 7.82217C17.25 11.7208 14.0757 14.8943 10.1763 14.8943C8.48699 14.8943 6.93428 14.2999 5.71629 13.3088L1.98935 17.0349C1.85046 17.1738 1.66279 17.25 1.47549 17.25C1.29317 17.25 1.10291 17.1806 0.960007 17.0333C0.679462 16.751 0.680002 16.2888 0.961634 16.0072ZM15.7955 7.82217C15.7955 4.72492 13.2746 2.20787 10.1799 2.20787C7.08179 2.20787 4.56426 4.72827 4.56426 7.82217C4.56426 10.9163 7.08198 13.44 10.1799 13.44C13.2744 13.44 15.7955 10.9196 15.7955 7.82217Z" fill="#9B9B9B" stroke="#9B9B9B" stroke-width="0.5"/>
</svg>
