<svg width="18" height="10" viewBox="0 0 18 10" fill="none" xmlns="http://www.w3.org/2000/svg">
<g clip-path="url(#clip0)">
<path d="M16.7137 4.27349C16.5306 4.06669 16.3366 3.87367 16.1504 3.69751C15.0712 2.67729 13.9128 1.82492 12.632 1.18978C11.7147 0.734966 10.8146 0.435337 9.94463 0.286015C9.41997 0.196039 8.93811 0.170898 8.51334 0.170898C8.07007 0.170898 7.57834 0.193399 7.0541 0.286015C6.17445 0.441575 5.27374 0.741764 4.36691 1.18978C3.122 1.80509 1.95511 2.65044 0.848516 3.69751C0.634576 3.89977 0.449754 4.08596 0.28527 4.27349C-0.0949591 4.70639 -0.0945701 5.27574 0.28527 5.7088C0.736628 6.22376 1.33947 6.76138 2.0952 7.33926C3.70358 8.56838 5.27965 9.34906 6.82341 9.67041C7.36676 9.78196 7.93159 9.82917 8.51334 9.82917C9.07659 9.82917 9.63197 9.78196 10.1755 9.67041C11.7374 9.34716 13.3168 8.57211 14.922 7.33926C15.727 6.72094 16.3139 6.16908 16.7136 5.7088C17.099 5.26515 17.1033 4.71375 16.7137 4.27349ZM15.938 5.07083C15.5316 5.54945 14.9701 6.04532 14.2757 6.57727C12.8184 7.6937 11.3869 8.41903 9.96316 8.70442C9.43831 8.8084 8.95661 8.8462 8.51334 8.8462H8.48556C8.03303 8.8462 7.56078 8.80653 7.05408 8.70442C5.64902 8.41711 4.20434 7.70937 2.72302 6.57727C2.02482 6.04359 1.47636 5.54055 1.07938 5.07083C1.01475 5.02658 1.01475 4.97347 1.07938 4.91146C1.1255 4.84945 1.20624 4.75854 1.31935 4.64547C1.43716 4.52809 1.52265 4.44169 1.56877 4.38858C2.63991 3.37836 3.73429 2.61656 4.83794 2.0848C5.71995 1.65966 6.51901 1.37856 7.2389 1.26059C7.655 1.19255 8.07935 1.15435 8.51334 1.15435C8.92883 1.15435 9.34473 1.188 9.77834 1.26059C10.5083 1.3829 11.3093 1.66342 12.1795 2.0848C13.304 2.62922 14.3866 3.38724 15.4301 4.38858C15.6701 4.61903 15.8397 4.79349 15.938 4.91146C15.9877 4.97102 15.9841 5.02658 15.938 5.07083Z" fill="#333333"/>
<path d="M8.51309 1.8811C7.61729 1.8811 6.84147 2.18223 6.20434 2.79377C5.56722 3.40511 5.25317 4.14065 5.25317 5.00001C5.25317 5.85954 5.56483 6.58847 6.20434 7.19754C6.8393 7.80243 7.61729 8.10131 8.51309 8.10131C9.40869 8.10131 10.166 7.80019 10.7941 7.19754C11.4312 6.58618 11.7452 5.85954 11.7452 5.00001C11.7452 4.14065 11.4288 3.40738 10.7941 2.79377C10.1636 2.18452 9.40869 1.8811 8.51309 1.8811ZM10.0736 6.50642C9.63961 6.92287 9.12246 7.12663 8.51309 7.12663C7.8943 7.12663 7.36787 6.91396 6.93388 6.49751C6.49986 6.08111 6.27822 5.57599 6.27822 5.00001C6.27822 4.40643 6.49986 3.91023 6.93388 3.49375C7.3679 3.0773 7.8943 2.86464 8.51309 2.86464C9.13171 2.86464 9.6465 3.07938 10.0736 3.49375C10.5055 3.91247 10.7202 4.40643 10.7202 5.00001C10.7202 5.58489 10.5076 6.08996 10.0736 6.50642Z" fill="#333333"/>
</g>
<defs>
<clipPath id="clip0">
<rect width="17.004" height="10" fill="white"/>
</clipPath>
</defs>
</svg>
