<svg width="35" height="35" viewBox="0 0 35 35" fill="none" xmlns="http://www.w3.org/2000/svg">
<g clip-path="url(#clip0)">
<path d="M25.7848 3.2137C20.9038 1.19507 15.2766 2.90466 12.3434 7.29728C9.41008 11.6899 9.98749 17.5427 13.7225 21.2774C15.8011 23.3587 18.6233 24.5258 21.5647 24.5207C26.8467 24.515 31.3893 20.7796 32.4155 15.5984C33.4417 10.4171 30.6658 5.23232 25.7848 3.2137ZM30.7638 17.2321C28.9519 21.6138 24.2966 24.1048 19.646 23.1812C14.9953 22.2576 11.6452 18.1766 11.6452 13.4352C11.6406 10.8031 12.6849 8.27768 14.5471 6.41754C17.8958 3.06075 23.1497 2.53775 27.0945 5.16842C31.0393 7.7991 32.5757 12.8504 30.7638 17.2321Z" fill="#333333"/>
<path d="M31.0677 3.93334C26.0654 -1.06914 18.0396 -1.3317 12.7211 3.33312C7.40251 7.99793 6.61605 15.9894 10.9234 21.6014L9.89234 22.6325C9.4918 22.5243 9.06385 22.6376 8.76944 22.9299L1.3383 30.3609C1.04587 30.6553 0.932566 31.0833 1.04095 31.4838L0.512549 32.0122C0.184381 32.3403 0 32.7854 0 33.2495C0 33.7135 0.184381 34.1586 0.512549 34.4867L0.924844 34.074L0.513984 34.4881C0.842016 34.8163 1.28705 35.0007 1.75107 35.0007C2.2151 35.0007 2.66013 34.8163 2.98816 34.4881L3.5167 33.9596C3.91724 34.0741 4.3484 33.9599 4.63966 33.6621L12.0705 26.2312C12.363 25.9368 12.4763 25.5089 12.3679 25.1083L13.3991 24.0771C19.0109 28.3847 27.0025 27.5985 31.6674 22.28C36.3324 16.9615 36.0701 8.93576 31.0677 3.93334ZM2.16323 33.6635C1.93265 33.8839 1.56949 33.8839 1.33885 33.6635L1.33714 33.6617C1.22773 33.5525 1.16629 33.4039 1.16629 33.2493C1.16629 33.0947 1.22773 32.9464 1.33714 32.8372L1.75121 32.4231L2.57758 33.2495L2.16323 33.6635ZM3.81507 32.8374L2.98905 32.0115L2.16357 31.1859L7.9428 25.4057L9.59485 27.0577L3.81507 32.8374ZM10.4195 26.233L8.76746 24.5811L9.59396 23.7546L10.4199 24.5805L11.2458 25.4066L10.4195 26.233ZM11.6579 24.1691L11.2446 23.7559L10.8314 23.3426L11.6787 22.4953C11.8108 22.6393 11.9316 22.79 12.0711 22.9296C12.2106 23.0691 12.3612 23.1898 12.5052 23.3219L11.6579 24.1691ZM26.2563 24.7625C21.6751 26.6601 16.402 25.6112 12.8957 22.1049C8.11591 17.314 8.11591 9.55806 12.8957 4.76709C16.402 1.26084 21.6751 0.211964 26.2563 2.10949C30.8374 4.00708 33.8244 8.4774 33.8244 13.436C33.8244 18.3946 30.8374 22.8649 26.2563 24.7625Z" fill="#333333"/>
<path d="M25.4803 13.0115C24.9238 13.0121 24.4729 13.528 24.4723 14.1645V17.0468H23.4643V11.8586C23.4637 11.2221 23.0127 10.7063 22.4562 10.7056H20.9442C20.3877 10.7062 19.9368 11.2221 19.9362 11.8586V17.0468H18.9282V9.55268C18.9277 8.91618 18.4767 8.40039 17.9202 8.39972H16.4082C15.8517 8.40033 15.4007 8.91618 15.4001 9.55268V17.6233C15.4001 17.9417 15.6258 18.1997 15.9041 18.1997H27.4962C27.7745 18.1997 28.0001 17.9417 28.0001 17.6233V14.1645C27.9996 13.528 27.5486 13.0122 26.9921 13.0115H25.4803ZM17.9203 17.0468H16.4083L16.4076 9.55275H17.9203V17.0468ZM22.4563 17.0468H20.9443L20.9436 11.8586H22.4563V17.0468ZM26.9923 17.0468H25.4803L25.4796 14.1645H26.9923V17.0468Z" fill="#333333"/>
</g>
<defs>
<clipPath id="clip0">
<rect width="35" height="35" fill="white"/>
</clipPath>
</defs>
</svg>
