<svg width="71" height="71" viewBox="0 0 71 71" fill="none" xmlns="http://www.w3.org/2000/svg">
<path d="M57.6877 20.7083C56.4718 20.7083 55.3388 21.0781 54.398 21.7083C53.5875 19.4067 51.3894 17.75 48.8127 17.75C47.5968 17.75 46.4637 18.1198 45.523 18.75C44.7125 16.4484 42.5144 14.7917 39.9377 14.7917C38.8609 14.7917 37.8492 15.0817 36.9794 15.5876V5.91671C36.9794 2.65363 34.3258 0 31.0627 0C27.7996 0 25.146 2.65363 25.146 5.91671V40.5026L17.0136 36.4349C15.7888 35.8224 14.4161 35.5 13.0465 35.5C9.92842 35.5 7.396 38.0353 7.396 41.1682C7.396 42.6799 7.98466 44.097 9.05271 45.1649L28.1812 64.2934C32.5034 68.6186 38.2574 71 44.3752 71C54.9779 71 63.6044 62.3735 63.6044 51.7708V26.625C63.6044 23.3619 60.9508 20.7083 57.6877 20.7083ZM60.646 51.7708C60.646 60.7434 53.3448 68.0416 44.3722 68.0416C39.0442 68.0416 34.0387 65.9677 30.2757 62.1989L11.1443 43.0704C10.6355 42.5645 10.3544 41.8871 10.3544 41.1505C10.3544 39.6654 11.5614 38.4584 13.0465 38.4584C13.9606 38.4584 14.8718 38.6743 15.6912 39.0826L25.9655 44.2183C26.4241 44.4461 26.9713 44.4224 27.4033 44.1533C27.8382 43.8841 28.1044 43.4078 28.1044 42.8959V5.91671C28.1044 4.28662 29.4297 2.95843 31.0627 2.95843C32.6957 2.95843 34.021 4.28676 34.021 5.91671V34.0209C34.021 34.8374 34.6837 35.5001 35.5002 35.5001C36.3167 35.5001 36.9794 34.8374 36.9794 34.0209V20.7084C36.9794 19.0783 38.3047 17.7501 39.9377 17.7501C41.5707 17.7501 42.896 19.0785 42.896 20.7084V34.0209C42.896 34.8374 43.5587 35.5001 44.3752 35.5001C45.1917 35.5001 45.8544 34.8374 45.8544 34.0209V23.6667C45.8544 22.0366 47.1797 20.7084 48.8127 20.7084C50.4457 20.7084 51.771 22.0368 51.771 23.6667V34.0209C51.771 34.8374 52.4337 35.5001 53.2502 35.5001C54.0667 35.5001 54.7294 34.8374 54.7294 34.0209V26.625C54.7294 24.9949 56.0547 23.6667 57.6877 23.6667C59.3207 23.6667 60.646 24.9951 60.646 26.625V51.7708Z" fill="#FFA800"/>
</svg>
