<svg width="71" height="71" viewBox="0 0 71 71" fill="none" xmlns="http://www.w3.org/2000/svg">
<path d="M67.3448 27.6111H60.7024C59.6347 27.6111 58.7551 27.0234 58.3462 26.0373C57.9373 25.0512 58.1451 24.0125 58.8984 23.2578L63.595 18.5626C64.2852 17.8723 64.6652 16.9532 64.6652 15.9776C64.6652 15.0007 64.2852 14.083 63.595 13.3914L57.6086 7.40504C56.2281 6.02448 53.8206 6.02185 52.4374 7.40504L47.7422 12.1002C46.9875 12.8536 45.9462 13.064 44.9627 12.6538C43.9766 12.2449 43.3889 11.3653 43.3889 10.2976V3.65519C43.3889 1.63957 41.7493 0 39.7337 0H31.2663C29.2507 0 27.6111 1.63957 27.6111 3.65519V10.2976C27.6111 11.3653 27.0234 12.2449 26.0373 12.6538C25.0538 13.0653 24.0125 12.8536 23.2578 12.1002L18.5626 7.40504C17.1794 6.02185 14.7719 6.02448 13.3914 7.40504L7.40504 13.3914C6.71476 14.0817 6.33478 15.0007 6.33478 15.9776C6.33478 16.9532 6.71476 17.871 7.40504 18.5626L12.1016 23.2578C12.8549 24.0125 13.0614 25.0512 12.6538 26.0373C12.2462 27.0234 11.3653 27.6111 10.2976 27.6111H3.65519C1.63957 27.6111 0 29.2507 0 31.2663V39.7324C0 41.7493 1.63957 43.3889 3.65519 43.3889H10.2976C11.3653 43.3889 12.2449 43.9766 12.6538 44.9627C13.0627 45.9488 12.8549 46.9875 12.1016 47.7422L7.40504 52.4374C6.71476 53.1277 6.33478 54.0468 6.33478 55.0224C6.33478 55.9993 6.71476 56.917 7.40504 57.6086L13.3914 63.595C14.7733 64.9768 17.1794 64.9795 18.5626 63.595L23.2578 58.8984C24.0125 58.1451 25.0499 57.9373 26.0373 58.3462C27.0234 58.7551 27.6111 59.6347 27.6111 60.7024V67.3448C27.6111 69.3604 29.2507 71 31.2663 71H39.7324C41.748 71 43.3876 69.3604 43.3876 67.3448V60.7024C43.3876 59.6347 43.9753 58.7551 44.9614 58.3462C45.9488 57.936 46.9862 58.1451 47.7409 58.8984L52.4361 63.595C53.8193 64.9781 56.2267 64.9755 57.6073 63.595L63.5936 57.6086C64.2839 56.9183 64.6639 55.9993 64.6639 55.0224C64.6639 54.0468 64.2839 53.129 63.5936 52.4374L58.8971 47.7422C58.1437 46.9875 57.9373 45.9488 58.3449 44.9627C58.7525 43.9766 59.6347 43.3889 60.7024 43.3889H67.3448C69.3604 43.3889 71 41.7493 71 39.7337V31.2663C71 29.2507 69.3604 27.6111 67.3448 27.6111ZM68.3704 39.7337C68.3704 40.2991 67.9102 40.7593 67.3448 40.7593H60.7024C58.5671 40.7593 56.7329 41.9847 55.9164 43.9569C55.0986 45.9291 55.5286 48.0933 57.0393 49.6027L61.7358 54.2979C62.1368 54.6989 62.1368 55.3498 61.7358 55.7495L55.7495 61.7358C55.3498 62.1355 54.6989 62.1381 54.2979 61.7358L49.6027 57.0393C48.092 55.5286 45.9291 55.1013 43.9569 55.9164C41.9847 56.7329 40.7593 58.5671 40.7593 60.7024V67.3448C40.7593 67.9102 40.2991 68.3704 39.7337 68.3704H31.2663C30.7009 68.3704 30.2407 67.9102 30.2407 67.3448V60.7024C30.2407 58.5671 29.0153 56.7329 27.0431 55.9164C26.3818 55.6416 25.7007 55.5075 25.0275 55.5075C23.6943 55.5075 22.4018 56.0335 21.3973 57.038L16.7021 61.7345C16.2998 62.1368 15.6489 62.1342 15.2505 61.7345L9.26418 55.7481C8.86317 55.3471 8.86317 54.6963 9.26418 54.2966L13.9607 49.6014C15.4701 48.092 15.9014 45.9278 15.0836 43.9556C14.2671 41.9847 12.4329 40.7593 10.2976 40.7593H3.65519C3.08981 40.7593 2.62963 40.2991 2.62963 39.7337V31.2663C2.62963 30.7009 3.08981 30.2407 3.65519 30.2407H10.2976C12.4329 30.2407 14.2671 29.0153 15.0836 27.0431C15.9014 25.0709 15.4714 22.9067 13.9607 21.3973L9.26418 16.7021C8.86317 16.3011 8.86317 15.6502 9.26418 15.2505L15.2505 9.26418C15.6502 8.86317 16.3011 8.86317 16.7021 9.26418L21.3973 13.9594C22.9054 15.4675 25.0683 15.9001 27.0431 15.0822C29.0153 14.2671 30.2407 12.4329 30.2407 10.2976V3.65519C30.2407 3.08981 30.7009 2.62963 31.2663 2.62963H39.7324C40.2991 2.62963 40.7593 3.08981 40.7593 3.65519V10.2976C40.7593 12.4329 41.9847 14.2671 43.9569 15.0836C45.9317 15.9014 48.0933 15.4701 49.6027 13.9607L54.2979 9.2655C54.7002 8.86448 55.3511 8.86448 55.7495 9.2655L61.7358 15.2519C62.1368 15.6529 62.1368 16.3037 61.7358 16.7034L57.0393 21.3986C55.5299 22.908 55.0986 25.0722 55.9164 27.0444C56.7329 29.0166 58.5671 30.2421 60.7024 30.2421H67.3448C67.9102 30.2407 68.3704 30.7009 68.3704 31.2663V39.7337Z" fill="#FFA800"/>
<path d="M35.5001 23.6667C28.9747 23.6667 23.6667 28.9746 23.6667 35.5C23.6667 42.0254 28.9747 47.3334 35.5001 47.3334C42.0255 47.3334 47.3334 42.0254 47.3334 35.5C47.3334 28.9746 42.0255 23.6667 35.5001 23.6667ZM35.5001 44.7037C30.4262 44.7037 26.2964 40.5739 26.2964 35.5C26.2964 30.4262 30.4262 26.2963 35.5001 26.2963C40.574 26.2963 44.7038 30.4262 44.7038 35.5C44.7038 40.5739 40.574 44.7037 35.5001 44.7037Z" fill="#FFA800"/>
</svg>
