<svg width="77" height="70" viewBox="0 0 77 70" fill="none" xmlns="http://www.w3.org/2000/svg">
<g clip-path="url(#clip0)">
<path d="M76.6792 10.1499C76.3584 9.83131 76.0375 9.51262 75.3959 9.51262H14.4375L12.8333 1.22939C12.8333 0.592158 11.8708 -0.0449218 11.2291 -0.0449218H1.60407C0.641717 -0.0450712 0 0.592158 0 1.54793C0 2.5037 0.641717 3.14093 1.60422 3.14093H9.94593L17.6459 42.0089C18.6084 47.1063 23.4209 50.9294 28.5542 50.9294H65.45C66.4125 50.9294 67.0542 50.2922 67.0542 49.3364C67.0542 48.3806 66.4125 47.7434 65.45 47.7434H28.875C26.3083 47.7434 23.7417 46.4691 22.4583 44.2389L69.3 37.8672C69.9417 37.8672 70.5833 37.2299 70.5833 36.5928L77 11.1056C77 11.1056 77 10.4684 76.6792 10.1499ZM67.6958 34.9999L20.8541 41.053L15.0791 12.3799H73.15L67.6958 34.9999Z" fill="#FFA800"/>
<path d="M27.2708 54.1154C22.7792 54.1154 19.25 57.6199 19.25 62.08C19.25 66.5404 22.7792 70.0447 27.2708 70.0447C31.7625 70.0447 35.2916 66.5402 35.2916 62.08C35.2917 57.6199 31.7625 54.1154 27.2708 54.1154ZM27.2708 66.8589C24.7041 66.8589 22.4583 64.6287 22.4583 62.08C22.4583 59.5314 24.7041 57.3012 27.2708 57.3012C29.8375 57.3012 32.0833 59.5314 32.0833 62.08C32.0833 64.6287 29.8375 66.8589 27.2708 66.8589Z" fill="#FFA800"/>
<path d="M59.3543 54.1154C54.8626 54.1154 51.3335 57.6199 51.3335 62.08C51.3335 66.5404 54.8627 70.0447 59.3543 70.0447C63.846 70.0447 67.375 66.5402 67.375 62.08C67.375 57.6199 63.8458 54.1154 59.3543 54.1154ZM59.3543 66.8589C56.7876 66.8589 54.5418 64.6287 54.5418 62.08C54.5418 59.5314 56.7876 57.3012 59.3543 57.3012C61.921 57.3012 64.1668 59.5314 64.1668 62.08C64.1668 64.6287 61.9208 66.8589 59.3543 66.8589Z" fill="#FFA800"/>
</g>
<defs>
<clipPath id="clip0">
<rect width="77" height="70" fill="white"/>
</clipPath>
</defs>
</svg>
