<svg width="67" height="71" viewBox="0 0 67 71" fill="none" xmlns="http://www.w3.org/2000/svg">
<path d="M57.68 26.9979V24.2683C57.68 17.7351 55.3681 11.6643 51.1767 7.15966C46.8809 2.53571 40.9742 0 34.5305 0H32.2782C25.8345 0 19.9277 2.53571 15.6319 7.15966C11.4405 11.6643 9.12857 17.7351 9.12857 24.2683V26.9979C4.04223 27.341 0 31.5771 0 36.7529V41.0189C0 46.4036 4.38529 50.7889 9.76996 50.7889H15.274C16.2584 50.7889 17.0639 49.9834 17.0639 48.999V28.758C17.0639 27.7735 16.2584 26.9681 15.274 26.9681H12.7084V24.2683C12.7084 12.4697 21.121 3.57983 32.2632 3.57983H34.5155C45.6727 3.57983 54.0704 12.4697 54.0704 24.2683V26.9681H51.5048C50.5204 26.9681 49.7149 27.7735 49.7149 28.758V48.984C49.7149 49.9685 50.5204 50.774 51.5048 50.774H54.0107C53.2798 60.1113 46.8511 62.2742 43.8679 62.7664C43.0475 60.2456 40.6758 58.4258 37.8866 58.4258H33.4118C29.9513 58.4258 27.1321 61.245 27.1321 64.7055C27.1321 68.166 29.9513 71 33.4118 71H37.9015C40.7952 71 43.2265 69.0311 43.9574 66.3761C45.4191 66.1672 47.7311 65.6452 50.0282 64.3027C53.2649 62.4084 57.0983 58.5452 57.6055 50.759C62.7216 50.4458 66.7788 46.1947 66.7788 41.004V36.738C66.7937 31.5771 62.7664 27.3261 57.68 26.9979ZM13.5139 47.1941H9.79979C6.38403 47.1941 3.60966 44.4198 3.60966 41.004V36.738C3.60966 33.3223 6.38403 30.5479 9.79979 30.5479H13.5139V47.1941ZM37.9015 67.4202H33.4118C31.9202 67.4202 30.712 66.212 30.712 64.7204C30.712 63.2288 31.9202 62.0206 33.4118 62.0206H37.9015C39.3931 62.0206 40.6013 63.2288 40.6013 64.7204C40.6013 66.212 39.3931 67.4202 37.9015 67.4202ZM63.2139 41.004C63.2139 44.4198 60.4395 47.1941 57.0237 47.1941H53.3097V30.5479H57.0237C60.4395 30.5479 63.2139 33.3223 63.2139 36.738V41.004Z" fill="#FFA800"/>
<path fill-rule="evenodd" clip-rule="evenodd" d="M43.8679 62.7664C43.0475 60.2456 40.6758 58.4258 37.8866 58.4258H33.4118C29.9513 58.4258 27.1321 61.245 27.1321 64.7055C27.1321 68.166 29.9513 71 33.4118 71H37.9015C40.7952 71 43.2265 69.0311 43.9574 66.3761C43.9574 66.3761 44.3679 64.3027 43.8679 62.7664ZM33.4118 67.4202H37.9015C39.3931 67.4202 40.6013 66.212 40.6013 64.7204C40.6013 63.2288 39.3931 62.0206 37.9015 62.0206H33.4118C31.9202 62.0206 30.712 63.2288 30.712 64.7204C30.712 66.212 31.9202 67.4202 33.4118 67.4202Z" fill="#FFA800"/>
</svg>
