<svg width="71" height="71" viewBox="0 0 71 71" fill="none" xmlns="http://www.w3.org/2000/svg">
<path d="M35.5 0C34.8456 0 34.3167 0.52895 34.3167 1.18333V16.9122C34.3167 17.5666 34.8456 18.0955 35.5 18.0955C36.1544 18.0955 36.6833 17.5666 36.6833 16.9122V2.38797C54.4085 3.01277 68.6333 17.6269 68.6333 35.5C68.6333 53.7695 53.7695 68.6333 35.5 68.6333C17.2305 68.6333 2.36667 53.7695 2.36667 35.5C2.36667 26.6723 5.79833 18.3665 12.0298 12.1126C12.4924 11.6487 12.4901 10.9009 12.0274 10.4394C11.5635 9.98023 10.8157 9.98023 10.3542 10.4417C3.67662 17.1418 0 26.0416 0 35.5C0 55.0747 15.9253 71 35.5 71C55.0747 71 71 55.0747 71 35.5C71 15.9253 55.0747 0 35.5 0Z" fill="#FFA800"/>
<path d="M33.7905 39.6795C34.5171 40.6794 35.6401 41.3077 36.8719 41.4036C36.982 41.4131 37.092 41.4166 37.2009 41.4166C38.3156 41.4166 39.3877 40.9764 40.1817 40.1812C41.0538 39.3091 41.4999 38.1033 41.4041 36.8714C41.3082 35.6396 40.6799 34.5166 39.6776 33.7877L24.3605 22.7081C23.8919 22.3697 23.2423 22.4217 22.8305 22.8312C22.4187 23.243 22.3678 23.8914 22.7074 24.3612L33.7905 39.6795ZM38.2872 35.7035C38.7262 36.023 39.0019 36.5164 39.0445 37.0572C39.0871 37.5968 38.8907 38.1258 38.5085 38.5092C38.1251 38.8914 37.5866 39.0866 37.0553 39.0452C36.5157 39.0038 36.0223 38.7269 35.7052 38.2914L28.9448 28.9466L38.2872 35.7035Z" fill="#FFA800"/>
</svg>
