<svg width="100" height="100" viewBox="0 0 100 100" fill="none" xmlns="http://www.w3.org/2000/svg">
<path d="M7.8125 7.8125H10.9375V10.9375H7.8125V7.8125Z" fill="#FFA800"/>
<path d="M14.0625 7.8125H17.1875V10.9375H14.0625V7.8125Z" fill="#FFA800"/>
<path d="M20.3125 7.8125H23.4375V10.9375H20.3125V7.8125Z" fill="#FFA800"/>
<path d="M26.5625 7.8125H29.6875V10.9375H26.5625V7.8125Z" fill="#FFA800"/>
<path d="M32.8125 7.8125H35.9375V10.9375H32.8125V7.8125Z" fill="#FFA800"/>
<path d="M39.0625 7.8125H42.1875V10.9375H39.0625V7.8125Z" fill="#FFA800"/>
<path d="M45.3125 7.8125H48.4375V10.9375H45.3125V7.8125Z" fill="#FFA800"/>
<path d="M51.5625 7.8125H54.6875V10.9375H51.5625V7.8125Z" fill="#FFA800"/>
<path d="M57.8125 7.8125H60.9375V10.9375H57.8125V7.8125Z" fill="#FFA800"/>
<path d="M7.8125 32.8125H10.9375V35.9375H7.8125V32.8125Z" fill="#FFA800"/>
<path d="M14.0625 32.8125H17.1875V35.9375H14.0625V32.8125Z" fill="#FFA800"/>
<path d="M20.3125 32.8125H23.4375V35.9375H20.3125V32.8125Z" fill="#FFA800"/>
<path d="M26.5625 32.8125H29.6875V35.9375H26.5625V32.8125Z" fill="#FFA800"/>
<path d="M32.8125 32.8125H35.9375V35.9375H32.8125V32.8125Z" fill="#FFA800"/>
<path d="M39.0625 32.8125H42.1875V35.9375H39.0625V32.8125Z" fill="#FFA800"/>
<path d="M45.3125 32.8125H48.4375V35.9375H45.3125V32.8125Z" fill="#FFA800"/>
<path d="M51.5625 32.8125H54.6875V35.9375H51.5625V32.8125Z" fill="#FFA800"/>
<path d="M57.8125 32.8125H60.9375V35.9375H57.8125V32.8125Z" fill="#FFA800"/>
<path d="M57.8125 14.0625H60.9375V17.1875H57.8125V14.0625Z" fill="#FFA800"/>
<path d="M57.8125 20.3125H60.9375V23.4375H57.8125V20.3125Z" fill="#FFA800"/>
<path d="M57.8125 26.5625H60.9375V29.6875H57.8125V26.5625Z" fill="#FFA800"/>
<path d="M32.8125 14.0625H35.9375V17.1875H32.8125V14.0625Z" fill="#FFA800"/>
<path d="M32.8125 20.3125H35.9375V23.4375H32.8125V20.3125Z" fill="#FFA800"/>
<path d="M32.8125 26.5625H35.9375V29.6875H32.8125V26.5625Z" fill="#FFA800"/>
<path d="M7.8125 14.0625H10.9375V17.1875H7.8125V14.0625Z" fill="#FFA800"/>
<path d="M7.8125 20.3125H10.9375V23.4375H7.8125V20.3125Z" fill="#FFA800"/>
<path d="M7.8125 26.5625H10.9375V29.6875H7.8125V26.5625Z" fill="#FFA800"/>
<path d="M59.375 59.375H57.8125V43.75C57.8125 42.8859 57.1125 42.1875 56.25 42.1875H39.0625V40.625C39.0625 39.7609 38.3625 39.0625 37.5 39.0625H31.25C30.3875 39.0625 29.6875 39.7609 29.6875 40.625V42.1875H12.5C11.6375 42.1875 10.9375 42.8859 10.9375 43.75V59.375H9.375C8.5125 59.375 7.8125 60.0734 7.8125 60.9375V67.1875C7.8125 68.0516 8.5125 68.75 9.375 68.75H10.9375V84.375C10.9375 85.2391 11.6375 85.9375 12.5 85.9375H29.6875V87.5C29.6875 88.3641 30.3875 89.0625 31.25 89.0625H37.5C38.3625 89.0625 39.0625 88.3641 39.0625 87.5V85.9375H56.25C57.1125 85.9375 57.8125 85.2391 57.8125 84.375V68.75H59.375C60.2375 68.75 60.9375 68.0516 60.9375 67.1875V60.9375C60.9375 60.0734 60.2375 59.375 59.375 59.375ZM39.0625 46.875V45.3125H54.6875V59.375H53.125C52.2625 59.375 51.5625 60.0734 51.5625 60.9375V62.5H35.9375V48.4375H37.5C38.3625 48.4375 39.0625 47.7391 39.0625 46.875ZM32.8125 42.1875H35.9375V45.3125H32.8125V42.1875ZM14.0625 45.3125H29.6875V46.875C29.6875 47.7391 30.3875 48.4375 31.25 48.4375H32.8125V62.5H17.1875V60.9375C17.1875 60.0734 16.4875 59.375 15.625 59.375H14.0625V45.3125ZM10.9375 62.5H14.0625V65.625H10.9375V62.5ZM29.6875 81.25V82.8125H14.0625V68.75H15.625C16.4875 68.75 17.1875 68.0516 17.1875 67.1875V65.625H32.8125V79.6875H31.25C30.3875 79.6875 29.6875 80.3859 29.6875 81.25ZM35.9375 85.9375H32.8125V82.8125H35.9375V85.9375ZM54.6875 82.8125H39.0625V81.25C39.0625 80.3859 38.3625 79.6875 37.5 79.6875H35.9375V65.625H51.5625V67.1875C51.5625 68.0516 52.2625 68.75 53.125 68.75H54.6875V82.8125ZM57.8125 65.625H54.6875V62.5H57.8125V65.625Z" fill="#FFA800"/>
<path d="M67.3063 91.2234C67.5485 91.8078 68.1188 92.1875 68.7501 92.1875H90.625C91.4875 92.1875 92.1875 91.489 92.1875 90.625V68.75C92.1875 68.1187 91.8063 67.5469 91.2235 67.3062C90.6375 67.0609 89.9672 67.1984 89.5204 67.6453L67.6454 89.5203C67.1985 89.9672 67.0641 90.639 67.3063 91.2234ZM89.0625 72.5219V89.0625H72.5219L89.0625 72.5219Z" fill="#FFA800"/>
<path d="M95.2328 8.88125C95.0188 8.24219 94.4234 7.8125 93.75 7.8125C93.0766 7.8125 92.4812 8.24219 92.2672 8.88125L89.1422 18.2563C89.0891 18.4156 89.0625 18.5828 89.0625 18.75V58.7281L85.9375 61.8531V12.5C85.9375 11.6359 85.2375 10.9375 84.375 10.9375H71.875C71.0125 10.9375 70.3125 11.6359 70.3125 12.5V77.4781L67.1875 80.6031V3.125C67.1875 2.26094 66.4875 1.5625 65.625 1.5625H3.125C2.2625 1.5625 1.5625 2.26094 1.5625 3.125V93.75C1.5625 94.6141 2.2625 95.3125 3.125 95.3125H52.4781L52.0203 95.7703C51.5734 96.2172 51.4391 96.8891 51.6813 97.4734C51.9234 98.0578 52.4938 98.4375 53.125 98.4375H96.875C97.7375 98.4375 98.4375 97.7391 98.4375 96.875V53.125V18.75C98.4375 18.5828 98.4109 18.4156 98.3578 18.2563L95.2328 8.88125ZM94.7078 17.1875H92.7937L93.75 14.3156L94.7078 17.1875ZM92.1875 20.3125H95.3125V52.4781L92.1875 55.6031V20.3125ZM73.4375 64.0625H79.6875V60.9375H73.4375V57.8125H76.5625V54.6875H73.4375V51.5625H76.5625V48.4375H73.4375V45.3125H76.5625V42.1875H73.4375V39.0625H79.6875V35.9375H73.4375V32.8125H76.5625V29.6875H73.4375V26.5625H76.5625V23.4375H73.4375V20.3125H76.5625V17.1875H73.4375V14.0625H82.8125V64.9781L73.4375 74.3531V64.0625ZM4.6875 92.1875V4.6875H64.0625V83.7281L55.6031 92.1875H4.6875ZM95.3125 95.3125H56.8969L95.3125 56.8969V95.3125Z" fill="#FFA800"/>
</svg>
