<svg width="94" height="93" viewBox="0 0 94 93" fill="none" xmlns="http://www.w3.org/2000/svg">
<path d="M49.56 58.883C51.1909 58.7574 52.6777 57.9344 53.6427 56.6215L68.3114 36.5583C68.7611 35.943 68.6937 35.0936 68.1485 34.5542C67.6033 34.0163 66.7448 33.9497 66.1228 34.393L45.8407 48.9103C44.5185 49.862 43.6866 51.3329 43.5597 52.9465C43.4328 54.56 44.0234 56.1395 45.178 57.2818C46.2293 58.3234 47.6471 58.9 49.1213 58.9C49.267 58.9 49.4127 58.8938 49.56 58.883ZM46.6836 53.1883C46.7384 52.4799 47.105 51.8336 47.6816 51.4182L60.0535 42.563L51.1063 54.8003C50.6833 55.3753 50.03 55.7365 49.314 55.7923C48.6012 55.8388 47.9009 55.5939 47.3917 55.0901C46.8873 54.5895 46.6272 53.8951 46.6836 53.1883Z" fill="#FFA800"/>
<path d="M84.6533 30.3242C84.6376 30.2916 84.6376 30.2575 84.6204 30.225C84.6016 30.194 84.5718 30.177 84.5515 30.1475C82.9676 27.4598 81.0938 24.9596 78.9663 22.6935L82.3315 19.3657L84.5468 21.5574L91.1926 14.9807L84.5468 8.40565L77.8994 14.9807L80.1162 17.174L76.751 20.5019C74.4606 18.3969 71.9351 16.5416 69.2169 14.9746C69.1872 14.9544 69.1699 14.9249 69.1386 14.9063C69.1057 14.8877 69.0712 14.8893 69.0383 14.8722C64.1926 12.1102 58.7485 10.2703 52.944 9.59605V7.75H55.294C57.4544 7.75 59.2106 6.01245 59.2106 3.875C59.2106 1.73755 57.4528 0 55.2924 0H41.1924C39.032 0 37.2757 1.73755 37.2757 3.875C37.2757 6.01245 39.032 7.75 41.1924 7.75H43.5424V9.5418C41.8504 9.72005 40.1615 9.99285 38.4915 10.371C37.6486 10.5617 37.1206 11.394 37.3149 12.2279C37.5076 13.0618 38.3489 13.5858 39.1918 13.392C40.6331 13.0649 42.0885 12.8185 43.5471 12.6526L45.2281 12.524C45.742 12.4852 46.2151 12.4573 46.6757 12.4356V15.5C46.6757 16.3571 47.376 17.05 48.2424 17.05C49.1088 17.05 49.8091 16.3571 49.8091 15.5V12.4465C55.7013 12.7146 61.2536 14.2801 66.1901 16.8562L64.6454 19.5021C64.213 20.2445 64.4699 21.1916 65.2188 21.6194C65.4648 21.7604 65.7342 21.8271 66.0006 21.8271C66.5426 21.8271 67.069 21.5496 67.3589 21.0521L68.8989 18.4124C73.801 21.4892 77.9652 25.6091 81.075 30.459L78.407 31.9827C77.6597 32.4105 77.4028 33.3575 77.8367 34.1C78.1281 34.5975 78.653 34.875 79.195 34.875C79.4614 34.875 79.7308 34.8083 79.9768 34.6673L82.6511 33.139C85.2909 38.0928 86.878 43.6759 87.1145 49.5984H84.0204C83.154 49.5984 82.4537 50.2913 82.4537 51.1484C82.4537 52.0056 83.154 52.6984 84.0204 52.6984H87.1145C86.878 58.621 85.2909 64.2041 82.6511 69.1579L79.9768 67.6296C79.2279 67.2018 78.2691 67.4529 77.8367 68.1969C77.4043 68.9393 77.6613 69.8864 78.4101 70.3142L81.0782 71.8378C77.9683 76.6878 73.8041 80.8077 68.902 83.8844L67.362 81.2448C66.928 80.5008 65.9677 80.2481 65.2219 80.6775C64.4715 81.1053 64.2146 82.0539 64.6485 82.7948L66.1933 85.4407C61.2567 88.0167 55.7044 89.5822 49.8122 89.8504V86.8C49.8122 85.9428 49.1119 85.25 48.2455 85.25C47.3792 85.25 46.6789 85.9428 46.6789 86.8V89.8628C44.1769 89.7775 41.6671 89.4676 39.1965 88.9064C38.3536 88.7065 37.5123 89.2366 37.3196 90.0705C37.1253 90.9044 37.6533 91.7367 38.4962 91.9274C41.6232 92.6404 44.8177 93 47.987 93C48.0638 93 48.1374 92.9953 48.2142 92.9938C48.2252 92.9938 48.233 93 48.2424 93C48.2549 93 48.2659 92.9922 48.2784 92.9922C55.8094 92.9411 62.8751 90.9292 68.9882 87.4541C69.0368 87.4324 69.0885 87.4215 69.1355 87.3936C69.1668 87.375 69.184 87.3456 69.2138 87.3254C75.5416 83.6768 80.8291 78.4517 84.5248 72.1959C84.5546 72.154 84.5922 72.1215 84.6188 72.075C84.6376 72.0424 84.6361 72.0083 84.6517 71.9758C88.23 65.8378 90.287 58.7295 90.287 51.15C90.287 43.5705 88.23 36.4622 84.6533 30.3242ZM84.5452 12.7891L86.7605 14.9807L84.5452 17.174L82.3284 14.9807L84.5452 12.7891ZM46.6757 9.33255V4.65H41.1924C40.7616 4.65 40.4091 4.30125 40.4091 3.875C40.4091 3.44875 40.7616 3.1 41.1924 3.1H55.2924C55.7232 3.1 56.0757 3.44875 56.0757 3.875C56.0757 4.30125 55.7232 4.65 55.2924 4.65H49.8091V9.33255C49.2639 9.31085 48.7437 9.3 48.2424 9.3C48.1985 9.3 48.1484 9.3031 48.1045 9.3031C48.0654 9.3031 48.0262 9.3 47.987 9.3C47.7301 9.3 47.4732 9.31705 47.2162 9.3217C47.0345 9.32635 46.8637 9.3248 46.6757 9.33255Z" fill="#FFA800"/>
<path d="M34.1424 21.7H26.3091C25.4427 21.7 24.7424 22.3928 24.7424 23.25C24.7424 24.1071 25.4427 24.8 26.3091 24.8H34.1424C35.0088 24.8 35.7091 24.1071 35.7091 23.25C35.7091 22.3928 35.0088 21.7 34.1424 21.7Z" fill="#FFA800"/>
<path d="M34.1424 32.55H18.4757C17.6094 32.55 16.9091 33.2429 16.9091 34.1C16.9091 34.9572 17.6094 35.65 18.4757 35.65H34.1424C35.0088 35.65 35.7091 34.9572 35.7091 34.1C35.7091 33.2429 35.0088 32.55 34.1424 32.55Z" fill="#FFA800"/>
<path d="M34.1423 43.4H10.6424C9.77598 43.4 9.07568 44.0929 9.07568 44.95C9.07568 45.8072 9.77598 46.5 10.6424 46.5H34.1423C35.0087 46.5 35.709 45.8072 35.709 44.95C35.709 44.0929 35.0087 43.4 34.1423 43.4Z" fill="#FFA800"/>
<path d="M34.1424 54.25H4.37575C3.50938 54.25 2.80908 54.9429 2.80908 55.8C2.80908 56.6572 3.50938 57.35 4.37575 57.35H34.1424C35.0088 57.35 35.7091 56.6572 35.7091 55.8C35.7091 54.9429 35.0088 54.25 34.1424 54.25Z" fill="#FFA800"/>
<path d="M34.1424 65.1H13.7758C12.9094 65.1 12.2091 65.7928 12.2091 66.65C12.2091 67.5071 12.9094 68.2 13.7758 68.2H34.1424C35.0088 68.2 35.7091 67.5071 35.7091 66.65C35.7091 65.7928 35.0088 65.1 34.1424 65.1Z" fill="#FFA800"/>
<path d="M34.1425 75.95H23.1758C22.3094 75.95 21.6091 76.6428 21.6091 77.5C21.6091 78.3571 22.3094 79.05 23.1758 79.05H34.1425C35.0088 79.05 35.7091 78.3571 35.7091 77.5C35.7091 76.6428 35.0088 75.95 34.1425 75.95Z" fill="#FFA800"/>
</svg>
