<svg width="93" height="94" viewBox="0 0 93 94" fill="none" xmlns="http://www.w3.org/2000/svg">
<path d="M1.55865 88.7203L87.7851 1.56665L91.9609 5.80194L5.73446 92.9555L1.55865 88.7203Z" fill="#FFA800"/>
<path d="M15.067 25.5888C20.7977 25.5888 25.4581 20.9045 25.4581 15.1444C25.4581 9.38428 20.7977 4.69995 15.067 4.69995C9.33636 4.69995 4.67596 9.38428 4.67596 15.1444C4.67596 20.9045 9.33636 25.5888 15.067 25.5888Z" fill="#FFA800"/>
<path d="M77.9329 68.4111C72.2023 68.4111 67.5419 73.0955 67.5419 78.8556C67.5419 84.6157 72.2023 89.3 77.9329 89.3C83.6636 89.3 88.324 84.6157 88.324 78.8556C88.324 73.0955 83.6636 68.4111 77.9329 68.4111Z" fill="#FFA800"/>
</svg>
