<svg width="125" height="93" viewBox="0 0 125 93" fill="none" xmlns="http://www.w3.org/2000/svg">
<path d="M104.948 73.5209C102.502 73.5209 100.521 75.7349 100.521 78.4688C100.521 81.2027 102.502 83.4167 104.948 83.4167C107.394 83.4167 109.375 81.2027 109.375 78.4688C109.375 75.7349 107.394 73.5209 104.948 73.5209Z" fill="#FFA800"/>
<path d="M103.125 53.7292C101.688 53.7292 100.521 54.896 100.521 56.3334C100.521 57.7708 101.688 58.9376 103.125 58.9376C104.562 58.9376 105.729 57.7708 105.729 56.3334C105.729 54.896 104.562 53.7292 103.125 53.7292Z" fill="#FFA800"/>
<path d="M30.4687 73.5209C27.7348 73.5209 25.5208 75.7349 25.5208 78.4688C25.5208 81.2027 27.7348 83.4167 30.4687 83.4167C33.2027 83.4167 35.4167 81.2027 35.4167 78.4688C35.4167 75.7349 33.2027 73.5209 30.4687 73.5209Z" fill="#FFA800"/>
<path d="M114.26 44.4274L110.068 27.6957C111.558 26.2733 112.323 24.3865 112.323 22.4381C112.323 18.4248 109.051 15.1602 105.029 15.1602H85.5794V7.88221C85.5794 3.86891 82.3077 0.604248 78.2857 0.604248H7.2937C3.27172 0.604248 0 3.86891 0 7.88221V70.9579C0 74.9712 3.27172 78.2358 7.2937 78.2358H16.0461C16.0461 86.2624 22.5896 92.7917 30.6335 92.7917C38.6775 92.7917 45.2209 86.2624 45.2209 78.2358H90.4419C90.4419 86.2624 96.9853 92.7917 105.029 92.7917C113.073 92.7917 119.617 86.2624 119.617 78.2358C119.617 78.0975 119.61 77.9601 119.606 77.8217C122.441 76.8238 124.479 74.124 124.479 70.9579V56.4019C124.479 50.3711 120.046 45.3561 114.26 44.4274ZM105.562 29.7161L109.209 44.272H89.0173L94.5921 38.7093C95.5418 37.7616 95.5418 36.2265 94.5921 35.2788C93.6424 34.3312 92.1039 34.3312 91.1542 35.2788L85.5794 40.8406V29.7161H105.562ZM107.461 22.4381C107.461 23.7772 106.371 24.8641 105.029 24.8641H85.5794V20.0121H105.029C106.37 20.0121 107.461 21.1 107.461 22.4381ZM30.6335 87.9398C25.2715 87.9398 20.9086 83.5863 20.9086 78.2358C20.9086 72.8124 25.3504 68.5319 30.6335 68.5319C35.9291 68.5319 40.3585 72.8238 40.3585 78.2358C40.3585 83.5863 35.9956 87.9398 30.6335 87.9398ZM44.3862 73.3839C42.3557 67.6591 36.8598 63.6799 30.6335 63.6799C24.4045 63.6799 18.9066 67.6619 16.88 73.3839H7.2937C5.95272 73.3839 4.86247 72.296 4.86247 70.9579V7.88221C4.86247 6.54413 5.95272 5.45622 7.2937 5.45622H78.2857C79.6267 5.45622 80.717 6.54413 80.717 7.88221V73.3839H44.3862ZM105.029 87.9398C99.6673 87.9398 95.3044 83.5863 95.3044 78.2358C95.3044 72.8124 99.7461 68.5319 105.029 68.5319C110.325 68.5319 114.754 72.8238 114.754 78.2358C114.754 83.5863 110.391 87.9398 105.029 87.9398ZM118.609 72.9204C116.452 67.4449 111.086 63.6799 105.029 63.6799C98.8002 63.6799 93.3024 67.6619 91.2757 73.3839H85.5794V49.124H112.323C115.492 49.124 118.195 51.152 119.199 53.976H112.323C110.98 53.976 109.892 55.062 109.892 56.4019C109.892 57.7419 110.98 58.8279 112.323 58.8279H119.617V70.9579C119.617 71.7643 119.218 72.4788 118.609 72.9204Z" fill="#FFA800"/>
<path d="M42.7083 14.6667C30.9339 14.6667 21.3542 24.5969 21.3542 36.8022C21.3542 49.0074 30.9339 58.9376 42.7083 58.9376C54.4828 58.9376 64.0625 49.0074 64.0625 36.8022C64.0625 24.5969 54.4828 14.6667 42.7083 14.6667ZM42.7083 54.0186C33.5503 54.0186 26.0995 46.2952 26.0995 36.8022C26.0995 27.3091 33.5503 19.5857 42.7083 19.5857C51.8663 19.5857 59.3171 27.3091 59.3171 36.8022C59.3171 46.2952 51.8663 54.0186 42.7083 54.0186Z" fill="#FFA800"/>
<path d="M52.7778 34.8056H45.4861V27.5139C45.4861 26.1714 44.3981 25.0834 43.0556 25.0834C41.7131 25.0834 40.625 26.1714 40.625 27.5139V37.2362C40.625 38.5787 41.7131 39.6667 43.0556 39.6667H52.7778C54.1203 39.6667 55.2083 38.5787 55.2083 37.2362C55.2083 35.8936 54.1203 34.8056 52.7778 34.8056Z" fill="#FFA800"/>
</svg>
